<?xml version="1.0" encoding="UTF-8" standalone="no"?>
<!-- Created with Inkscape (http://www.inkscape.org/) -->

<svg
   width="414.29224"
   height="306.8175"
   viewBox="0 0 109.61482 81.178798"
   version="1.1"
   id="svg1"
   sodipodi:docname="mx-butterfly-splash.svg"
   inkscape:version="1.3.2 (091e20e, 2023-11-25)"
   xmlns:inkscape="http://www.inkscape.org/namespaces/inkscape"
   xmlns:sodipodi="http://sodipodi.sourceforge.net/DTD/sodipodi-0.dtd"
   xmlns:xlink="http://www.w3.org/1999/xlink"
   xmlns="http://www.w3.org/2000/svg"
   xmlns:svg="http://www.w3.org/2000/svg">
  <sodipodi:namedview
     id="namedview1"
     pagecolor="#ffffff"
     bordercolor="#999999"
     borderopacity="1"
     inkscape:showpageshadow="2"
     inkscape:pageopacity="0"
     inkscape:pagecheckerboard="0"
     inkscape:deskcolor="#d1d1d1"
     inkscape:zoom="1.0868918"
     inkscape:cx="86.485152"
     inkscape:cy="260.83554"
     inkscape:window-width="1712"
     inkscape:window-height="1040"
     inkscape:window-x="0"
     inkscape:window-y="39"
     inkscape:window-maximized="1"
     inkscape:current-layer="svg1" />
  <defs
     id="defs1">
    <linearGradient
       id="linearGradient421">
      <stop
         style="stop-color:#4078f2;stop-opacity:0.5;"
         offset="0"
         id="stop421" />
      <stop
         style="stop-color:#ca3ec9;stop-opacity:0.5;"
         offset="1"
         id="stop422" />
    </linearGradient>
    <linearGradient
       xlink:href="#linearGradient1791"
       id="linearGradient1793"
       x1="31.405035"
       y1="1816.9978"
       x2="4869.6509"
       y2="1816.9978"
       gradientUnits="userSpaceOnUse" />
    <linearGradient
       id="linearGradient1791">
      <stop
         style="stop-color:#000000;stop-opacity:1;"
         offset="0"
         id="stop1787" />
      <stop
         style="stop-color:#000000;stop-opacity:0;"
         offset="1"
         id="stop1789" />
    </linearGradient>
    <linearGradient
       xlink:href="#linearGradient421"
       id="linearGradient422"
       x1="542.05408"
       y1="412.49466"
       x2="4348.3213"
       y2="3210.8206"
       gradientUnits="userSpaceOnUse"
       gradientTransform="matrix(0.80246217,0,0,0.80246217,484.0732,358.92876)" />
    <linearGradient
       inkscape:collect="always"
       xlink:href="#linearGradient243"
       id="linearGradient244"
       x1="269.00613"
       y1="553.18219"
       x2="579.76648"
       y2="553.18219"
       gradientUnits="userSpaceOnUse"
       gradientTransform="translate(14.188979,-14.595867)" />
    <linearGradient
       id="linearGradient243"
       inkscape:collect="always">
      <stop
         style="stop-color:#4078f2;stop-opacity:0.50196081;"
         offset="0"
         id="stop243" />
      <stop
         style="stop-color:#ca3ec9;stop-opacity:0.50196081;"
         offset="1"
         id="stop244" />
    </linearGradient>
  </defs>
  <g
     id="g49"
     transform="matrix(0.29956459,0,0,-0.29956459,-76.557716,206.71143)">
    <path
       id="path1"
       style="font-variation-settings:normal;vector-effect:none;fill:#88507d;fill-opacity:1;stroke:none;stroke-width:0.134872;stroke-linecap:butt;stroke-linejoin:miter;stroke-miterlimit:4;stroke-dasharray:none;stroke-dashoffset:0;stroke-opacity:1;-inkscape-stroke:none;stop-color:#000000"
       d="m 433.95719,592.72649 -5.15782,-4.24375 c 0,0 -29.17816,19.25698 -73.01093,20.5625 -43.83279,1.30552 -63.41551,-5.54812 -65.14532,-6.36407 -1.7298,-0.81594 -5.18974,-2.12259 -4.73281,-3.42812 0.45694,-1.30552 -4.30723,-6.85302 -2.15312,-9.46406 2.1541,-2.61103 0,-6.85469 0,-6.85469 0,0 1.27275,-3.00214 1.72968,-5.15625 0.45692,-2.1541 7.30996,-6.49499 9.46407,-7.31094 2.1541,-0.81594 4.70045,-3.42656 8.58437,-3.42656 3.88392,0 6.42885,-6.85469 7.73438,-6.85469 1.3055,0 3.42769,-0.48987 6.85468,-4.73281 3.42698,-4.24294 4.27546,-5.58025 8.15938,-6.85313 3.88391,-1.27287 0.84917,-3.49226 2.15469,-6.42968 1.30551,-2.93741 4.76502,-2.93822 8.15937,-4.24375 3.39435,-1.30551 3.00199,-3.42572 6.00469,-4.73125 3.00269,-1.30552 -0.065,-5.9e-4 3.85156,-2.15469 3.91656,-2.15411 16.86489,6.85424 16.86489,6.85424 l -4.3977,-6.0058 c 0,0 -1.69589,-1.7298 -3.85,-6.42969 -2.15411,-4.69986 0.39152,-9.00824 0.84844,-12.01094 0.45693,-3.00269 -0.84844,-7.73437 -0.84844,-7.73437 0,0 2.47974,-3.39438 4.24219,-7.31094 1.76245,-3.91656 2.15341,-9.46563 6.00468,-9.46563 3.85127,0 5.97333,-8.1598 8.58438,-11.1625 2.61104,-3.00268 5.61361,-1.27273 8.15937,-0.84843 2.54576,0.42429 5.4175,-9.79128 9.85625,-8.15938 6.85398,2.54576 6.82134,0.42444 11.97813,-0.84844 5.1568,-1.27287 5.78157,3.41309 7.90304,5.5672 2.12146,2.15411 7.14395,-2.53156 11.84383,-0.83438 4.69986,1.69718 2.65329,6.87156 5.65599,7.6875 3.00268,0.81595 4.07912,1.7417 4.07912,4.7444 0,3.00269 -1.96546,30.40752 0.96958,26.56966 2.3887,-3.12345 4.87774,-1.9507 4.73281,-2.61094 0,0 0.002,0.0964 0.002,0.0969 0.5776,-0.28725 1.45831,-0.18371 3.55625,2.80781 3.48973,4.97613 1.00119,-23.61479 1.00113,-26.61751 -7e-5,-3.0027 0.65631,-4.34735 3.659,-5.1633 3.00268,-0.81594 1.51974,-5.22598 6.21961,-6.92315 4.69986,-1.69717 10.16628,1.85651 12.28774,-0.2976 2.12148,-2.1541 2.12728,-6.00567 7.28408,-4.73282 5.15679,1.2729 5.27951,4.59974 12.13348,2.02134 4.43877,-1.63191 7.18811,7.7959 9.76652,7.37161 2.57838,-0.42429 5.54833,-2.53938 8.15937,0.4633 2.61101,3.0027 4.73293,11.19532 8.55157,11.19532 3.81865,0 4.24223,5.5475 6.00468,9.46406 1.76246,3.91656 4.30782,7.31094 4.30782,7.31094 0,0 -1.30539,4.73324 -0.84844,7.73593 0.45692,3.0027 3.00252,7.31108 0.84844,12.01094 -2.15412,4.69987 -3.85157,6.42969 -3.85157,6.42969 l -4.08353,5.4292 c 0,0 12.73637,-8.09033 16.65292,-5.93623 3.91655,2.15411 0.8123,0.3765 3.81499,1.68203 3.00271,1.30551 2.61189,3.42728 6.00625,4.73281 3.39435,1.30551 6.85384,1.30477 8.15937,4.24219 1.30554,2.93742 -1.72922,5.15681 2.15469,6.42969 3.88395,1.2729 4.73242,2.61175 8.15938,6.85468 3.42698,4.24294 5.54761,4.73282 6.85312,4.73282 1.30551,0 3.85199,6.85312 7.73594,6.85312 3.8839,0 6.42872,2.61063 8.58281,3.42656 2.15409,0.81596 9.00868,5.15683 9.46563,7.31094 0.45691,2.15411 1.72968,5.15781 1.72968,5.15781 0,0 -2.15412,4.24209 0,6.85313 2.1541,2.61104 -2.61159,8.16011 -2.15468,9.46562 0.45695,1.30552 -3.00144,2.61062 -4.73125,3.42657 -1.72981,0.81595 -21.47644,7.7352 -65.27657,6.42968 -43.80015,-1.30551 -72.97812,-20.5625 -72.97812,-20.5625 l -5.15781,4.24375 z"
       sodipodi:nodetypes="ccsssscssssssssssccsscsssscssssssccsssssscsssscssccsssssssssscssssccc" />
    <path
       id="path241"
       style="font-variation-settings:normal;vector-effect:none;fill:url(#linearGradient244);fill-opacity:1;stroke:none;stroke-width:0.134775;stroke-linecap:butt;stroke-linejoin:miter;stroke-miterlimit:4;stroke-dasharray:none;stroke-dashoffset:0;stroke-opacity:1;-inkscape-stroke:none;stop-color:#000000"
       d="m 433.95719,592.72649 -5.15782,-4.24375 c 0,0 -29.17816,19.25698 -73.01093,20.5625 -43.83279,1.30552 -63.41551,-5.54812 -65.14532,-6.36407 -1.7298,-0.81594 -5.18974,-2.12259 -4.73281,-3.42812 0.45694,-1.30552 -4.30723,-6.85302 -2.15312,-9.46406 2.1541,-2.61103 0,-6.85469 0,-6.85469 0,0 1.27275,-3.00214 1.72968,-5.15625 0.45692,-2.1541 7.30996,-6.49499 9.46407,-7.31094 2.1541,-0.81594 4.70045,-3.42656 8.58437,-3.42656 3.88392,0 6.42885,-6.85469 7.73438,-6.85469 1.3055,0 3.42769,-0.48987 6.85468,-4.73281 3.42698,-4.24294 4.27546,-5.58025 8.15938,-6.85313 3.88391,-1.27287 0.84917,-3.49226 2.15469,-6.42968 1.30551,-2.93741 4.76502,-2.93822 8.15937,-4.24375 3.39435,-1.30551 3.00199,-3.42572 6.00469,-4.73125 3.00269,-1.30552 -0.065,-5.9e-4 3.85156,-2.15469 3.91656,-2.15411 16.86489,6.85424 16.86489,6.85424 l -4.3977,-6.0058 c 0,0 -1.69589,-1.7298 -3.85,-6.42969 -2.15411,-4.69986 0.39152,-9.00824 0.84844,-12.01094 0.45693,-3.00269 -0.84844,-7.73437 -0.84844,-7.73437 0,0 2.47974,-3.39438 4.24219,-7.31094 1.76245,-3.91656 2.15341,-9.46563 6.00468,-9.46563 3.85127,0 5.97333,-8.1598 8.58438,-11.1625 2.61104,-3.00268 5.61361,-1.27273 8.15937,-0.84843 2.54576,0.42429 5.4175,-9.79128 9.85625,-8.15938 6.85398,2.54576 6.82134,0.42444 11.97813,-0.84844 5.1568,-1.27287 5.78157,3.41309 7.90304,5.5672 2.12146,2.15411 7.14395,-2.53156 11.84383,-0.83438 4.69986,1.69718 2.65329,6.87156 5.65599,7.6875 3.00268,0.81595 4.07912,1.7417 4.07912,4.7444 0,3.00269 -1.96546,30.40752 0.96958,26.56966 2.3887,-3.12345 4.87774,-1.9507 4.73281,-2.61094 0,0 0.002,0.0964 0.002,0.0969 0.5776,-0.28725 1.45831,-0.18371 3.55625,2.80781 3.48973,4.97613 1.00119,-23.61479 1.00113,-26.61751 -7e-5,-3.0027 0.65631,-4.34735 3.659,-5.1633 3.00268,-0.81594 1.51974,-5.22598 6.21961,-6.92315 4.69986,-1.69717 10.16628,1.85651 12.28774,-0.2976 2.12148,-2.1541 2.12728,-6.00567 7.28408,-4.73282 5.15679,1.2729 5.27951,4.59974 12.13348,2.02134 4.43877,-1.63191 7.18811,7.7959 9.76652,7.37161 2.57838,-0.42429 5.54833,-2.53938 8.15937,0.4633 2.61101,3.0027 4.73293,11.19532 8.55157,11.19532 3.81865,0 4.24223,5.5475 6.00468,9.46406 1.76246,3.91656 4.30782,7.31094 4.30782,7.31094 0,0 -1.30539,4.73324 -0.84844,7.73593 0.45692,3.0027 3.00252,7.31108 0.84844,12.01094 -2.15412,4.69987 -3.85157,6.42969 -3.85157,6.42969 l -4.08353,5.4292 c 0,0 12.73637,-8.09033 16.65292,-5.93623 3.91655,2.15411 0.8123,0.3765 3.81499,1.68203 3.00271,1.30551 2.61189,3.42728 6.00625,4.73281 3.39435,1.30551 6.85384,1.30477 8.15937,4.24219 1.30554,2.93742 -1.72922,5.15681 2.15469,6.42969 3.88395,1.2729 4.73242,2.61175 8.15938,6.85468 3.42698,4.24294 5.54761,4.73282 6.85312,4.73282 1.30551,0 3.85199,6.85312 7.73594,6.85312 3.8839,0 6.42872,2.61063 8.58281,3.42656 2.15409,0.81596 9.00868,5.15683 9.46563,7.31094 0.45691,2.15411 1.72968,5.15781 1.72968,5.15781 0,0 -2.15412,4.24209 0,6.85313 2.1541,2.61104 -2.61159,8.16011 -2.15468,9.46562 0.45695,1.30552 -3.00144,2.61062 -4.73125,3.42657 -1.72981,0.81595 -21.47644,7.7352 -65.27657,6.42968 -43.80015,-1.30551 -72.97812,-20.5625 -72.97812,-20.5625 l -5.15781,4.24375 z"
       sodipodi:nodetypes="ccsssscssssssssssccsscsssscssssssccsssssscsssscssccsssssssssscssssccc" />
    <g
       id="g2233"
       style="fill:#efedec;fill-opacity:1;stroke:none"
       transform="matrix(0.8,0,0,-0.8,669.29327,656.42063)">
      <path
         sodipodi:nodetypes="ccsscsscsscsssc"
         id="path7673"
         d="m -412.79594,74.487073 -4.25303,5.328593 c 0,0 0.23694,5.455883 3.32995,6.939622 7.08876,3.400535 20.39364,-7.486248 22.67053,-6.56887 2.2769,0.917413 5.59774,6.293369 6.1979,12.306968 5.62584,-5.184512 10.65018,-6.555613 15.49553,0.614252 2.81904,4.171456 6.81502,18.031272 11.41621,20.339812 4.98206,2.49964 11.27253,-0.79719 16.7622,-9.04428 -4.40336,2.75947 -6.2558,4.04452 -9.31315,3.13959 -3.15544,-0.93397 -3.10955,-0.22468 -9.75083,-15.369087 -6.64128,-15.144413 -13.69322,-11.670185 -18.62458,-8.10556 -0.42348,-1.040982 -1.87018,-8.205789 -6.22683,-9.760388 -3.08698,-1.101523 -10.89514,4.284716 -14.93364,5.796044 -4.19541,1.570046 -6.2822,1.349927 -7.44436,0.936001 -1.80117,-0.640549 -5.60217,-0.757013 -5.3259,-6.552697 z"
         style="fill:#efedec;fill-opacity:1;fill-rule:evenodd;stroke:none;stroke-width:0.0646848;stroke-linecap:butt;stroke-linejoin:round;stroke-miterlimit:4;stroke-dasharray:none;stroke-opacity:1" />
      <path
         sodipodi:nodetypes="csscsssc"
         id="path8693"
         d="m -387.7379,91.258793 c -11.74705,6.871149 -12.15852,6.986265 -19.00761,12.424867 -6.84911,5.43862 -9.70057,9.68218 -8.34253,12.15889 1.36834,2.49552 4.92276,3.91739 10.52078,2.29005 7.85164,-2.43114 18.49178,-6.10913 22.83788,-10.97981 1.12964,-1.26598 -13.19203,4.86323 -18.37074,5.78255 -3.10704,0.55156 -6.68709,-0.32321 -7.87327,-2.78953 -2.42063,-5.03304 21.08627,-16.830926 20.23549,-18.887017 z"
         style="fill:#efedec;fill-opacity:1;fill-rule:evenodd;stroke:none;stroke-width:0.0646848;stroke-linecap:butt;stroke-linejoin:miter;stroke-miterlimit:4;stroke-dasharray:none;stroke-opacity:1" />
      <path
         sodipodi:nodetypes="cccsz"
         id="path9704"
         d="m -381.26964,113.02301 c 0.27666,-0.80178 6.63254,-5.35989 7.43088,-5.33444 7.75363,10.74342 -4.20422,26.60344 -8.16412,26.91107 0,0 3.41631,-7.43172 3.6504,-12.80714 0.2341,-5.37541 -3.19436,-7.96629 -2.91716,-8.76949 z"
         style="fill:#efedec;fill-opacity:1;fill-rule:evenodd;stroke:none;stroke-width:0.0646848;stroke-linecap:butt;stroke-linejoin:miter;stroke-miterlimit:4;stroke-dasharray:none;stroke-opacity:1" />
    </g>
    <g
       id="g46"
       style="fill:#efedec;fill-opacity:1;stroke:none"
       transform="matrix(-0.8,0,0,-0.8,207.72323,656.27792)">
      <path
         sodipodi:nodetypes="ccsscsscsscsssc"
         id="path44"
         d="m -413.40465,74.410984 -3.64432,5.404682 c 0,0 0.23694,5.455883 3.32995,6.939622 7.08876,3.400535 20.39364,-7.486248 22.67053,-6.56887 2.2769,0.917413 5.59774,6.293369 6.1979,12.306968 5.62584,-5.184512 10.65018,-6.555613 15.49553,0.614252 2.81904,4.171456 6.81502,18.031272 11.41621,20.339812 4.98206,2.49964 11.27253,-0.79719 16.7622,-9.04428 -4.40336,2.75947 -6.2558,4.04452 -9.31315,3.13959 -3.15544,-0.93397 -3.10955,-0.22468 -9.75083,-15.369087 -6.64128,-15.144413 -13.69322,-11.670185 -18.62458,-8.10556 -0.42348,-1.040982 -1.87018,-8.205789 -6.22683,-9.760388 -3.08698,-1.101523 -10.89514,4.284716 -14.93364,5.796044 -4.19541,1.570046 -6.2822,1.349927 -7.44436,0.936001 -1.80117,-0.640549 -6.21088,-0.833102 -5.93461,-6.628786 z"
         style="fill:#efedec;fill-opacity:1;fill-rule:evenodd;stroke:none;stroke-width:0.0646848;stroke-linecap:butt;stroke-linejoin:round;stroke-miterlimit:4;stroke-dasharray:none;stroke-opacity:1" />
      <path
         sodipodi:nodetypes="csscsssc"
         id="path45"
         d="m -387.7379,91.258793 c -11.74705,6.871149 -12.15852,6.986265 -19.00761,12.424867 -6.84911,5.43862 -9.70057,9.68218 -8.34253,12.15889 1.36834,2.49552 4.92276,3.91739 10.52078,2.29005 7.85164,-2.43114 18.49178,-6.10913 22.83788,-10.97981 1.12964,-1.26598 -13.19203,4.86323 -18.37074,5.78255 -3.10704,0.55156 -6.68709,-0.32321 -7.87327,-2.78953 -2.42063,-5.03304 21.08627,-16.830926 20.23549,-18.887017 z"
         style="fill:#efedec;fill-opacity:1;fill-rule:evenodd;stroke:none;stroke-width:0.0646848;stroke-linecap:butt;stroke-linejoin:miter;stroke-miterlimit:4;stroke-dasharray:none;stroke-opacity:1" />
      <path
         sodipodi:nodetypes="cccsz"
         id="path46"
         d="m -381.26964,112.69245 c 0.27666,-0.80178 6.63254,-5.35989 7.43088,-5.33444 7.75363,10.74342 -4.20422,26.60344 -8.16412,26.91107 0,0 3.41631,-7.43172 3.6504,-12.80714 0.2341,-5.37541 -3.19436,-7.96629 -2.91716,-8.76949 z"
         style="fill:#efedec;fill-opacity:1;fill-rule:evenodd;stroke:none;stroke-width:0.0646848;stroke-linecap:butt;stroke-linejoin:miter;stroke-miterlimit:4;stroke-dasharray:none;stroke-opacity:1" />
    </g>
    <path
       d="m 485.98606,491.95312 c 0,0 -3.48264,-0.25206 -7.96289,0.15192 -1.8144,0.1636 -8.70316,0.85588 -13.85344,2.01146 0,0 -6.27944,1.37495 -9.63888,2.64156 -3.5151,1.32531 -5.42789,2.45014 -6.28887,4.04398 0.0376,0.32657 -0.26507,1.48462 1.35593,2.18024 1.59486,0.6844 3.28777,1.05778 5.30911,1.26992 0.49443,0.0519 1.01881,0.2392 1.54563,0.12893 2.53684,-0.53097 5.68082,-1.66899 8.19624,0.20569 0.35401,0.26383 0.89457,0.0126 1.35989,0.0201 0.6585,0.0106 1.34149,0.023 2.05062,0.0384 10.54702,0.37077 14.05558,2.17697 15.92459,3.63168 1.79224,1.47575 0.89101,5.55853 -6.78834,9.15485 -3.86833,1.91508 -19.03257,5.44922 -19.03257,5.44922 5.10705,2.58268 14.63008,7.12295 16.58763,8.10339 1.71688,0.85987 4.46444,2.15461 5.06,3.72107 0.67525,1.50386 -1.5947,2.79931 -2.86269,3.17029 -4.08363,1.20512 -9.8485,1.95415 -15.09519,2.03824 -2.63726,0.0422 -3.06534,0.21587 -3.06534,0.21587 -3.63893,0.61758 -6.03445,3.16475 -5.03639,7.19873 0.89602,4.11764 5.62166,6.53713 10.1124,5.69953 4.22892,-0.78877 13.6449,-3.6572 13.6449,-3.6572 -12.59905,0.11154 -13.93098,-0.26436 -14.87278,-1.61147 -0.55619,-0.79561 0.25273,-1.88652 3.61284,-2.44797 3.65812,-0.61126 11.26232,-1.34738 11.26232,-1.34738 7.29485,-0.44323 12.43332,-0.4729 13.97449,-3.81124 1.00685,-2.18097 -1.07369,-4.10914 -1.98561,-5.31606 -3.85355,-4.38455 -9.41974,-6.74926 -13.00262,-8.49064 -1.34809,-0.6552 -5.30351,-1.89254 -5.30351,-1.89254 11.62347,0.65407 20.00821,-2.99754 24.92666,-7.20188 5.5629,-5.26431 3.10203,-11.53919 -8.29483,-15.40281 -6.73144,-2.282 -10.0698,-3.35524 -20.11077,-2.43016 -5.91423,0.32614 -6.84654,0.13202 -6.90552,-0.36444 -0.083,-0.69905 6.56901,-2.43547 8.38509,-2.97141 4.62011,-1.36343 16.73128,-4.11654 16.7919,-4.12989 z"
       id="path245"
       style="fill:#efedec;fill-opacity:1;fill-rule:evenodd;stroke:#000000;stroke-width:0;stroke-linecap:butt;stroke-linejoin:miter;stroke-miterlimit:4;stroke-dasharray:none;stroke-opacity:1"
       sodipodi:nodetypes="cscscsssssccccsccsccscsscscsccscsscc" />
    <path
       d="m 391.19292,491.80271 c 0,0 3.48263,-0.25207 7.96289,0.15192 1.8144,0.16359 8.70315,0.85587 13.85344,2.01146 0,0 6.27944,1.37495 9.63887,2.64156 3.51511,1.32531 5.4279,2.45013 6.28887,4.04398 -0.0376,0.32656 0.26507,1.48462 -1.35593,2.18024 -1.67986,0.72088 -3.46851,1.0967 -5.63515,1.30249 -0.61302,0.0582 -1.2741,0.29628 -1.93593,0.13782 -1.90033,-0.455 -3.25186,-2.6814 -8.03581,0.17205 -0.41882,0.24981 -0.98911,0.0149 -1.50521,0.0241 -0.43906,0.008 -0.8887,0.0166 -1.34938,0.0266 -10.54702,0.37076 -14.05559,2.17697 -15.92459,3.63168 -1.79224,1.47575 -0.89102,5.55852 6.78833,9.15484 3.86833,1.91508 19.03256,5.44922 19.03256,5.44922 -5.10704,2.58269 -14.63006,7.12295 -16.58761,8.1034 -1.7169,0.85986 -4.46445,2.15461 -5.06001,3.72107 -0.67525,1.50385 1.5947,2.7993 2.86269,3.17028 4.08364,1.20513 9.8485,1.95416 15.09518,2.03824 2.63727,0.0422 3.06535,0.21587 3.06535,0.21587 3.63893,0.61758 6.03446,3.16476 5.03638,7.19874 -0.89601,4.11764 -5.62165,6.53713 -10.11238,5.69953 -4.22893,-0.78877 -13.50319,-3.69545 -13.50319,-3.69545 12.59905,0.11153 13.78927,-0.22611 14.73106,-1.57322 0.55619,-0.79561 -0.25273,-1.88652 -3.61285,-2.44797 -3.65811,-0.61126 -11.26231,-1.34738 -11.26231,-1.34738 -7.29485,-0.44323 -12.43332,-0.4729 -13.97449,-3.81124 -1.00684,-2.18098 1.0737,-4.10914 1.98561,-5.31606 3.85355,-4.38455 9.41975,-6.74926 13.00263,-8.49064 1.34808,-0.6552 5.3035,-1.89254 5.3035,-1.89254 -11.62347,0.65406 -19.83668,-3.11548 -24.92664,-7.20189 -5.56291,-5.2643 -3.10205,-11.53918 8.29481,-15.4028 6.73144,-2.282 10.06981,-3.35524 20.11077,-2.43016 5.91423,0.32613 6.84655,0.13202 6.90552,-0.36445 0.083,-0.69904 -6.56902,-2.43546 -8.38509,-2.9714 -4.6201,-1.36344 -16.73128,-4.11655 -16.79189,-4.12989 z"
       id="path244"
       style="fill:#efedec;fill-opacity:1;fill-rule:evenodd;stroke:#000000;stroke-width:0;stroke-linecap:butt;stroke-linejoin:miter;stroke-miterlimit:4;stroke-dasharray:none;stroke-opacity:1"
       sodipodi:nodetypes="cscscsssssccccsccsccscsscscsccscssc" />
    <path
       id="path649"
       style="font-variation-settings:normal;vector-effect:none;fill:#2c363c;fill-opacity:1;stroke:none;stroke-width:0.748751;stroke-linecap:butt;stroke-linejoin:miter;stroke-miterlimit:4;stroke-dasharray:none;stroke-dashoffset:0;stroke-opacity:1;-inkscape-stroke:none;stop-color:#000000"
       d="m 483.18531,641.52024 c -0.22157,-0.002 -0.57175,-0.17189 -0.85937,-0.39219 l -19.32188,-17.625 c -5.34577,-4.13489 -10.44511,-8.57894 -15.27187,-13.30938 3.08488,2.91915 7.87743,6.91722 15.66406,12.65782 19.30535,15.56627 20.74921,18.679 19.78906,18.66875 z m -35.45312,-31.32657 c -0.33514,-0.31712 -0.64466,-0.61662 -0.93907,-0.90781 0.31188,0.30378 0.62491,0.60639 0.93907,0.90781 z m -17.56875,-1.17343 c -0.26481,0.26177 -0.54664,0.53177 -0.84375,0.81406 0.28217,-0.2704 0.56342,-0.54176 0.84375,-0.81406 z m -0.84375,0.81406 c -4.83639,4.7432 -9.94673,9.19876 -15.30469,13.34375 -4.73251,3.42699 -19.32188,17.62344 -19.32188,17.62344 -1.56661,1.14233 -4.89602,0.84928 18.92969,-18.27657 7.81086,-5.74672 12.61354,-9.76108 15.69688,-12.69062 z m 133.88281,-4.76719 c 1.91748,-0.0612 3.81875,-0.26562 3.81875,-0.26562 0,0 2.15454,1.5e-4 3.00312,-0.84844 0.84859,-0.84858 -3.59051,-1.86024 -4.43906,-1.72969 v -0.0328 c -0.84862,0.13056 -6.429,1.14361 -6.29844,2.28594 0.0653,0.57116 1.99815,0.65182 3.91563,0.59062 z m -249.46406,-0.28125 c 1.9134,0.0653 3.84808,-0.0156 3.92968,-0.60312 0.16318,-1.17497 -5.45142,-2.15539 -6.3,-2.28594 -0.8486,-0.13055 -5.28764,0.85002 -4.43906,1.73125 v 0.0312 c 0.8486,0.84857 3.00313,0.84844 3.00313,0.84844 0,0 1.89285,0.21284 3.80625,0.27812 z m 224.76562,-1.04062 c 0.96282,0.0204 1.88438,-0.11719 1.88438,-0.11719 2.61104,-0.42429 3.26435,-2.6122 1.86093,-4.30938 v 0.0328 c -1.43607,-1.72982 -5.15697,0.84845 -5.875,1.14218 -0.71803,0.29375 -0.32636,1.14274 0,2.41563 0.1632,0.63644 1.16687,0.81554 2.12969,0.83594 z m -200.04219,-0.29375 c 0.9669,-0.0204 1.97032,-0.1995 2.11719,-0.83594 0.29375,-1.27287 0.71804,-2.15452 0,-2.41563 -0.71804,-0.26109 -4.43891,-2.87199 -5.875,-1.14218 -1.43607,1.72982 -0.71747,3.85088 1.86094,4.30781 v -0.0312 c 0,0 0.92997,0.13759 1.89687,0.11719 z m 240.44219,-0.19688 c 1.11199,-0.0937 4.86094,-2.04219 4.86094,-2.04219 1.30554,-1.14232 0.42458,-2.6116 -2.28438,-1.86093 v -0.0328 c -2.70895,0.71804 -3.13295,3.26409 -2.87187,3.85157 0.0326,0.0734 0.13646,0.0978 0.29531,0.0844 z m -280.82187,-0.24219 c 0.15885,0.009 0.26423,-0.0215 0.29687,-0.10312 0.26111,-0.65276 -0.13185,-3.16616 -2.87344,-3.85156 -2.74157,-0.68539 -3.5899,0.71861 -2.28437,1.86093 v 0.0328 c 0,0 3.74895,1.99846 4.86094,2.06093 z m 217.46875,-1.37656 c 0,0 14.84303,-3.4177 19.30156,-5.44219 4.35054,-1.94809 0.79481,-3.69784 -1.1875,-4.12031 -1.9909,-0.42429 -24.57656,4.99375 -24.57656,4.99375 0,0 -2.87185,2.28493 -2.28438,3.26406 0.58748,0.97913 8.74688,1.30469 8.74688,1.30469 z m -154.08282,-0.26094 c 0,0 8.1594,-0.32554 8.74688,-1.30468 0.58749,-0.97914 -2.28438,-3.26407 -2.28438,-3.26407 l -24.64218,-5.05937 c -1.95829,0.4243 -5.54831,2.1544 -1.14219,4.14531 4.40612,1.99092 19.32187,5.45 19.32187,5.45 z m 130.42032,-1.14218 c 1.41164,-0.5775 -0.25184,-2.20966 -0.30938,-2.26563 -0.026,0.0263 -0.54625,0.55753 -0.83281,1.41719 -0.29375,0.88123 1.14219,0.84844 1.14219,0.84844 z m 7.70312,0 c 1.86038,-0.4243 7.99675,-3.72034 9.72656,-4.30782 1.72982,-0.58748 24.15164,-5.45142 25.91407,-6.3 1.96388,-1.14508 3.86986,-2.38671 5.71093,-3.72031 0,0 1.95954,-4.73279 -4.73125,-3.85156 -6.69079,0.88123 -15.47045,3.42827 -20.17031,2.28594 -4.69985,-1.14233 -10.11894,-0.97969 -11.03281,-0.97969 -0.91383,0 -30.18981,-8.5e-4 -31.49531,0.42344 -1.30552,0.4243 -12.075,0.78437 -12.075,0.78437 0,0 -4.2438,0.71761 0.12968,3.13281 4.37349,2.41521 20.46437,11.42359 24.90313,10.575 4.43876,-0.84858 6.00455,-3.16648 7.44062,-2.44843 1.43607,0.71803 3.85215,4.73211 5.7125,4.30781 z m -122.2625,-0.32657 c 1.89302,0.45694 4.24379,-3.58978 5.7125,-4.30781 h 0.0656 c 1.43606,-0.71804 3.00186,1.56721 7.44062,2.44844 4.43877,0.88123 20.46437,-8.15997 24.90313,-10.60781 4.43876,-2.44785 0.12968,-3.13282 0.12968,-3.13282 l -12.17343,-0.84843 c -1.30553,-0.42429 -30.61409,-0.425 -31.49532,-0.425 -0.88122,0 -6.29874,-0.13 -11.03125,0.97968 -4.73249,1.10969 -13.4469,-1.43734 -20.17031,-2.28593 -6.72342,-0.84858 -4.73281,3.85156 -4.73281,3.85156 l 5.71094,3.72187 c 1.7298,0.84858 24.15317,5.71095 25.91562,6.29844 1.76245,0.58748 7.832,3.85089 9.725,4.30781 z m 7.70313,0 h 0.0328 c 0,0 1.43594,1.6e-4 1.14219,-0.84843 -0.29373,-0.84859 -0.84844,-1.43594 -0.84844,-1.43594 0,0 -1.73,1.72954 -0.32656,2.28437 z m 204.02031,-1.30468 c 0,0 0.71734,-1.73038 -0.425,-1.56719 -1.14231,0.16318 -0.42358,1.30608 0.425,1.56719 z m -301.08594,-0.26094 c 0.84858,-0.32638 1.56733,-1.43663 0.425,-1.56719 -1.14232,-0.13055 -0.425,1.56719 -0.425,1.56719 z m 277.32656,-0.98594 c 2.14767,0.13967 6.28485,-1.6915 7.79844,-2.14844 1.72982,-0.5222 5.71252,-3.00214 6.59375,-5.15625 0.87956,-2.15004 -4.41285,-4.72 -4.43281,-4.72968 -1.93881,0.0166 -2.8507,1.72908 -3.9875,2.28125 -1.14234,0.55484 -6.5936,4.5693 -7.73594,5.54843 -1.14231,0.97913 -0.71748,3.13441 0.97969,4.01563 0.21215,0.11015 0.47756,0.16911 0.78437,0.18906 z m -253.70937,-0.24844 c 0.30987,-0.0238 0.58065,-0.0873 0.79687,-0.20156 1.72981,-0.91387 2.15311,-3.00384 0.97813,-4.01562 -1.17497,-1.01177 -6.59205,-4.99359 -7.73438,-5.54844 -1.14232,-0.55484 -1.95943,-2.28438 -4.01562,-2.28438 0,0 -5.28608,2.61136 -4.4375,4.73282 h 0.0328 c 0.84858,2.15412 4.89501,4.56876 6.59219,5.15625 1.48501,0.51404 5.61841,2.32782 7.7875,2.16093 z m 270.42344,-1.35781 c 1.02809,-0.10097 3.19375,-1.12969 3.19375,-1.12969 0,0 1.86106,-1.14186 0.425,-1.95781 -1.42032,-0.807 -3.94947,1.79665 -4.13125,2.83281 -0.005,0.21338 0.18859,0.2865 0.5125,0.25469 z m -286.99532,-0.3125 c 0.3427,0.0321 0.55921,-0.0408 0.52657,-0.29375 -0.13055,-1.01179 -2.70925,-3.72203 -4.14532,-2.87344 v 0.0656 c -1.43608,0.84859 0.425,1.95781 0.425,1.95781 0,0 2.16566,1.04737 3.19375,1.14375 z m 247.8625,-0.008 c 0.97532,-0.11156 2.08438,-1.00469 2.08438,-1.00469 l 3.58906,-3.26406 c 0.58748,-0.97914 -3.85,-2.15313 -3.85,-2.15313 v 0.0312 c 0,0 -2.15399,1.86146 -2.61094,1.95938 -0.45692,0.0979 -1.14375,1.1419 -0.55625,3.42656 0.22031,0.85675 0.75856,1.07162 1.34375,1.00469 z m -208.77968,-0.22969 c 0.58614,0.0669 1.12006,-0.14638 1.32812,-1.00312 0.55485,-2.28466 -0.13039,-3.26338 -0.55469,-3.42657 -0.42429,-0.16318 -2.61093,-1.95937 -2.61093,-1.95937 0,0 -4.32729,1.11831 -3.85157,2.12187 0.58748,0.97914 3.59063,3.26407 3.59063,3.26407 0,0 1.12153,0.89157 2.09844,1.00312 z M 590.965,594.49973 c 0.0386,-0.0288 0.56719,-0.42766 0.56719,-1.12031 0,-0.71016 -1.11101,0.52472 -0.56719,1.12031 z m -304.85781,-0.30468 c 0.58748,-0.58748 -0.55625,-1.86023 -0.55625,-1.14219 h -0.0312 c 0,0.71803 0.5875,1.14219 0.5875,1.14219 z m 271.60468,-4.10938 c 2.19159,0.13164 5.00199,-0.5548 7.12344,-1.63594 3.39435,-1.7298 8.48561,-3.58961 9.30156,-4.56875 0.81595,-0.97913 1.14151,-1.30538 0.71719,-1.72968 0,0 -1.30522,-0.32695 -2.28437,-1.56719 -0.97914,-1.24024 -0.42331,-2.70766 -2.15313,-3.2625 v -0.0328 c -1.72978,-0.58748 -4.01549,-0.5873 -5.15781,0.32656 l -8.68125,5.97187 c 0,0 -3.42757,3.26396 -1.86094,5.2875 0.58748,0.75884 1.68036,1.13196 2.99531,1.21094 z M 319.33062,589.8013 c 1.3119,-0.0759 2.39663,-0.44091 2.97188,-1.1875 1.53398,-1.99092 -1.86094,-5.2875 -1.86094,-5.2875 l -8.71406,-6.00469 c -1.14232,-0.84859 -3.42644,-0.84877 -5.15625,-0.32656 -1.7298,0.52221 -1.14291,1.95698 -2.15469,3.2625 l 0.0328,0.0656 c -0.97913,1.30551 -2.28437,1.56719 -2.28437,1.56719 -0.42429,0.42429 -0.13138,0.71792 0.71719,1.72969 0.84859,1.01178 5.87458,2.87156 9.30156,4.56875 2.14187,1.06073 4.96038,1.73903 7.14687,1.6125 z M 582.415,586.89192 c 0.64261,-0.071 1.30725,-0.42686 1.35312,-0.45156 -0.0167,-0.95331 0.34642,-1.87413 1.00938,-2.55938 -0.13056,-1.43606 -3.00382,-0.97857 -3.42813,1.56719 -0.21213,1.27289 0.40063,1.51719 1.06563,1.44375 z m -287.84375,-0.1625 c 0.665,0.0734 1.27777,-0.17243 1.06562,-1.44531 v -0.0641 c -0.42431,-2.61104 -3.26338,-3.00327 -3.42656,-1.56719 -0.16319,1.43607 0.97813,2.61094 0.97813,2.61094 0,0 0.71781,0.39219 1.38281,0.46562 z m 253.42187,-3.66406 c 2.87213,0 21.31309,-7.0179 17.625,-7.73594 0,0 -5.87413,-1.72865 -6.00468,-2.41406 -0.13056,-0.6854 -0.32628,-3.13315 -2.61094,-2.61094 h -0.0328 c -2.28466,0.55485 -11.16233,6.00542 -11.42344,7.31094 -0.26112,1.30553 -0.42528,5.45 2.44687,5.45 z M 329.09,582.70598 c 2.87214,0 2.70936,-4.14448 2.41562,-5.45 -0.29373,-1.30551 -9.13877,-6.72344 -11.42343,-7.31093 -2.28465,-0.58748 -2.4151,1.86027 -2.61094,2.61093 -0.13055,0.71805 -6.00469,2.41563 -6.00469,2.41563 -3.72073,0.71804 14.75129,7.73437 17.62344,7.73437 z m 189.48594,-0.71406 c 4.73045,-0.052 11.64645,-1.17868 15.51406,-2.74531 5.1568,-2.08883 4.43807,-1.30595 5.71094,-2.70938 0.32636,-0.32637 -1.14219,-2.61062 -1.14219,-4.01406 0,-1.37957 -0.41153,-3.06686 -1.2625,-3.40312 -0.84903,-0.32889 -2.14292,-0.96173 -3.56719,0.009 -1.43607,0.97915 -20.04062,10.11719 -20.04062,10.11719 0,0 -2.6105,1.43649 0.97968,2.41562 0.89754,0.24479 2.231,0.34703 3.80782,0.32969 z m -160.20313,-0.17344 c 1.57937,0.0107 2.91495,-0.10018 3.8125,-0.35312 3.59017,-1.01178 0.97969,-2.41406 0.97969,-2.41406 l -20.04063,-10.11875 c -1.43607,-0.97914 -2.70782,-0.32638 -3.58906,0 -0.88121,0.32637 -1.30625,1.9594 -1.30625,3.42812 l 0.0656,-0.0328 c 0,1.43607 -1.43591,3.68768 -1.14219,4.01406 1.30553,1.43607 0.58679,0.55528 5.71094,2.70938 3.84312,1.61558 10.77125,2.73505 15.50937,2.76718 z m 113.83594,-0.55312 c 1.78999,0 3.34499,-0.0602 4.30781,-0.22344 7.32947,-1.21393 14.3101,-3.99722 20.46406,-8.15937 l 32.6375,-21.47657 c 0,0 6.59401,-3.26424 3.42813,-3.59062 -3.16589,-0.32638 -3.26393,0.42515 -5.2875,-0.12969 -2.02353,-0.55485 -3.13443,-0.71874 -4.01563,-0.425 -0.88126,0.29373 -0.12953,10e-4 -0.97812,-1.56562 -0.84859,-1.56661 -0.55543,-1.86094 -2.44844,-1.56719 -1.89301,0.29374 -25.45767,14.29534 -26.89375,15.47031 v -0.0328 c -1.43607,1.14233 -32.05072,18.01719 -32.76875,18.01719 -0.71804,0 -9.88847,4.2425 -1.30469,3.13281 0,0 7.48942,0.55 12.85938,0.55 z m -67.49688,-0.23281 c 5.36996,0.009 12.86094,-0.57813 12.86094,-0.57813 8.5838,1.14233 -0.55557,-3.13281 -1.30625,-3.13281 -11.07916,-5.71707 -22.00587,-11.72488 -32.76875,-18.01719 -1.3708,-1.17496 -25.0004,-15.20956 -26.82812,-15.53594 l -0.0984,0.0984 c -1.86037,-0.32638 -1.56546,5.7e-4 -2.41406,1.56719 -0.84858,1.56663 -0.1311,1.85937 -0.97969,1.56562 -0.84858,-0.29374 -1.95787,-0.12983 -4.01406,0.425 -2.0562,0.55485 -2.15425,-0.13139 -5.2875,0.12969 -3.13324,0.26111 3.42656,3.59063 3.42656,3.59063 l 32.6375,21.47656 c 6.15299,4.16398 13.13404,6.94744 20.46406,8.15937 0.96282,0.17951 2.51783,0.24851 4.30781,0.25157 z m 94.10469,-0.375 c 3.05981,0.0734 6.77977,-0.10541 9.42344,-1.11719 5.28735,-2.02355 25.45837,-12.17473 27.6125,-14.75313 2.1541,-2.57838 2.87184,-5.02553 2.28437,-5.71093 v 0.0328 c -0.55484,-0.71805 -0.97944,-5.28696 -3.85156,-4.89531 -2.87216,0.39165 -16.64484,10.11793 -18.60312,11.42343 l -21.60625,11.74844 c -1.30553,0.42429 -7.83384,3.26354 -0.71875,2.87188 0,0 2.39957,0.32656 5.45937,0.4 z M 378.2025,580.46223 c 3.05981,-0.0734 5.45937,-0.4 5.45937,-0.4 7.18035,0.42429 0.58677,-2.41494 -0.71875,-2.87187 -1.30552,-0.45693 -19.58269,-10.44449 -21.60625,-11.75 -2.02354,-1.30553 -15.73098,-11.03179 -18.60312,-11.42344 -2.87215,-0.39166 -3.26407,4.14621 -3.85156,4.89688 -0.58747,0.75067 0.13026,3.13254 2.28437,5.71093 v -0.0328 c 2.1541,2.61105 22.32516,12.72957 27.6125,14.75313 2.64367,1.01177 6.36363,1.19062 9.42344,1.11718 z m 197.40781,-1.81093 c 0.84756,0.0688 2.62294,0.0328 3.25938,-1.3625 0.84859,-1.86037 -3.00298,-3.00255 -4.43907,-1.43594 -1.43607,1.56662 0.71719,2.70781 0.71719,2.70781 v 0.0328 c 0,0 0.17998,0.0349 0.4625,0.0578 z m -274.3,-0.22813 c 0.28252,-0.023 0.4625,-0.0578 0.4625,-0.0578 0,0 2.15326,-1.14275 0.71719,-2.70938 v -0.0328 c -1.43608,-1.56663 -5.28608,-0.42443 -4.4375,1.43594 0.63644,1.39528 2.41024,1.43291 3.25781,1.36406 z m 242.65781,-3.68437 c 0.43909,0.0245 0.99794,-0.0941 1.70782,-0.45313 2.83948,-1.43607 10.86902,-5.45071 8.58437,-5.875 0,0 -3.42729,-0.58736 -3.85156,-1.72969 -0.42428,-1.14231 -1.69778,-4.96093 -2.15469,-4.96093 -0.42431,0 -1.95699,-0.71803 -3.2625,0 -1.30554,0.71804 -4.57031,3.26406 -4.57031,3.26406 0,0 -1.30482,1.72869 0.13125,3.58906 1.43606,1.86037 1.85937,4.73281 1.85937,4.73281 0,0 0.239,1.35938 1.55625,1.43282 z M 333.065,574.44505 c 1.32183,-0.0734 1.54219,-1.43282 1.54219,-1.43282 0,0 0.4233,-2.87245 1.85937,-4.73281 1.43607,-1.86037 0.13125,-3.58906 0.13125,-3.58906 l -4.57031,-3.26406 c -1.30553,-0.71804 -2.87085,0 -3.2625,0 -0.39165,0 -1.73039,3.85142 -2.15469,4.99375 v -0.0328 c -0.42429,1.14234 -3.85156,1.72969 -3.85156,1.72969 -2.28466,0.42429 5.71224,4.43892 8.58437,5.875 0.71804,0.35902 1.28127,0.47761 1.72188,0.45313 z m 234.4375,-1.70782 c 0.47784,-5e-4 0.79219,-0.0188 0.79219,-0.0188 0,0 0.13068,-1.85921 -1.43594,-2.41406 -1.56663,-0.55484 -1.43579,-0.98057 -2.87188,-1.73125 -1.43607,-0.75068 -1.56648,0.97956 -1.14218,2.70938 0.31821,1.29735 3.22429,1.45621 4.65781,1.45468 z M 309.47906,572.5138 c 1.42587,0.009 4.32136,-0.13755 4.66406,-1.45938 0.45693,-1.76245 0.32497,-3.4274 -1.14375,-2.70937 l 0.0328,-0.0328 c -1.43607,0.71803 -1.30525,1.1422 -2.87188,1.72969 -1.56662,0.58748 -1.46875,2.44844 -1.46875,2.44844 0,0 0.31221,0.0204 0.7875,0.0234 z m 144.34531,-4.39688 c 1.28104,0.049 2.52188,-0.0656 2.52188,-0.0656 l 0.0656,0.0656 12.17344,-9.88906 c 0.42428,-0.71804 1.43664,-1.14196 1.56719,-4.89531 0.13056,-3.75338 3.26408,-10.31429 4.14531,-12.40313 3.40195,-6.31799 7.08266,-12.48187 11.03125,-18.47344 0.97914,-1.14232 3.1324,-3.7202 0.71719,-5.45 -2.41521,-1.72981 -5.54725,0.84831 -6.2,2.28438 -0.65276,1.43607 -14.45857,17.29818 -16.64531,20.17031 -2.18674,2.87215 -4.0148,5.71223 -5.02657,8.29063 l -2.87187,7.57187 c 0,0 -4.57013,10.57416 -4.24375,11.87969 0.16319,0.65275 1.48459,0.86511 2.76562,0.91406 z m -30.76875,-0.175 c 1.2892,-0.053 2.61164,-0.26512 2.74219,-0.90156 l 0.0641,-0.0328 c 0.32639,-1.30552 -4.24218,-11.88125 -4.24218,-11.88125 l -2.87188,-7.57188 c -0.97915,-2.61103 -2.87245,-5.44955 -5.02656,-8.28906 -2.1541,-2.83951 -15.99255,-18.73424 -16.64531,-20.17031 -0.65276,-1.43607 -3.72108,-4.0142 -6.20157,-2.28438 -2.48048,1.72982 -0.32567,4.2424 0.71875,5.45 1.04441,1.20762 10.11739,16.31934 11.03125,18.47344 0.91387,2.15412 4.01478,8.71348 4.14532,12.40156 0.13055,3.6881 1.14133,4.1462 1.56562,4.89688 0.4243,0.75067 12.175,9.85625 12.175,9.85625 0,0 1.25611,0.10616 2.54531,0.0531 z m 25.71719,-0.93281 c 1.16585,0.67141 7.475,-19.95844 7.475,-22.45625 0,-2.5784 1.43625,-9.72701 0.32656,-13.31719 -1.10969,-3.59018 -2.15313,-27.61065 -2.44687,-29.89531 -0.29375,-2.28467 -0.32754,-0.84862 -4.01563,-0.5875 -3.72072,0.32637 -4.99375,-1.43606 -4.99375,0.5875 0,2.02354 2.87243,15.99152 4.14532,23.17187 1.27286,7.18036 -0.71791,19.15958 -1.43594,25.62188 l -1.30469,15.0125 2.15313,1.72969 c 0.0265,0.0673 0.0593,0.11115 0.0969,0.13281 z m -20.65469,-0.22813 c 0.0959,0.0429 0.17197,0.002 0.225,-0.13281 l 2.15313,-1.72969 c 0,0 -0.55401,-8.58437 -1.30469,-15.01406 -0.75067,-6.42967 -2.70881,-18.4726 -1.43594,-25.62031 l 4.14532,-23.17344 c 0,-1.95829 -1.30567,-0.32639 -4.99375,-0.5875 -3.6881,-0.26111 -3.72172,-1.79404 -3.98282,0.49063 l -0.0641,0.0969 c -0.32638,2.28466 -1.30594,26.33934 -2.41562,29.89688 -1.1097,3.55753 0.32656,10.76986 0.32656,13.31562 0,2.38666 5.909,21.81382 7.34687,22.45781 z m 127.74063,-1.14375 c 0,0 1.56665,-0.97987 0.5875,-1.30625 -0.97914,-0.32637 -1.85922,-3.00314 -3.00156,-3.59062 -1.1423,-0.58748 -0.979,0.13028 -1.14219,2.28437 h -0.0328 c -0.13056,2.15411 3.13215,2.6125 3.58906,2.6125 z m -90.79844,-0.32656 18.60313,-10.02031 c 5.15681,-2.1541 13.8722,-6.85403 13.05625,-8.48594 l -0.0656,0.0328 c -0.84862,-1.56661 -2.44729,-0.71888 -5.15625,0.71719 -2.70895,1.43608 -13.15424,9.30228 -15.99375,9.72656 -2.8395,0.4243 -9.59517,7.31165 -10.44375,8.02969 z m -143.86875,-0.0328 c 0.42431,0 3.72119,-0.42419 3.59063,-2.61094 -0.13056,-2.18674 1.4e-4,-2.87186 -1.14219,-2.28437 h -0.0328 c -1.14233,0.55484 -1.95872,3.26268 -3.00313,3.58906 -1.04442,0.32637 0.5875,1.30625 0.5875,1.30625 z m 90.8,-0.22813 c -0.84859,-0.71802 -7.57317,-7.57275 -10.44531,-8.02968 -2.87214,-0.45693 -13.31586,-8.2905 -15.99219,-9.72657 -2.6763,-1.43607 -4.24238,-2.28381 -5.15625,-0.71718 -0.91387,1.56662 7.83261,6.29919 13.05469,8.48593 l -0.0656,-0.0328 c 5.15682,2.15412 18.60469,10.02031 18.60469,10.02031 z M 540.74,561.08256 c 0.25549,-0.0587 0.58786,-0.19428 1.02031,-0.43907 1.72978,-0.97914 3.13211,-1.56652 3.00156,-2.61093 0,0 -0.55438,-2.2858 -1.95781,-3.13438 -1.40343,-0.84858 -1.43663,-2.2835 -1.56719,-2.70781 -0.13055,-0.42429 -0.7179,-1.86094 -1.72968,-1.86094 -1.01178,0 -2.15298,0.71859 -2.70782,0.97969 l -0.0328,-0.0328 c -0.55486,0.32638 -0.71818,0.71692 0.84844,3.58906 1.56662,2.87214 2.28437,4.89671 2.28437,5.45156 0,0.41614 0.0742,0.94157 0.84063,0.76563 z m -204.57188,-0.31719 c 0.7619,0.20807 0.85313,-0.31824 0.85313,-0.80781 0,-0.65276 0.71777,-2.6105 2.28437,-5.45 1.56664,-2.8395 1.43748,-3.26425 0.85,-3.59063 -0.58749,-0.32637 -1.73023,-0.97969 -2.70937,-0.97969 l -0.0328,0.0328 c -0.97915,0 -1.5665,1.43665 -1.72969,1.86093 -0.16319,0.42431 -0.13112,1.85924 -1.56719,2.70782 -1.43607,0.84858 -1.95781,3.13437 -1.95781,3.13437 -0.13054,0.97914 1.30596,1.56653 3.00312,2.61094 0.4243,0.2611 0.75229,0.41189 1.00625,0.48125 z m 134.59063,-2.3375 c 1.00821,0.009 4.21519,-1.66099 7.12812,-3.49688 3.88165,-2.44641 17.73664,-12.87851 19.90313,-16.6375 -0.008,-0.10787 -0.32645,-4.39166 -0.84219,-5.22968 -0.5222,-0.8486 -0.7176,-3.85113 -3.42656,-0.84844 l -14.65469,15.47031 -8.29062,10.11719 c -0.24479,0.43245 -0.15326,0.62194 0.18281,0.625 z m -64.53594,-0.24688 c 0.33862,0.001 0.43229,-0.18196 0.1875,-0.60625 -0.97915,-1.69718 -8.29062,-10.21562 -8.29062,-10.21562 l -14.58907,-15.47031 c -2.70895,-3.00269 -2.8717,-1.6e-4 -3.42656,0.84843 -0.55483,0.84858 -0.84844,5.2875 -0.84844,5.2875 2.15411,3.72073 15.99283,14.16483 19.90938,16.64532 l -0.0656,0.0328 c 2.88845,1.8114 6.10758,3.47506 7.12344,3.47812 z m 139.05781,-3.66562 c 1.0893,0.17441 2.94898,-0.30156 3.26719,-0.30156 l -0.97812,-1.86094 c 0,0 -1.95871,-1.56707 -3.00313,-3.59063 -1.0444,-2.02355 -1.43663,0.32697 -1.56719,2.15469 l -0.0312,0.0328 c -0.13056,1.86036 1.14135,2.15368 1.56563,3.13282 0.10608,0.24478 0.38377,0.37467 0.74687,0.43281 z m -214.77031,-0.26094 c 0.89755,0.0898 1.79567,0.0568 2.00781,-0.43281 0.42431,-0.97915 1.72882,-1.30508 1.56563,-3.13281 -0.1632,-1.82772 -0.55384,-4.1456 -1.56563,-2.15469 l -0.0328,-0.0328 c -0.97914,1.95828 -3.00312,3.59062 -3.00312,3.59062 l -0.97969,1.85938 c 0.21214,0 1.11027,0.21336 2.00781,0.30312 z m 141.52656,-1.50156 c 1.60863,-0.24988 9.17969,-9.99531 9.17969,-9.99531 l 10.86875,-12.40313 c 0,0 2.28452,-1.95855 1.72969,-3.85156 l -0.0328,-0.12969 c -0.55485,-1.86036 -2.44844,-3.85156 -2.44844,-3.85156 0,0 -1.30509,-2.70877 -3.42656,0.32656 -2.12147,3.03534 -15.1771,21.47505 -16.15625,29.37344 -0.053,0.40797 0.0561,0.56695 0.28593,0.53125 z m -67.08593,-0.35938 c 0.2298,0.0357 0.33741,-0.12171 0.28437,-0.52968 -0.97914,-7.83311 -14.03478,-26.33966 -16.15625,-29.375 -2.12147,-3.03534 -3.42656,-0.32657 -3.42656,-0.32657 0,0 -1.86079,1.95857 -2.41563,3.85157 -0.55485,1.89299 1.72969,3.85156 1.72969,3.85156 l -0.0656,0.12969 10.86875,12.40312 c 0,0 7.57261,9.74543 9.18125,9.99531 z m 126.65781,-6.01406 c 0,0 -3.00141,-1.95786 -4.4375,-3.72031 -1.43606,-1.76245 -2.15527,-1.14163 -3.42813,0.425 -1.2729,1.56662 0.13043,1.56635 1.72969,2.28437 l -0.0641,0.0328 c 1.56663,0.71803 6.2,0.97812 6.2,0.97812 z m -186.16719,-0.19531 c 0,0 4.56932,-0.32693 6.13594,-0.97969 1.56661,-0.65276 3.00412,-0.71774 1.73125,-2.28437 v -0.0328 c -1.30552,-1.56661 -1.95943,-2.15325 -3.42813,-0.42343 -1.46871,1.72982 -4.43906,3.72031 -4.43906,3.72031 z m 190.11094,-2.25156 c 0.97761,-0.11016 1.6375,-0.88125 1.6375,-0.88125 0,0 -0.42401,-1.30594 -2.28438,-3.00313 -1.86036,-1.69716 -2.28437,0.84847 -2.28437,1.72969 v 0.0328 c 0,0.8486 0.32696,1.30505 1.86094,1.95781 0.38349,0.16319 0.74444,0.20079 1.07031,0.16407 z m -194.22969,-0.16875 c 0.3274,0.0336 0.69272,-0.0111 1.08438,-0.19063 1.56662,-0.71803 1.86093,-1.14186 1.86093,-1.95781 0,-0.81596 -0.42557,-3.42688 -2.28593,-1.72969 v -0.0328 c -1.86036,1.72982 -2.28438,3.00156 -2.28438,3.00156 0,0 0.6428,0.80841 1.625,0.90938 z m 163.83594,-2.4625 c 1.42949,-0.17849 3.05,-1.35157 3.05,-1.35157 l 6.72344,-8.02812 c 0.32639,-0.42429 3.00168,-2.872 1.56562,-7.57188 l -0.0328,-0.0328 c -1.43606,-4.7325 -3.42656,-1.14304 -3.72031,-0.425 -0.29375,0.71803 -7.99688,11.1625 -7.99688,11.1625 0,0 -2.44685,2.15443 -1.56562,5.02656 0.33046,1.07706 1.11886,1.32741 1.97656,1.22032 z m -133.36406,-0.22813 c 0.8577,0.1071 1.64766,-0.14326 1.97812,-1.22031 0.88124,-2.87214 -1.56719,-4.99375 -1.56719,-4.99375 l -8.02968,-11.19531 c -0.32638,-0.71804 -2.28425,-4.24223 -3.72032,0.425 -1.43607,4.66723 1.3061,7.18022 1.56719,7.57187 v 0.0328 l 6.72344,8.02813 c 0,0 1.61893,1.17307 3.04844,1.35156 z m 87.9125,-1.41719 c 0,0 3.72103,-4.89572 4.73281,-7.01718 1.01177,-2.12146 0.58821,-13.87002 1.30625,-16.15469 0.7098,-2.61934 1.09344,-5.31631 1.14219,-8.02969 -0.13054,-0.84859 -1.9586,-4.73194 -5.02657,-4.56875 -3.06797,0.16318 -4.01475,-0.32684 -3.85156,1.95781 l -0.0328,0.0328 c 0.13054,2.28467 -1.2e-4,29.17772 1.72969,33.77968 z m 70.04218,0 c 0,0 2.15313,-0.71704 2.15313,-1.85937 0,-1.14233 -2.15384,-0.98 -2.87188,0.42344 -0.71803,1.40342 0.71875,1.43593 0.71875,1.43593 z M 347.14,539.42787 c 0,0 1.43523,1.3e-4 0.71719,-1.43594 -0.71803,-1.43607 -2.87188,-1.56576 -2.87188,-0.42344 0,1.14234 2.15469,1.85938 2.15469,1.85938 z m 70.10625,-0.0328 c 1.7298,-4.56932 1.5665,-31.49504 1.72969,-33.77969 0.1632,-2.28467 -0.84888,-1.8599 -3.85157,-1.95781 l -0.0328,-0.0328 c -3.0027,-0.13056 -4.896,3.72016 -5.02656,4.56875 0.0488,2.71338 0.43239,5.41035 1.14219,8.02969 0.71804,2.28466 0.32711,14.03322 1.30625,16.15469 0.97914,2.12147 4.73281,7.01719 4.73281,7.01719 z m 84.62031,-5.05782 c 2.38148,-0.17355 5.00313,-4.86406 5.00313,-4.86406 0,0 8.29062,-11.42333 8.58437,-13.44687 0.29372,-2.02356 -3.72171,-4.43793 -4.57031,-6.85313 l 0.0328,-0.0328 c -0.84859,-2.44784 -0.84762,-3.42687 -1.85937,-1.72969 l -10.86875,18.60313 c -1.30553,1.86036 0.84843,4.89531 0.84843,4.89531 0.71397,2.65183 1.7472,3.50701 2.82969,3.42812 z m -126.90937,-0.25781 c 1.08248,0.0798 2.11572,-0.767 2.82968,-3.39844 0,0 2.15396,-3.0023 0.84844,-4.89531 -1.30553,-1.893 -9.85697,-16.87331 -10.86875,-18.60312 -1.01177,-1.72982 -0.97971,-0.71816 -1.86094,1.72968 -0.88122,2.44785 -4.89514,4.89487 -4.56875,6.85313 l 0.0328,0.0328 c 0.32638,1.95828 8.58437,13.44688 8.58437,13.44688 0,0 2.62165,4.65889 5.00313,4.83437 z m 92.3875,-5.03437 c 0.10584,-0.11575 10.83337,-11.85158 10.28125,-13.67032 -0.55484,-1.82772 -1.95743,-5.54926 -6.85313,-4.24375 -3.11392,0.12975 -3.58262,14.65871 -3.42812,17.91407 z M 409.73844,528.756 c 0.13055,-3.13323 -0.32596,-17.88664 -3.42657,-18.01718 l -0.0328,0.0656 c -4.89569,-1.30552 -6.29826,2.41602 -6.85312,4.24375 -0.55483,1.82773 10.3125,13.70781 10.3125,13.70781 z m 85.91093,-3.89062 c 0.83533,0.18359 1.625,-1.26719 1.625,-1.26719 0.58747,-0.71803 12.72898,-19.90853 12.89219,-21.21406 0.16319,-1.30551 -0.97904,-1.43666 -2.61094,-2.15469 -2.09923,-1.27157 -3.98312,-2.86856 -5.58125,-4.73125 -0.71803,-0.97914 -1.3059,-3.72087 -2.70937,1.14219 l -0.0656,0.0641 c -1.43606,4.8957 -9.00694,20.75906 -9.1375,21.86875 -0.13054,1.10969 2.15313,1.43594 2.15313,1.43594 0,0 1.56652,1.85996 2.61094,4.01406 0.2611,0.53853 0.54499,0.78099 0.82343,0.84219 z m -114.34531,-0.11719 c 0.27233,-0.0627 0.54584,-0.30956 0.79063,-0.85625 0.70123,-1.43323 1.56639,-2.78026 2.57812,-4.01406 0,0 2.28524,-0.32625 2.15469,-1.43594 -0.13054,-1.1097 -7.73563,-17.03677 -9.13906,-21.86719 -1.40343,-4.83041 -1.95872,-2.15397 -2.70938,-1.14218 l -0.0312,-0.0656 c -0.71803,0.97913 -4.01446,4.01478 -5.54844,4.73281 -1.53397,0.71803 -2.71042,0.84761 -2.6125,2.15313 0.0979,1.30553 12.30471,20.46495 12.89219,21.21562 0,0 0.80803,1.46787 1.625,1.27969 z m 137.73906,-0.725 c 2.44785,-1.72981 -0.97814,-4.89531 -1.56562,-4.89531 -0.58747,0 -0.32656,2.28423 -0.32656,3.42656 l 0.0328,0.0328 c 0,1.14233 1.85937,1.43594 1.85937,1.43594 z m -161.19843,-0.16406 c 0,0 1.86093,-0.32625 1.86093,-1.43594 0,-1.10969 0.3262,-3.42656 -0.32656,-3.42656 l 0.0328,-0.0328 c -0.55485,0 -4.01503,3.13286 -1.56718,4.89531 z m 130.06093,-6.8125 c 0.73508,0.32809 2.74375,-4.57813 2.74375,-4.57813 3.00269,-2.61105 7.73438,-21.475 7.73438,-21.475 0,0 -3.42713,0.12985 -5.875,-0.13125 -2.44785,-0.2611 -4.89531,-5.02498 -4.89531,-4.4375 0,0.58675 -6.18299,23.4331 -6.00313,25.76563 0.13575,2.26352 1.30602,1.71562 2.44531,1.71562 1.14234,0 3.13284,1.85924 3.72032,3.00157 0.0367,0.0714 0.0807,0.11719 0.12968,0.13906 z m -98.95468,-0.20156 c 0.049,-0.0203 0.0914,-0.0635 0.12812,-0.13282 0.58749,-1.10968 2.61062,-3.00312 3.72031,-3.00312 1.10969,0 2.28507,0.55498 2.41563,-1.72969 0.13035,-2.28129 -5.97733,-25.09637 -5.99531,-25.74844 -0.12468,-0.3003 -2.45961,4.15011 -4.87344,4.43594 -2.48048,0.29374 -5.875,0.13125 -5.875,0.13125 0,0 4.73326,18.92924 7.73594,21.475 0,0 2.00868,4.87666 2.74375,4.57188 z m 127.25312,-5.84532 c 1.86035,0.13055 0.3272,-1.3051 -0.71719,-3.72031 -1.04443,-2.41522 -2.28457,-1.73 -2.61093,-0.32656 -0.3264,1.40343 3.2625,4.01562 3.2625,4.01562 z m -155.55312,-0.1625 c 0,0 3.59045,-2.61063 3.26406,-4.01406 l 0.0656,-0.0328 c -0.32638,-1.43607 -1.56653,-2.15392 -2.61093,0.32656 -1.04441,2.48049 -2.61175,3.85087 -0.71875,3.72031 z m 115.61875,-0.97812 c 2.70187,-0.0937 4.32656,-2.74219 4.32656,-2.74219 0,0 4.01372,-17.46121 4.24219,-21.3125 0.22846,-3.85127 -0.12969,-2.28437 -0.12969,-2.28437 l -3.85156,0.97812 c -2.44785,0.71803 -4.73183,-0.12953 -6.59219,-0.97812 -1.86037,-0.84859 -2.28526,-0.71874 -2.44844,-0.13125 -0.16319,0.58749 -0.425,7.7358 -0.71875,15.01406 -0.29374,7.27827 0.42458,10.44361 3.85156,11.29219 l 0.0984,0.0328 c 0.42837,0.10607 0.83589,0.14464 1.22188,0.13125 z m -75.70782,-0.17188 c 0.38375,0.0156 0.78977,-0.0214 1.21407,-0.12343 3.39435,-0.81596 4.1453,-4.01393 3.85156,-11.29219 l 0.0641,-0.0328 -0.71719,-15.0125 c -0.13055,-0.58748 -0.55526,-0.71889 -2.41562,0.12968 -1.86036,0.84858 -4.14433,1.73037 -6.59219,0.97969 l -3.85156,-0.97969 c 0,0 -0.42499,-1.56689 -0.13125,2.28438 0.29373,3.85129 4.24375,21.3125 4.24375,21.3125 0,0 1.64812,2.62505 4.33437,2.73437 z m 65.85782,-5.66562 c 0.74812,0.005 1.61093,-0.23438 1.61093,-0.23438 0,0 1.95813,-15.47073 1.14219,-17.88593 -0.81596,-2.41521 -0.71756,-3.5899 -1.95781,-2.28438 -1.24024,1.30551 -1.56619,2.15364 -3.42656,1.95781 -1.86036,-0.19582 -5.28823,-2.28378 -6.3,-0.12968 -1.01178,2.15411 -0.97914,10.01933 0,11.87968 h -0.0656 c 0.97914,1.86036 1.86151,5.1571 3.42813,4.43907 1.56662,-0.71804 4.14464,1.86095 4.89531,2.15468 0.18767,0.0734 0.42406,0.1016 0.67344,0.10313 z m -55.74063,-0.22813 c 0.24785,-0.002 0.47987,-0.0312 0.65938,-0.10468 0.71803,-0.29374 3.2634,-2.87117 4.89531,-2.15313 1.63189,0.71803 2.41634,-2.61133 3.42812,-4.43906 1.01178,-1.82774 0.97915,-9.72558 0,-11.87969 h -0.0656 c -0.97914,-2.1541 -4.43963,-8.7e-4 -6.3,0.12969 -1.86036,0.13055 -2.15369,-0.71756 -3.42656,-1.95781 -1.27288,-1.24024 -1.14187,-0.13083 -1.95782,2.28437 -0.81596,2.41521 1.14219,17.88594 1.14219,17.88594 0,0 0.88147,0.23896 1.625,0.23437 z m 38.38281,-5.22968 c 1.06157,0.1046 2.33624,-0.22712 3.89063,-1.5 0,0 0.97916,-2.61139 0.5875,-6.20157 -0.39166,-3.59017 0.58607,-4.73207 -1.14375,-3.13281 -1.7298,1.59926 -2.61064,1.56735 -4.01406,1.30625 -1.40344,-0.26112 -1.9587,-0.97932 -2.70938,-0.32656 -0.75067,0.65276 -1.85951,7.57102 -0.42344,7.99531 l -0.0328,0.0328 c 0.89754,0.26519 2.07604,1.65222 3.84531,1.82657 z m -21.1375,-0.20469 c 1.76927,-0.16925 2.94777,-1.56442 3.84532,-1.85 1.43606,-0.45693 0.32722,-7.31149 -0.42344,-7.99688 l -0.0328,-0.0312 c -0.71803,-0.71803 -1.30594,-10e-4 -2.70938,0.325 -1.40342,0.32638 -2.28425,0.32721 -4.01406,-1.30468 -1.72982,-1.63191 -0.7179,-0.42472 -1.14219,3.13281 -0.42429,3.55754 0.5875,6.20156 0.5875,6.20156 1.55438,1.28512 2.8275,1.62499 3.88906,1.52344 z m 78.79844,-2.22813 c 0.80638,0.0717 1.64844,-0.4375 1.64844,-0.4375 -0.84859,-4.9936 -3.13283,-4.1446 -4.01406,-3.72031 -0.88123,0.4243 0.42415,1.30509 1.14218,3.13281 v 0.0328 c 0.26926,0.69763 0.73961,0.94916 1.22344,0.99218 z M 370.165,495.92788 c 0.48383,-0.0478 0.95574,-0.30731 1.225,-1.01719 0.71805,-1.89299 1.95814,-2.71007 1.14219,-3.13437 -0.84859,-0.42429 -3.13286,-1.30436 -4.01407,3.72187 0,0 0.8405,0.50937 1.64688,0.42969 z m 125.2125,-8.07813 c 1.38686,0.0625 2.38594,-1.2625 2.38594,-1.2625 0.97914,-0.58748 0.32651,-2.61075 -1.43594,-2.28437 -1.76245,0.32638 -0.71846,0.13067 -3.00313,-1.43594 -2.28464,-1.56663 -1.95815,0.71708 -1.72968,2.44688 l 0.0328,-0.0328 c 0.32639,1.72981 1.4372,1.86096 3.13437,2.44844 0.21215,0.0734 0.41751,0.11139 0.61563,0.12031 z m -113.89844,-0.22968 c 0.19812,-0.009 0.40348,-0.0453 0.61563,-0.11875 1.69715,-0.58749 2.87171,-0.71863 3.13281,-2.44844 0.2611,-1.72982 0.5876,-4.0135 -1.72969,-2.44688 l 0.0328,0.0328 c -2.28466,1.56661 -1.30595,1.72967 -3.00312,1.43593 -1.69717,-0.29374 -2.41507,1.72954 -1.43594,2.28438 0,0 1.00064,1.3234 2.3875,1.26094 z m 66.75938,-1.32657 c 1.30118,0.007 2.31388,-1.91312 2.42812,-2.28437 0,0 -0.55385,-0.9797 -1.56562,-1.56719 -1.01178,-0.58747 -1.30596,0.98024 -3.00313,1.95938 -1.69718,0.97914 5.7e-4,0.97902 1.56719,1.72968 v 0.0312 c 0.19583,0.0898 0.38755,0.1303 0.57344,0.13125 z m -19.49063,-0.1625 c 0.18588,-9.5e-4 0.37761,-0.0415 0.57344,-0.13125 1.56663,-0.71802 3.26437,-0.71791 1.56719,-1.72968 v -0.0328 c -1.72981,-0.97912 -1.95871,-2.61057 -3.00313,-1.95781 -1.0444,0.65276 -1.56562,1.56563 -1.56562,1.56563 0.11423,0.37126 1.12694,2.29263 2.42812,2.28593 z m 33.70781,-4.24843 c 1.24687,0.10249 3.02137,-0.68074 3.87813,-0.87657 1.7298,-0.42428 0.32656,-1.86025 0.32656,-2.61093 0,-0.75067 -0.84832,-0.32569 -2.87187,0.13125 -2.02354,0.45694 -1.56776,-0.32777 -3.42813,0.325 -1.86036,0.65275 0.13041,1.43753 1.14219,2.6125 l -0.0641,-0.0328 c 0.24478,0.28558 0.60156,0.4174 1.01718,0.45157 z m -47.85781,-0.21875 c 0.42124,-0.0393 0.78733,-0.17692 1.04844,-0.4625 1.04442,-1.14234 3.00254,-1.95819 1.14219,-2.61094 l -0.0641,0.0328 c -1.86035,-0.58748 -1.4372,0.13038 -3.42812,-0.32656 -1.99092,-0.45694 -2.87188,-0.84772 -2.87188,-0.12969 0,0.71804 -1.43588,2.154 0.32657,2.61094 0.83226,0.24479 2.58317,1.00374 3.84687,0.88594 z m 65.00156,-0.17188 c 1.62738,-0.15618 3.15157,-2.70469 3.15157,-2.70469 0.42429,-2.1541 -2.44813,-0.13125 -4.14532,-0.71875 -1.69716,-0.58748 -1.14204,-1.3e-4 -2.28437,1.72969 -1.14234,1.72982 0.71794,0.84916 2.61094,1.56719 l -0.0328,0.0328 c 0.23255,0.0898 0.46752,0.11606 0.7,0.0937 z m -82.35156,-0.18281 c 0.23471,0.0268 0.47275,0.007 0.70938,-0.075 1.893,-0.65276 3.72062,0.13153 2.61093,-1.56563 l -0.0328,-0.0328 c -1.14234,-1.72981 -0.55456,-2.28453 -2.28437,-1.72969 -1.72981,0.55484 -4.56961,-1.43691 -4.14532,0.71719 0,0 1.4992,2.49853 3.14219,2.68594 z m 49.54531,127.97673 c -1.27238,-1.19246 -2.52669,-2.40405 -3.7625,-3.63437 -1.37079,-1.56662 -2.28471,-2.83996 -2.35,-3.59063 -0.42429,-3.42698 -0.42488,-1.30536 -2.15468,-0.84844 -0.0662,0.0175 -0.12685,-0.14382 -0.18438,-0.3875 -1.5638,-0.51537 -1.5929,-2.43551 -2.00312,0.90938 -0.0979,0.75067 -0.97922,2.02401 -2.35,3.59062 -1.25602,1.25127 -2.53117,2.48318 -3.825,3.69532 4.63479,-4.58171 4.55135,-6.14546 5.06562,-7.25313 0.84859,-1.82773 -1.85937,-4.30781 -1.85937,-4.30781 -2.61104,-3.00271 0.42343,-4.73281 0.42343,-4.73281 l -5.15625,-4.24375 c 0,0 -29.17798,19.32225 -72.97812,20.5625 -43.80014,1.24025 -63.54674,-5.54846 -65.27656,-6.42969 -1.7298,-0.88122 -5.15712,-2.15367 -4.73282,-3.42656 0.42429,-1.27287 -4.2435,-6.85459 -2.15468,-9.46563 2.08883,-2.61104 0,-6.85312 0,-6.85312 l 1.69843,-5.15782 c 0.42429,-2.1541 7.30996,-6.42971 9.46407,-7.31093 2.15409,-0.88123 4.73308,-3.42657 8.58437,-3.42657 3.85128,0 6.42886,-6.85468 7.73438,-6.85468 1.3055,0 3.4277,-0.42303 6.85468,-4.73125 3.42699,-4.30821 4.3081,-5.54916 8.15938,-6.85469 3.85128,-1.30551 0.84917,-3.42699 2.15469,-6.42969 1.30552,-3.00268 4.73237,-3.00193 8.15937,-4.24219 3.42699,-1.24022 3.00198,-3.42729 6.00469,-4.73281 3.00268,-1.30552 2.8e-4,-5.8e-4 3.85156,-2.15469 3.85129,-2.15409 16.31875,6.00625 16.31875,6.00625 l -3.85156,-5.19062 c 0,0 -1.72853,-1.72981 -3.85,-6.42969 -2.12147,-4.69985 0.42415,-9.00823 0.84844,-12.01094 0.42429,-3.00268 -0.84844,-7.73437 -0.84844,-7.73437 1.18143,-2.57147 2.61335,-5.02028 4.275,-7.31094 1.72982,-3.85127 2.1534,-9.46562 6.00469,-9.46562 3.85127,0 6.00596,-8.15825 8.58437,-11.16094 2.57839,-3.00269 5.54835,-1.30695 8.15938,-0.85 2.61103,0.45692 5.35238,-9.59544 9.88906,-8.15938 6.29911,1.95828 6.85415,0.42446 12.01094,-0.84843 5.1568,-1.27287 6.00527,2.61134 8.15937,4.73281 2.15412,2.12147 6.855,-1.72981 11.5875,0 4.73251,1.7298 3.427,6.0061 6.42969,6.85469 3.0027,0.84858 3.85,2.61102 3.85,5.54843 l 0.425,26.63125 c 2.15411,-4.3082 6.06998,-2.25189 6.06998,-2.25189 l -1.42283,-0.37673 c 0.93271,-0.18694 2.6257,0.10618 4.0341,2.988 2.12147,4.34086 0.425,-23.59731 0.425,-26.6 0,-3.0027 0.84887,-4.73249 3.85156,-5.54844 3.0027,-0.81594 1.72981,-5.15595 6.42969,-6.85312 4.69986,-1.69717 9.46447,2.15411 11.58594,0 2.12146,-2.1541 3.00258,-6.00567 8.15937,-4.73282 5.15682,1.2729 5.7118,2.87199 12.01094,0.84844 4.50403,-1.43607 7.31067,8.58367 9.88906,8.15938 2.57842,-0.42429 5.5483,-2.15425 8.15938,0.84843 2.611,3.0027 4.73309,11.1625 8.58437,11.1625 3.85127,0 4.24224,5.54908 6.00469,9.46563 1.76246,3.91656 4.24375,7.31094 4.24375,7.31094 0,0 -1.30536,4.7317 -0.84844,7.73437 0.45695,3.00271 3.00254,7.31107 0.84844,12.01094 -2.15413,4.69987 -3.85156,6.42969 -3.85156,6.42969 l -3.81875,5.05937 c 0,0 12.4022,-8.16035 16.31875,-6.00625 3.91654,2.15411 0.84887,0.84916 3.85156,2.15469 3.00268,1.30551 2.61033,3.42728 6.00469,4.73281 3.39434,1.30551 6.85386,1.30477 8.15937,4.24219 1.3055,2.93742 -1.72922,5.15681 2.15469,6.42969 3.88391,1.2729 4.73243,2.61175 8.15937,6.85468 3.427,4.24294 5.54915,4.73282 6.85469,4.73282 1.3055,0 3.85043,6.85312 7.73438,6.85312 3.8839,0 6.43027,2.61063 8.58437,3.42656 2.15413,0.81596 9.00714,5.15683 9.46406,7.31094 0.45695,2.15411 1.73125,5.15781 1.73125,5.15781 0,0 -2.15409,4.24209 0,6.85313 2.15412,2.61104 -2.61159,8.16011 -2.15468,9.46562 0.45692,1.30552 -3.003,2.61062 -4.73282,3.42657 -1.7298,0.81595 -21.4764,7.7352 -65.27656,6.42968 -43.80013,-1.30551 -72.97812,-20.49687 -72.97812,-20.49687 l -5.15625,4.24375 c 0,0 3.00183,1.73012 0.42343,4.73281 0,0 -2.70797,2.41481 -1.85937,4.30781 0.51157,1.14123 0.44243,2.6813 5.00312,7.19219 z" />
    <path
       style="font-variation-settings:normal;vector-effect:none;fill:#2c363c;fill-opacity:1;stroke:none;stroke-width:0.748751;stroke-linecap:butt;stroke-linejoin:miter;stroke-miterlimit:4;stroke-dasharray:none;stroke-dashoffset:0;stroke-opacity:1;-inkscape-stroke:none;stop-color:#000000"
       d="m 429.31969,609.8343 c -4.83639,4.7432 -9.94673,9.19876 -15.30469,13.34375 -4.73251,3.42699 -19.32188,17.62344 -19.32188,17.62344 -1.56661,1.14233 -4.89602,0.84928 18.92969,-18.27657 7.81086,-5.74672 12.61354,-9.76108 15.69688,-12.69062 z"
       id="path444" />
    <path
       style="font-variation-settings:normal;vector-effect:none;fill:#2c363c;fill-opacity:1;stroke:none;stroke-width:0.748751;stroke-linecap:butt;stroke-linejoin:miter;stroke-miterlimit:4;stroke-dasharray:none;stroke-dashoffset:0;stroke-opacity:1;-inkscape-stroke:none;stop-color:#000000"
       d="m 430.16344,609.02024 c -0.26481,0.26177 -0.54664,0.53177 -0.84375,0.81406 0.28217,-0.2704 0.56342,-0.54176 0.84375,-0.81406 z"
       id="path443" />
    <path
       style="font-variation-settings:normal;vector-effect:none;fill:#2c363c;fill-opacity:1;stroke:none;stroke-width:0.748751;stroke-linecap:butt;stroke-linejoin:miter;stroke-miterlimit:4;stroke-dasharray:none;stroke-dashoffset:0;stroke-opacity:1;-inkscape-stroke:none;stop-color:#000000"
       d="m 447.73219,610.19367 c -0.33514,-0.31712 -0.64466,-0.61662 -0.93907,-0.90781 0.31188,0.30378 0.62491,0.60639 0.93907,0.90781 z"
       id="path441" />
    <path
       style="font-variation-settings:normal;vector-effect:none;fill:#2c363c;fill-opacity:1;stroke:none;stroke-width:0.748751;stroke-linecap:butt;stroke-linejoin:miter;stroke-miterlimit:4;stroke-dasharray:none;stroke-dashoffset:0;stroke-opacity:1;-inkscape-stroke:none;stop-color:#000000"
       d="m 483.18531,641.52024 c -0.22157,-0.002 -0.57175,-0.17189 -0.85937,-0.39219 l -19.32188,-17.625 c -5.34577,-4.13489 -10.44511,-8.57894 -15.27187,-13.30938 3.08488,2.91915 7.87743,6.91722 15.66406,12.65782 19.30535,15.56627 20.74921,18.679 19.78906,18.66875 z"
       id="path2" />
    <path
       id="path538"
       style="font-variation-settings:normal;vector-effect:none;fill:#efedec;fill-opacity:1;stroke:none;stroke-width:0.748751;stroke-linecap:butt;stroke-linejoin:miter;stroke-miterlimit:4;stroke-dasharray:none;stroke-dashoffset:0;stroke-opacity:1;-inkscape-stroke:none;stop-color:#000000"
       d="m 562.48687,605.08274 c -1.65541,0.0177 -3.14286,-0.10649 -3.2,-0.60625 -0.13056,-1.14233 5.44982,-2.15538 6.29844,-2.28594 v 0.0328 c 0.84855,-0.13055 5.28765,0.88111 4.43906,1.72969 -0.84858,0.84859 -3.00312,0.84844 -3.00312,0.84844 0,0 -1.90127,0.20442 -3.81875,0.26562 -0.23969,0.008 -0.47914,0.0131 -0.71563,0.0156 z m -248.03281,-0.27969 c -0.23618,-0.003 -0.47645,-0.009 -0.71562,-0.0172 -1.9134,-0.0653 -3.80625,-0.27812 -3.80625,-0.27812 0,0 -2.15453,1.3e-4 -3.00313,-0.84844 v -0.0312 c -0.84858,-0.88123 3.59046,-1.8618 4.43906,-1.73125 0.84858,0.13055 6.46318,1.11097 6.3,2.28594 -0.0714,0.51408 -1.56081,0.64054 -3.21406,0.62031 z m 264.34219,-1.54531 c -0.0978,-0.005 -0.16305,-0.0325 -0.1875,-0.0875 -0.26108,-0.58748 0.16293,-3.13353 2.87187,-3.85157 v 0.0328 c 2.70896,-0.75067 3.58992,0.71862 2.28438,1.86093 0,0 -3.74895,1.94849 -4.86094,2.04219 -0.0397,0.003 -0.0752,0.005 -0.10781,0.003 z m -280.71406,-0.24532 c -1.11199,-0.0625 -4.86094,-2.06093 -4.86094,-2.06093 v -0.0328 c -1.30553,-1.14231 -0.45719,-2.54632 2.28437,-1.86093 2.74159,0.6854 3.13455,3.1988 2.87344,3.85156 -0.0326,0.0816 -0.13802,0.11212 -0.29687,0.10312 z m 193.74531,-2.77968 c -0.27083,-0.006 -1.33828,-0.0774 -1.08125,-0.84844 0.28656,-0.85966 0.80681,-1.39089 0.83281,-1.41719 0.0575,0.056 1.72101,1.68813 0.30938,2.26563 0,0 -0.0222,8.2e-4 -0.0609,0 z m -106.79531,-0.32657 c -1.40344,-0.55482 0.32656,-2.28437 0.32656,-2.28437 0,0 0.55471,0.58735 0.84844,1.43594 0.29375,0.84859 -1.14219,0.84843 -1.14219,0.84843 z m 204.02031,-1.30468 c -0.84858,-0.26111 -1.56731,-1.40401 -0.425,-1.56719 1.14234,-0.16319 0.425,1.56719 0.425,1.56719 z m -301.08594,-0.26094 c 0,0 -0.71732,-1.69774 0.425,-1.56719 1.14233,0.13056 0.42358,1.24081 -0.425,1.56719 z m 293.925,-2.58594 c -0.25398,0.004 -0.40125,-0.0742 -0.39687,-0.26094 0.18178,-1.03615 2.71093,-3.63981 4.13125,-2.83281 1.43605,0.81595 -0.425,1.95781 -0.425,1.95781 0,0 -2.16567,1.02872 -3.19375,1.12969 -0.0405,0.004 -0.0793,0.006 -0.11563,0.006 z m -286.75781,-0.3125 c -0.0387,-5.8e-4 -0.079,-0.002 -0.12188,-0.006 -1.02809,-0.0964 -3.19375,-1.14375 -3.19375,-1.14375 0,0 -1.86108,-1.10922 -0.425,-1.95781 v -0.0656 c 1.43607,-0.84858 4.01477,1.86165 4.14532,2.87344 0.0286,0.22133 -0.13411,0.30409 -0.40469,0.3 z M 590.965,594.49992 c -0.54382,-0.59558 0.56719,-1.83047 0.56719,-1.12031 0,0.69265 -0.52859,1.09151 -0.56719,1.12031 z m -304.85781,-0.30468 c 0,0 -0.5875,-0.42416 -0.5875,-1.14219 h 0.0312 c 0,-0.71804 1.14373,0.55471 0.55625,1.14219 z m 296.0625,-7.29219 c -0.55989,-0.015 -1.00593,-0.34091 -0.82032,-1.45469 0.42431,-2.54576 3.29757,-3.00324 3.42813,-1.56719 -0.66296,0.68525 -1.02608,1.60607 -1.00938,2.55938 -0.0459,0.0247 -0.71051,0.38056 -1.35312,0.45156 -0.0831,0.009 -0.16533,0.0131 -0.24531,0.0109 z m -287.35313,-0.1625 c -0.08,0.002 -0.16219,-0.002 -0.24531,-0.0109 -0.665,-0.0734 -1.38281,-0.46562 -1.38281,-0.46562 0,0 -1.14132,-1.17487 -0.97813,-2.61094 0.16318,-1.43608 3.00225,-1.04385 3.42656,1.56719 v 0.0641 c 0.18563,1.11377 -0.26042,1.44097 -0.82031,1.45625 z m 281.15156,-8.07031 c -0.1309,-0.003 -0.25186,-0.0102 -0.35781,-0.0188 -0.28252,-0.0229 -0.4625,-0.0578 -0.4625,-0.0578 v -0.0328 c 0,0 -2.15326,-1.14119 -0.71719,-2.70781 1.43609,-1.56661 5.28766,-0.42443 4.43907,1.43594 -0.55689,1.22088 -1.98525,1.40137 -2.90157,1.38125 z m -275.21875,-0.22813 c -0.91191,-0.0122 -2.17976,-0.24915 -2.69687,-1.38281 -0.84858,-1.86037 3.00142,-3.00257 4.4375,-1.43594 v 0.0328 c 1.43607,1.56663 -0.71719,2.70938 -0.71719,2.70938 0,0 -0.17998,0.0348 -0.4625,0.0578 -0.15892,0.0129 -0.35049,0.0216 -0.56094,0.0187 z m 266.75313,-5.70469 c -1.43352,0.002 -4.3396,-0.15733 -4.65781,-1.45468 -0.4243,-1.72982 -0.29389,-3.46006 1.14218,-2.70938 1.43609,0.75068 1.30525,1.17641 2.87188,1.73125 1.56662,0.55485 1.43594,2.41406 1.43594,2.41406 0,0 -0.31435,0.0183 -0.79219,0.0188 z m -258.02344,-0.22343 c -0.47529,-0.003 -0.7875,-0.0234 -0.7875,-0.0234 0,0 -0.0979,-1.86096 1.46875,-2.44844 1.56663,-0.58749 1.43581,-1.01166 2.87188,-1.72969 l -0.0328,0.0328 c 1.46872,-0.71803 1.60068,0.94692 1.14375,2.70937 -0.3427,1.32183 -3.23819,1.46838 -4.66406,1.45938 z m 246.37969,-6.87657 c -0.45691,0 -3.71962,-0.45839 -3.58906,-2.6125 h 0.0328 c 0.16319,-2.15408 -1.1e-4,-2.87185 1.14219,-2.28437 1.14233,0.58748 2.02242,3.26426 3.00156,3.59062 0.97915,0.32638 -0.5875,1.30625 -0.5875,1.30625 z m -234.66719,-0.35937 c 0,0 -1.63192,-0.97988 -0.5875,-1.30625 1.04441,-0.32638 1.8608,-3.03422 3.00313,-3.58906 h 0.0328 c 1.14233,-0.58749 1.01163,0.0976 1.14219,2.28437 0.13056,2.18675 -3.16632,2.61094 -3.59063,2.61094 z m 224.52969,-10.725 c -0.15572,-0.004 -0.30446,-0.0157 -0.44063,-0.0375 -0.3631,-0.0581 -0.64079,-0.18803 -0.74687,-0.43281 -0.42428,-0.97914 -1.69619,-1.27246 -1.56563,-3.13282 l 0.0312,-0.0328 c 0.13056,-1.82772 0.52279,-4.17823 1.56719,-2.15469 1.04442,2.02356 3.00313,3.59063 3.00313,3.59063 l 0.97812,1.86094 c -0.27843,0 -1.73651,0.3648 -2.82656,0.33906 z m -214.54844,-0.25938 c -0.21373,-0.002 -0.43811,-0.0166 -0.6625,-0.0391 -0.89754,-0.0898 -1.79567,-0.30312 -2.00781,-0.30312 l 0.97969,-1.85938 c 0,0 2.02398,-1.63234 3.00312,-3.59062 l 0.0328,0.0328 c 1.01179,-1.99091 1.40243,0.32697 1.56563,2.15469 0.16319,1.82773 -1.14132,2.15366 -1.56563,3.13281 -0.1591,0.36721 -0.70412,0.47753 -1.34531,0.47187 z m 204.12813,-10.34843 c -0.25697,-0.003 -0.53114,-0.0542 -0.81875,-0.17657 -1.53398,-0.65275 -1.86094,-1.10921 -1.86094,-1.95781 v -0.0328 c 0,-0.88122 0.42402,-3.42685 2.28437,-1.72969 1.86037,1.69719 2.28438,3.00313 2.28438,3.00313 0,0 -0.65989,0.77109 -1.6375,0.88125 -0.0815,0.009 -0.16591,0.0134 -0.25156,0.0125 z m -193.85313,-0.17188 c -0.0421,-0.002 -0.0841,-0.005 -0.125,-0.009 -0.9822,-0.10097 -1.625,-0.90938 -1.625,-0.90938 0,0 0.42402,-1.27174 2.28438,-3.00156 v 0.0328 c 1.86035,-1.69719 2.28593,0.91373 2.28593,1.72969 0,0.81595 -0.29432,1.23978 -1.86093,1.95781 -0.34271,0.15709 -0.66477,0.2115 -0.95938,0.2 z m 188.30156,-4.11719 c 0,0 -1.43678,-0.0325 -0.71875,-1.43593 0.71804,-1.40344 2.87188,-1.56577 2.87188,-0.42344 0,1.14233 -2.15313,1.85937 -2.15313,1.85937 z M 347.14,539.42805 c 0,0 -2.15469,-0.71704 -2.15469,-1.85938 0,-1.14231 2.15385,-1.01263 2.87188,0.42344 0.71804,1.43607 -0.71719,1.43594 -0.71719,1.43594 z m 171.90312,-15.40469 c 0,0 -1.85937,-0.29361 -1.85937,-1.43594 l -0.0328,-0.0328 c 0,-1.14233 -0.26091,-3.42656 0.32656,-3.42656 0.58748,0 4.01347,3.1655 1.56562,4.89531 z M 357.84469,523.8593 c -2.44785,-1.76245 1.01233,-4.89531 1.56718,-4.89531 l -0.0328,0.0328 c 0.65276,0 0.32656,2.31687 0.32656,3.42656 0,1.10969 -1.86093,1.43594 -1.86093,1.43594 z m 158.52343,-12.85156 c -0.0516,-0.001 -0.10592,-0.004 -0.16406,-0.008 l -0.0656,-0.0312 c 0,0 -3.5889,-2.61219 -3.2625,-4.01562 0.32636,-1.40344 1.5665,-2.08866 2.61093,0.32656 1.01176,2.33973 2.48167,3.76032 0.88125,3.72813 z m -155.88437,-0.1625 c -1.6281,0.036 -0.12584,-1.32516 0.88594,-3.72813 1.04439,-2.48048 2.28455,-1.76263 2.61093,-0.32656 l -0.0656,0.0328 c 0.32639,1.40343 -3.26406,4.01406 -3.26406,4.01406 -0.0592,0.004 -0.11467,0.007 -0.16719,0.008 z m 146.39062,-14.70782 c -0.0505,-2e-4 -0.10116,-0.002 -0.15156,-0.006 -0.48383,-0.043 -0.95418,-0.29455 -1.22344,-0.99218 v -0.0328 c -0.71803,-1.82771 -2.02341,-2.70851 -1.14218,-3.13281 0.88123,-0.42429 3.16547,-1.27328 4.01406,3.72031 0,0 -0.73993,0.44689 -1.49688,0.44375 z m -136.86093,-0.20156 c -0.75678,0.01 -1.49532,-0.4375 -1.49532,-0.4375 0.88121,-5.02622 3.16548,-4.14616 4.01407,-3.72187 0.81595,0.4243 -0.42414,1.24138 -1.14219,3.13437 -0.26926,0.70988 -0.74117,0.96939 -1.225,1.01719 -0.0504,0.005 -0.10111,0.007 -0.15156,0.008 z m 125.49218,-8.08437 c -0.0426,6.7e-4 -0.0848,3.9e-4 -0.12812,-0.002 -0.19812,-0.009 -0.40348,-0.0469 -0.61563,-0.12031 -1.69716,-0.58748 -2.80798,-0.71863 -3.13437,-2.44844 l -0.0328,0.0328 c -0.22847,-1.7298 -0.55495,-4.01351 1.72968,-2.44688 2.28467,1.56661 1.24068,1.76232 3.00313,1.43594 1.76245,-0.32638 2.41508,1.6969 1.43594,2.28437 0,0 -0.93835,1.24317 -2.25782,1.26407 z M 381.35094,487.6218 c -1.31956,-0.0208 -2.25938,-1.2625 -2.25938,-1.2625 -0.97913,-0.55484 -0.26123,-2.57811 1.43594,-2.28438 1.69717,0.29374 0.71847,0.13068 3.00312,-1.43593 l -0.0328,-0.0328 c 2.31729,-1.56661 1.99079,0.71706 1.72969,2.44688 -0.2611,1.72981 -1.43567,1.86095 -3.13281,2.44844 -0.21215,0.0735 -0.41751,0.10975 -0.61563,0.11875 -0.0433,0.002 -0.0856,0.002 -0.12812,0.002 z m 66.8875,-1.32813 c -0.18589,-9.5e-4 -0.37761,-0.0414 -0.57344,-0.13125 v -0.0312 c -1.56662,-0.75065 -3.26437,-0.75054 -1.56719,-1.72968 1.69717,-0.97914 1.99135,-2.54685 3.00313,-1.95938 1.01176,0.58749 1.56562,1.56719 1.56562,1.56719 -0.11424,0.37125 -1.12695,2.29137 -2.42812,2.28437 z m -19.49063,-0.1625 c -1.30118,0.007 -2.31389,-1.91467 -2.42812,-2.28593 0,0 0.52122,-0.91287 1.56562,-1.56563 1.04442,-0.65276 1.27332,0.9787 3.00313,1.95781 v 0.0328 c 1.69717,1.01177 -5.6e-4,1.01167 -1.56719,1.72968 -0.19583,0.0897 -0.38756,0.1303 -0.57344,0.13125 z m 33.94688,-4.23906 c -0.0817,1.6e-4 -0.16114,-0.003 -0.23907,-0.009 -0.41562,-0.0342 -0.7724,-0.16599 -1.01718,-0.45157 l 0.0641,0.0328 c -1.01178,-1.17497 -3.00255,-1.95975 -1.14219,-2.6125 1.86037,-0.65277 1.40459,0.13194 3.42813,-0.325 2.02354,-0.45694 2.87187,-0.88192 2.87187,-0.13125 0,0.75068 1.40324,2.18666 -0.32656,2.61093 -0.80321,0.1836 -2.41359,0.88363 -3.63906,0.88594 z m -48.33907,-0.21562 c -1.23666,0.0128 -2.82444,-0.66895 -3.60468,-0.89844 -1.76245,-0.45694 -0.32657,-1.8929 -0.32657,-2.61094 0,-0.71803 0.88096,-0.32725 2.87188,0.12969 1.99092,0.45694 1.56778,-0.26092 3.42812,0.32656 l 0.0641,-0.0328 c 1.86034,0.65275 -0.0978,1.4686 -1.14219,2.61094 -0.26111,0.28558 -0.6272,0.4232 -1.04844,0.4625 -0.079,0.007 -0.15974,0.0116 -0.24219,0.0125 z m 65.06875,-0.17657 c -0.17506,-0.002 -0.35058,-0.0342 -0.525,-0.10156 l 0.0328,-0.0328 c -1.893,-0.71803 -3.75328,0.16263 -2.61094,-1.56719 1.14233,-1.72982 0.58722,-2.31716 2.28437,-1.72969 1.69719,0.5875 4.56961,-1.43534 4.14532,0.71875 0,0 -1.52419,2.54851 -3.15157,2.70469 -0.0581,0.006 -0.11664,0.009 -0.175,0.008 z m -82,-0.17968 c -0.059,-6.3e-4 -0.11788,-0.004 -0.17656,-0.0109 -1.64299,-0.18741 -3.14219,-2.68594 -3.14219,-2.68594 -0.42429,-2.1541 2.41551,-0.16235 4.14532,-0.71719 1.7298,-0.55483 1.14203,-1.2e-4 2.28437,1.72969 l 0.0328,0.0328 c 1.10969,1.69716 -0.71794,0.91287 -2.61093,1.56563 -0.17748,0.0615 -0.35576,0.0878 -0.53282,0.0859 z" />
  </g>
</svg>
