<?xml version="1.0" encoding="UTF-8" standalone="no"?>
<!-- Created with Inkscape (http://www.inkscape.org/) -->

<svg
   width="414.29224"
   height="280.81799"
   viewBox="0 0 109.61482 74.299769"
   version="1.1"
   id="svg1"
   sodipodi:docname="mx-butterfly-splash.svg"
   inkscape:version="1.3.2 (091e20e, 2023-11-25)"
   xmlns:inkscape="http://www.inkscape.org/namespaces/inkscape"
   xmlns:sodipodi="http://sodipodi.sourceforge.net/DTD/sodipodi-0.dtd"
   xmlns:xlink="http://www.w3.org/1999/xlink"
   xmlns="http://www.w3.org/2000/svg"
   xmlns:svg="http://www.w3.org/2000/svg">
  <sodipodi:namedview
     id="namedview1"
     pagecolor="#ffffff"
     bordercolor="#999999"
     borderopacity="1"
     inkscape:showpageshadow="2"
     inkscape:pageopacity="0"
     inkscape:pagecheckerboard="0"
     inkscape:deskcolor="#d1d1d1"
     inkscape:zoom="1.5253439"
     inkscape:cx="231.75101"
     inkscape:cy="254.69666"
     inkscape:window-width="1712"
     inkscape:window-height="1040"
     inkscape:window-x="0"
     inkscape:window-y="39"
     inkscape:window-maximized="1"
     inkscape:current-layer="svg1" />
  <defs
     id="defs1">
    <linearGradient
       id="linearGradient421">
      <stop
         style="stop-color:#4078f2;stop-opacity:0.5;"
         offset="0"
         id="stop421" />
      <stop
         style="stop-color:#ca3ec9;stop-opacity:0.5;"
         offset="1"
         id="stop422" />
    </linearGradient>
    <linearGradient
       xlink:href="#linearGradient1791"
       id="linearGradient1793"
       x1="31.405035"
       y1="1816.9978"
       x2="4869.6509"
       y2="1816.9978"
       gradientUnits="userSpaceOnUse" />
    <linearGradient
       id="linearGradient1791">
      <stop
         style="stop-color:#000000;stop-opacity:1;"
         offset="0"
         id="stop1787" />
      <stop
         style="stop-color:#000000;stop-opacity:0;"
         offset="1"
         id="stop1789" />
    </linearGradient>
    <linearGradient
       xlink:href="#linearGradient421"
       id="linearGradient422"
       x1="542.05408"
       y1="412.49466"
       x2="4348.3213"
       y2="3210.8206"
       gradientUnits="userSpaceOnUse"
       gradientTransform="matrix(0.80246217,0,0,0.80246217,484.0732,358.92876)" />
    <linearGradient
       inkscape:collect="always"
       xlink:href="#linearGradient243"
       id="linearGradient244"
       x1="269.00613"
       y1="553.18219"
       x2="579.76648"
       y2="553.18219"
       gradientUnits="userSpaceOnUse"
       gradientTransform="matrix(0.29956459,0,0,-0.29956459,-72.307198,207.64432)" />
    <linearGradient
       id="linearGradient243"
       inkscape:collect="always">
      <stop
         style="stop-color:#4078f2;stop-opacity:0.50196081;"
         offset="0"
         id="stop243" />
      <stop
         style="stop-color:#ca3ec9;stop-opacity:0.50196081;"
         offset="1"
         id="stop244" />
    </linearGradient>
  </defs>
  <g
     id="g2233"
     style="fill:#efedec;fill-opacity:1;stroke:none"
     transform="matrix(0.23965167,0,0,0.23965167,123.93885,10.071053)" />
  <path
     id="path1"
     style="font-variation-settings:normal;vector-effect:none;fill:#88507d;fill-opacity:1;stroke:none;stroke-width:0.0404029;stroke-linecap:butt;stroke-linejoin:miter;stroke-miterlimit:4;stroke-dasharray:none;stroke-dashoffset:0;stroke-opacity:1;-inkscape-stroke:none;stop-color:#000000"
     d="m 81.96089,20.700098 c -0.764206,0.0062 -1.556023,0.02103 -2.376082,0.04547 -13.120948,0.391085 -21.861715,6.159831 -21.861715,6.159831 l -1.545125,-1.271757 -2.737301,0.07855 -1.545125,1.27124 c 0,0 -8.740813,-5.768743 -21.871533,-6.159831 -13.130726,-0.391085 -18.996898,1.661915 -19.515088,1.906344 -0.5181848,0.244427 -1.5548803,0.63572 -1.4180006,1.026811 0.1368828,0.391085 -1.2902157,2.053312 -0.6449218,2.835485 0.6452907,0.782172 0,2.053105 0,2.053105 0,0 0.3809179,0.899314 0.5177978,1.544609 0.1368768,0.64529 2.1901906,1.945617 2.8354856,2.190047 0.64529,0.244427 1.407936,1.026811 2.571419,1.026811 1.163483,0 1.926083,2.053104 2.317171,2.053104 0.391082,0 1.026503,0.146969 2.053105,1.418002 1.0266,1.27103 1.280812,1.671796 2.444295,2.053104 1.16348,0.381307 0.254351,1.046036 0.645439,1.925981 0.391082,0.879942 1.42747,0.880149 2.444295,1.27124 1.016825,0.391084 0.899355,1.026394 1.798857,1.417485 0.899498,0.391085 -0.01933,1.48e-4 1.153934,0.645438 1.173261,0.645295 5.051888,-2.053621 5.051888,-2.053621 l -1.317232,1.799373 c 0,0 -0.508124,0.518063 -1.153418,1.925981 -0.645293,1.407908 0.117371,2.698729 0.254248,3.59823 0.13688,0.899497 -0.254248,2.316654 -0.254248,2.316654 0,0 0.742757,1.016788 1.270724,2.190047 0.527966,1.17326 0.645154,2.835486 1.798856,2.835486 1.153702,0 1.789243,2.444481 2.571419,3.343982 0.782175,0.899495 1.681677,0.381353 2.444296,0.254248 0.762618,-0.127103 1.623101,2.933154 2.952791,2.444295 2.053206,-0.762618 2.043623,-0.127059 3.588411,0.254248 1.544792,0.381307 1.731781,-1.022304 2.367298,-1.667598 0.635513,-0.645293 2.140188,0.758012 3.548104,0.249597 1.407907,-0.508413 0.794452,-2.058275 1.693953,-2.302702 0.899494,-0.244427 1.222148,-0.521599 1.222148,-1.421102 0,-0.899497 -0.588811,-9.109405 0.290421,-7.95972 0.715568,0.935673 1.461417,0.584597 1.418001,0.782381 0,0 5.17e-4,-0.02879 5.17e-4,-0.02894 0.173029,0.08605 0.436584,0.05486 1.065051,-0.841292 1.045397,-1.490671 0.300259,7.074167 0.300241,7.973673 -2.1e-5,0.899501 0.196559,1.302246 1.096057,1.546676 0.899494,0.244425 0.455023,1.56588 1.862935,2.074292 1.40791,0.50841 3.0454,-0.55641 3.680912,0.08888 0.635521,0.645292 0.637505,1.799302 2.182296,1.418001 1.544787,-0.381313 1.581717,-1.378044 3.63492,-0.605647 1.329696,0.488861 2.153005,-2.335236 2.925403,-2.208134 0.77239,0.127102 1.662121,0.760484 2.444295,-0.13901 0.782166,-0.899501 1.417674,-3.3538 2.561601,-3.3538 1.14393,0 1.270889,-1.66171 1.798857,-2.834969 0.527968,-1.173261 1.29036,-2.190048 1.29036,-2.190048 0,0 -0.390617,-1.418189 -0.253731,-2.317688 0.136877,-0.899501 0.899017,-2.189803 0.253731,-3.597713 -0.645296,-1.40791 -1.153418,-1.926497 -1.153418,-1.926497 l -1.223181,-1.626257 c 0,0 3.815068,2.423476 4.988326,1.778186 1.173258,-0.645295 0.243585,-0.112756 1.143083,-0.503846 0.899504,-0.391083 0.782028,-1.026395 1.798856,-1.417484 1.016825,-0.391084 2.053206,-0.390777 2.444296,-1.270724 0.391092,-0.879945 -0.518042,-1.545187 0.645438,-1.926497 1.163492,-0.381316 1.417701,-0.782076 2.444295,-2.053105 1.0266,-1.271031 1.662021,-1.418001 2.053105,-1.418001 0.391085,0 1.154196,-2.053105 2.317688,-2.053105 1.163477,0 1.925614,-0.78187 2.570903,-1.026294 0.645287,-0.244431 2.698597,-1.544752 2.835487,-2.190047 0.13687,-0.645293 0.51831,-1.545125 0.51831,-1.545125 0,0 -0.6453,-1.27093 0,-2.053105 0.64529,-0.782173 -0.78231,-2.444402 -0.64544,-2.835485 0.13689,-0.391087 -0.899292,-0.781866 -1.41748,-1.026294 -0.485803,-0.229152 -5.715176,-2.065087 -17.17828,-1.971456 z m 9.982337,1.310514 c 0.07084,8e-4 0.142657,0.0023 0.214457,0.0047 0.574408,0.01833 1.144116,0.07958 1.144116,0.07958 0,0 0.645481,4.1e-5 0.899687,0.254248 0.254205,0.254204 -1.075441,0.557424 -1.329635,0.518314 v 0.0093 c -0.254217,-0.03911 -1.926334,-0.342512 -1.887223,-0.684713 0.01712,-0.14971 0.462697,-0.186684 0.958598,-0.181384 z m -74.301408,0.08372 c 0.495254,-0.0061 0.941341,0.03204 0.962732,0.186035 0.04888,0.351979 -1.63302,0.645603 -1.887223,0.684713 -0.25421,0.03911 -1.584355,-0.254847 -1.330152,-0.518832 v -0.0093 c 0.254211,-0.254201 0.899687,-0.254248 0.899687,-0.254248 0,0 0.567313,-0.06364 1.140499,-0.0832 0.07165,-0.0025 0.143707,-0.0043 0.214457,-0.0052 z m 79.187414,0.463021 c 0.0098,-6.01e-4 0.02015,1.34e-4 0.03204,0.001 0.33311,0.02807 1.456242,0.611849 1.456242,0.611849 0.391091,0.342195 0.127309,0.781946 -0.684196,0.557072 v 0.0098 c -0.811501,-0.215099 -0.938623,-0.97743 -0.860413,-1.153418 0.0073,-0.01651 0.02703,-0.02485 0.05633,-0.02635 z m -84.092024,0.07338 c 0.04758,-0.0027 0.07908,0.0066 0.08888,0.03101 0.07822,0.195544 -0.03965,0.948096 -0.860929,1.153418 -0.821273,0.205318 -1.075285,-0.214877 -0.684196,-0.557072 v -0.0098 c 0,0 1.123131,-0.598814 1.456242,-0.617534 z m 58.039351,0.832508 c 0.01164,-2.45e-4 0.01809,0 0.01809,0 0.422872,0.172998 -0.07528,0.662248 -0.0925,0.679028 -0.0078,-0.0079 -0.163756,-0.167257 -0.249597,-0.42478 -0.077,-0.230973 0.242882,-0.252448 0.324011,-0.254248 z m -31.992362,0.09819 h 0.0098 c 0,0 0.430098,4e-5 0.342098,0.254248 -0.08799,0.254206 -0.253731,0.429948 -0.253731,0.429948 0,0 -0.518606,-0.517992 -0.09819,-0.684196 z m 61.117199,0.390674 c 0,0 0.215073,0.518628 -0.127124,0.469738 -0.342196,-0.04888 -0.127079,-0.391519 0.127124,-0.469738 z m -90.1944935,0.07803 c 0.2542031,0.09777 0.4693245,0.430629 0.127124,0.469739 -0.3421983,0.03911 -0.127124,-0.469739 -0.127124,-0.469739 z M 31.499371,24.40789 c 0.05458,0.005 0.105174,0.01502 0.151412,0.03152 1.044075,0.372562 1.390928,2.08992 1.492415,2.339392 1.181808,-0.854266 2.871702,-1.686859 4.463294,1.942517 1.59159,3.629376 1.580602,3.459153 2.336808,3.68298 0.732698,0.216868 1.176636,-0.0911 2.231905,-0.752409 -1.315605,1.976424 -2.822851,2.766349 -4.016809,2.167309 -1.102679,-0.553244 -2.060682,-3.874426 -2.736267,-4.874121 -1.161195,-1.718266 -2.365228,-1.389752 -3.713468,-0.147277 -0.14383,-1.441167 -0.939521,-2.729832 -1.485181,-2.949691 -0.54566,-0.219851 -3.734431,2.389523 -5.43326,1.574581 -0.741244,-0.35558 -0.797884,-1.662948 -0.797884,-1.662948 l 1.019059,-1.277441 c -0.06621,1.388942 0.844755,1.416938 1.276408,1.570447 0.278513,0.0992 0.778951,0.151987 1.784387,-0.224276 0.907342,-0.339555 2.608482,-1.494959 3.427181,-1.420585 z m 46.609041,0.04237 c 0.818699,-0.07437 2.51984,1.081549 3.427181,1.421102 1.005433,0.376264 1.50536,0.323474 1.783871,0.224276 0.431652,-0.153509 1.48886,-0.199592 1.422652,-1.588534 l 0.873332,1.295012 c 0,0 -0.05716,1.307885 -0.798401,1.663464 -1.698828,0.814942 -4.887084,-1.79443 -5.432744,-1.574581 -0.545661,0.219859 -1.341351,1.508526 -1.48518,2.949691 -1.348237,-1.242473 -2.552792,-1.571504 -3.713985,0.146761 -0.675585,0.999693 -1.63307,4.321395 -2.735751,4.874638 -1.193954,0.599041 -2.701203,-0.190887 -4.016809,-2.16731 1.055271,0.661311 1.499208,0.969277 2.231905,0.752409 0.756204,-0.223825 0.74522,-0.05412 2.336809,-3.683496 1.591587,-3.629372 3.281486,-2.796782 4.463293,-1.942517 0.101485,-0.249473 0.448341,-1.966315 1.492415,-2.338875 0.04624,-0.0165 0.09683,-0.02708 0.151412,-0.03204 z m 19.647896,0.354501 c 0.01089,0 0.02249,8.67e-4 0.03462,0.0021 0.307976,0.03025 0.957047,0.33848 0.957047,0.33848 0,0 0.557313,0.342099 0.127124,0.586528 -0.425477,0.241748 -1.18319,-0.538134 -1.23765,-0.848527 -0.0013,-0.05594 0.04278,-0.07975 0.118855,-0.07855 z m -85.902249,0.09353 c 0.08106,-0.0012 0.129521,0.02362 0.120923,0.08992 -0.03911,0.303096 -0.811592,1.115133 -1.241785,0.860929 V 25.8295 c -0.430198,-0.254206 0.127641,-0.586527 0.127641,-0.586527 0,0 0.648552,-0.313735 0.95653,-0.342615 0.01284,-0.0012 0.0251,-0.0019 0.03669,-0.0021 z m 88.620431,0.28267 c 0.0116,0.0086 0.17001,0.127888 0.17001,0.33538 0,0.212739 -0.33292,-0.156965 -0.17001,-0.33538 z m -91.3246584,0.09095 c 0.175988,0.175987 -0.1663982,0.557197 -0.1663982,0.342098 h -0.0093 c 0,-0.215096 0.1756999,-0.342098 0.1756999,-0.342098 z m 88.6896764,2.184362 c 0.02396,-5.99e-4 0.04901,9.18e-4 0.0739,0.0036 0.192502,0.02127 0.391394,0.127992 0.405143,0.135392 -0.005,0.285578 0.103708,0.561085 0.302307,0.766362 -0.03911,0.430188 -0.899702,0.293396 -1.026811,-0.469222 -0.0556,-0.333649 0.07774,-0.431133 0.245464,-0.435633 z m -86.080534,0.04909 c 0.167725,0.0046 0.301072,0.102504 0.245463,0.436149 v 0.01912 c -0.127109,0.782174 -0.977414,0.899937 -1.026294,0.469739 -0.04889,-0.430194 0.293006,-0.782381 0.293006,-0.782381 0,0 0.215234,-0.117536 0.414445,-0.139526 0.0249,-0.0027 0.04941,-0.0037 0.07338,-0.0031 z m 19.257739,0.996322 c 0.203891,0.492744 -5.429421,3.320165 -4.849316,4.526338 0.28427,0.591057 1.1421,0.800875 1.886706,0.668693 1.241083,-0.220316 4.673552,-1.689355 4.402832,-1.385962 -1.041549,1.167263 -3.591396,2.048738 -5.47305,2.631364 -1.341572,0.389995 -2.193886,0.04925 -2.52181,-0.548803 -0.325457,-0.593547 0.357962,-1.610664 1.999361,-2.914034 1.641392,-1.303369 1.740082,-1.330917 4.555277,-2.977596 z m 47.574357,0.04289 c 2.815192,1.646677 2.91337,1.67423 4.554761,2.977596 1.641397,1.303372 2.324817,2.320488 1.999361,2.914034 -0.327925,0.598054 -1.179723,0.938797 -2.521293,0.548804 -1.881655,-0.582624 -4.431503,-1.4641 -5.473051,-2.631364 -0.27072,-0.303394 3.161748,1.165645 4.402832,1.385962 0.744606,0.132182 1.602437,-0.07764 1.886707,-0.668693 0.580106,-1.206174 -5.053208,-4.033594 -4.849317,-4.526339 z m 17.39067,1.378211 c 0.274497,-0.006 0.702374,0.0482 0.869197,0.413928 0.254208,0.557301 -0.899434,0.899247 -1.329634,0.429948 -0.430194,-0.469304 0.214974,-0.81132 0.214974,-0.81132 v -0.0098 c 0,0 0.05386,-0.01015 0.138493,-0.01705 0.03174,-0.0025 0.06776,-0.0048 0.10697,-0.0057 z m -82.445613,0.06821 c 0.06305,-8.99e-4 0.120336,0.0018 0.167948,0.0057 0.08463,0.0069 0.138493,0.01757 0.138493,0.01757 0,0 0.645167,0.342014 0.214974,0.81132 v 0.0098 c -0.430198,0.469305 -1.583323,0.127353 -1.329118,-0.429948 0.154906,-0.3396 0.534529,-0.410745 0.807703,-0.414445 z m 79.90985,1.70894 c 0.143144,1.01e-4 0.237195,0.0057 0.237195,0.0057 0,0 0.03935,0.557258 -0.429948,0.72347 -0.469307,0.166211 -0.430212,0.293436 -0.860412,0.518315 -0.430196,0.224875 -0.469205,-0.293646 -0.342098,-0.811837 0.09532,-0.38864 0.965834,-0.436231 1.395263,-0.435632 z m -77.294506,0.06718 c 0.42714,-0.0027 1.294152,0.04121 1.396814,0.437183 0.136879,0.527966 0.09736,1.026417 -0.342615,0.81132 l 0.0098,0.0098 C 16.785295,32.810347 16.824383,32.683636 16.355076,32.507646 15.885762,32.331658 15.91531,31.77384 15.91531,31.77384 c 0,0 0.09378,-0.0058 0.236161,-0.0067 z m 59.108536,0.63562 c 0.191324,-0.0061 1.714468,1.086329 1.78077,1.278475 0.06643,0.192488 -0.755284,0.81346 -0.699182,2.101681 0.0561,1.288226 0.874882,3.069063 0.874882,3.069063 -0.948992,-0.07372 -3.814636,-3.874547 -1.95647,-6.449219 z m -40.912231,0.03669 c 1.858166,2.574673 -1.007474,6.375495 -1.95647,6.449218 0,0 0.818782,-1.781352 0.874882,-3.06958 0.0561,-1.288222 -0.765613,-1.908675 -0.699182,-2.101163 0.0663,-0.192148 1.589447,-1.284574 1.78077,-1.278475 z m 55.610042,1.387512 c 0,0 0.469533,0.293422 0.176217,0.391191 -0.293317,0.09777 -0.556969,0.899915 -0.89917,1.075903 -0.342194,0.175988 -0.293209,-0.03943 -0.342098,-0.684713 h -0.0098 c -0.03911,-0.645292 0.937996,-0.782381 1.07487,-0.782381 z m -70.298034,0.107487 c 0.127109,0 1.115012,0.127308 1.075903,0.782381 -0.03911,0.655073 1.03e-4,0.860187 -0.342098,0.684196 h -0.0098 c -0.342201,-0.16621 -0.58682,-0.977099 -0.899687,-1.07487 -0.31287,-0.09777 0.1757,-0.391707 0.1757,-0.391707 z m 67.26101,3.21324 c 0.32654,-0.0077 0.763569,0.101286 0.846977,0.101286 l -0.293005,0.557589 c 0,0 -0.586815,0.4692 -0.899687,1.075387 -0.312865,0.606179 -0.430113,-0.09792 -0.469222,-0.645439 l -0.0093,-0.0098 c -0.03911,-0.557297 0.341606,-0.645129 0.468705,-0.938444 0.03178,-0.07333 0.114989,-0.112306 0.223759,-0.129707 0.04079,-0.0065 0.08513,-0.0097 0.131775,-0.01085 z m -64.271012,0.07751 c 0.192078,-0.0017 0.355417,0.03159 0.403076,0.141594 0.127109,0.293319 0.518114,0.390922 0.469222,0.938444 -0.04889,0.547517 -0.166125,1.241842 -0.469222,0.645438 l -0.0098,0.0098 c -0.293335,-0.5866 -0.899705,-1.075873 -0.899705,-1.075873 l -0.293522,-0.557072 c 0.06355,0 0.332642,-0.06353 0.601514,-0.09043 0.06722,-0.0067 0.134407,-0.01129 0.198437,-0.01189 z m 39.244116,0.329696 c 0.167979,0.0018 0.337237,0.01824 0.505396,0.04961 1.266831,0.236287 4.087605,1.095541 4.087605,1.095541 -3.77422,-0.03341 -4.173412,0.07911 -4.455542,0.482657 -0.166612,0.238339 0.07606,0.565099 1.082622,0.733289 1.095842,0.183113 3.373437,0.403593 3.373437,0.403593 2.185276,0.132776 3.724629,0.141486 4.186308,1.141532 0.301618,0.65334 -0.321619,1.23112 -0.594796,1.592668 -1.154386,1.313455 -2.82155,2.02186 -3.894852,2.543514 -0.403839,0.196274 -1.589051,0.56689 -1.589051,0.56689 3.481973,-0.195936 5.993856,0.898022 7.467245,2.157491 1.666445,1.576998 0.929486,3.456788 -2.484603,4.614189 -2.016497,0.683606 -3.016526,1.005242 -6.024439,0.728121 -1.77169,-0.0977 -2.050938,-0.03969 -2.068607,0.109037 -0.02486,0.20941 1.967442,0.729321 2.511474,0.889868 1.384019,0.408436 5.012026,1.233134 5.030184,1.237134 0,0 -1.043264,0.07555 -2.385384,-0.04548 -0.543529,-0.04901 -2.60678,-0.256376 -4.149617,-0.602547 0,0 -1.881313,-0.411736 -2.887679,-0.791166 -1.052998,-0.397017 -1.626205,-0.733839 -1.884123,-1.211296 0.01126,-0.09783 -0.07942,-0.444806 0.406177,-0.65319 0.477762,-0.205022 0.98508,-0.31679 1.5906,-0.380339 0.148115,-0.01555 0.305206,-0.07179 0.463021,-0.03876 0.759947,0.159059 1.701619,0.500095 2.455147,-0.0615 0.106049,-0.07903 0.268337,-0.004 0.407727,-0.0062 0.197265,-0.0032 0.401485,-0.0068 0.613917,-0.01137 3.159506,-0.111071 4.21088,-0.652009 4.770768,-1.087789 0.536888,-0.44208 0.266989,-1.665139 -2.033468,-2.742468 -1.15881,-0.573687 -5.701461,-1.632459 -5.701461,-1.632459 1.52989,-0.773678 4.382277,-2.134054 4.968689,-2.427758 0.514314,-0.257585 1.337778,-0.645404 1.516187,-1.114661 0.202282,-0.450502 -0.477984,-0.838682 -0.857829,-0.949813 -1.223308,-0.361011 -2.949967,-0.585109 -4.521688,-0.610298 -0.790027,-0.01264 -0.91829,-0.0646 -0.91829,-0.0646 -1.09009,-0.185004 -1.807934,-0.948022 -1.508952,-2.156458 0.234866,-1.079308 1.348025,-1.769496 2.523877,-1.756998 z m -14.131437,0.04496 c 1.175852,-0.0125 2.289016,0.67769 2.523877,1.756999 0.298989,1.208435 -0.418859,1.971454 -1.508952,2.156457 0,0 -0.128257,0.05196 -0.91829,0.0646 -1.571716,0.02519 -3.298375,0.249285 -4.521688,0.610299 -0.379843,0.111131 -1.060109,0.499313 -0.857829,0.949812 0.178409,0.469257 1.001864,0.857079 1.516187,1.114661 0.58641,0.29371 3.438804,1.654078 4.968689,2.427759 0,0 -4.542648,1.058769 -5.701461,1.632458 -2.300455,1.077329 -2.570359,2.300388 -2.033467,2.742469 0.559883,0.435779 1.610746,0.976722 4.770251,1.087789 0.138006,0.003 0.273099,0.0054 0.404626,0.0078 0.154604,0.0027 0.325157,-0.0676 0.450619,0.0072 1.433101,0.854791 1.838337,0.187978 2.407605,0.05168 0.198261,-0.04746 0.396169,0.02391 0.579809,0.04134 0.649046,0.06165 1.184528,0.174207 1.687753,0.390157 0.485589,0.208384 0.394918,0.555362 0.406176,0.65319 -0.257915,0.47746 -0.830606,0.814282 -1.883605,1.211296 -1.006364,0.379431 -2.887679,0.791166 -2.887679,0.791166 -1.54284,0.346174 -3.606089,0.553539 -4.149618,0.602547 -1.342125,0.121022 -2.385384,0.04599 -2.385384,0.04599 v -5.16e-4 c 0.01816,-0.004 3.646168,-0.828696 5.030184,-1.237134 0.544028,-0.160547 2.536336,-0.680461 2.511474,-0.889868 -0.01766,-0.148728 -0.296917,-0.206739 -2.068607,-0.109038 -3.007911,0.277121 -4.007942,-0.04451 -6.024439,-0.728121 -3.414091,-1.157401 -4.15105,-3.037193 -2.484602,-4.614188 1.524767,-1.224142 3.985269,-2.353423 7.467244,-2.157491 0,0 -1.185214,-0.370616 -1.58905,-0.566891 -1.073301,-0.521654 -2.740469,-1.230058 -3.894853,-2.543514 -0.273176,-0.36155 -0.896409,-0.939325 -0.594796,-1.592667 0.461679,-1.000046 2.001032,-1.008756 4.186308,-1.141533 0,0 2.2776,-0.220482 3.373438,-0.403593 1.006571,-0.168189 1.249236,-0.49495 1.082621,-0.733288 -0.282125,-0.403549 -0.638947,-0.504699 -4.413168,-0.471289 0,0 2.778396,-0.870623 4.045232,-1.106909 0.168156,-0.03137 0.337416,-0.04782 0.505395,-0.04961 z m 36.037077,2.725415 c 0.02566,-2.99e-4 0.05104,9.17e-4 0.07545,0.0036 0.292857,0.033 0.49041,0.264066 0.49041,0.264066 0,0 -0.126896,0.391269 -0.684196,0.899687 -0.557295,0.508408 -0.684196,-0.254331 -0.684196,-0.518315 v -0.0098 c 0,-0.25421 0.09754,-0.390987 0.557072,-0.586528 0.08616,-0.03665 0.168482,-0.05181 0.245463,-0.05271 z m -58.071391,0.05116 c 0.08825,-0.0035 0.184657,0.01288 0.287321,0.05994 0.469298,0.215096 0.557589,0.342097 0.557589,0.586527 0,0.244433 -0.127937,1.026733 -0.68523,0.518315 v 0.0098 c -0.557297,-0.518191 -0.684196,-0.89917 -0.684196,-0.89917 0,0 0.19256,-0.242086 0.486792,-0.272334 0.01226,-0.0012 0.02511,-0.0025 0.03772,-0.0031 z m 56.408443,1.233516 c 0,0 0.644922,0.214872 0.644922,0.557072 0,0.342201 -0.645313,0.293814 -0.860413,-0.126607 -0.215096,-0.420452 0.215491,-0.430465 0.215491,-0.430465 z m -54.703637,0.06821 c 0,0 0.43007,2.71e-4 0.214974,0.430465 -0.215097,0.430196 -0.860413,0.468803 -0.860413,0.126607 0,-0.342203 0.645439,-0.557072 0.645439,-0.557072 z m 51.496081,4.614706 c 0.73329,0.518188 -0.292717,1.466577 -0.468705,1.466577 -0.175991,0 -0.09767,-0.684093 -0.09767,-1.026294 l 0.0098,-0.0098 c 0,-0.342196 0.556555,-0.430464 0.556555,-0.430464 z m -48.289042,0.04961 c 0,0 0.557589,0.09753 0.557589,0.429948 0,0.332423 0.09736,1.026294 -0.09819,1.026294 l 0.0098,0.0098 c -0.166213,0 -1.20251,-0.938093 -0.469222,-1.46606 z m 47.488057,3.849377 c 0.479428,-0.0096 0.03902,0.416346 -0.264066,1.117245 -0.312875,0.72352 -0.684611,0.518089 -0.782381,0.09767 -0.09778,-0.420418 0.977718,-1.203027 0.977718,-1.203027 l 0.01964,-0.0093 c 0.01742,-0.0012 0.03363,-0.0023 0.04909,-0.0026 z m -46.697408,0.04909 c 0.01573,3e-4 0.0324,8.66e-4 0.05013,0.0021 0,0 1.075496,0.782095 0.977718,1.202511 l 0.01964,0.0098 c -0.09777,0.430191 -0.469521,0.645393 -0.782381,-0.09767 -0.303097,-0.719844 -0.752822,-1.127507 -0.265101,-1.116728 z m 43.853137,4.405933 c 0.226756,-9.4e-4 0.448552,0.132808 0.448552,0.132808 -0.254206,1.4959 -0.938525,1.241248 -1.202511,1.114144 -0.263983,-0.127104 0.127002,-0.390929 0.342098,-0.938444 v -0.0098 c 0.08066,-0.208983 0.221447,-0.28426 0.366386,-0.297139 0.0151,-0.0012 0.03035,-0.0015 0.04547,-0.0016 z m -40.99853,0.05994 c 0.01511,3e-4 0.03037,0.0011 0.04547,0.0026 0.144939,0.01432 0.286243,0.09224 0.366903,0.304891 0.215103,0.567071 0.586528,0.811857 0.342098,0.938961 -0.254206,0.127104 -0.938533,0.390497 -1.202511,-1.115178 0,0 0.221329,-0.133741 0.448035,-0.130741 z m 37.593054,2.422094 c 0.395266,0.0063 0.676444,0.378788 0.676444,0.378788 0.293314,0.175986 0.0975,0.781966 -0.430465,0.684196 -0.527966,-0.09777 -0.21528,-0.03883 -0.899686,0.430465 -0.684392,0.469307 -0.586238,-0.215103 -0.517798,-0.733289 l 0.0098,0.0098 c 0.09777,-0.518189 0.430553,-0.557301 0.938961,-0.733289 0.06355,-0.02199 0.125135,-0.03347 0.184485,-0.03617 0.01298,-7.16e-4 0.02548,-7.18e-4 0.03824,-5.16e-4 z m -34.196879,0.06873 c 0.01274,0 0.02579,-8.2e-5 0.03876,5.17e-4 0.05935,0.0027 0.120417,0.01364 0.183968,0.03566 0.508401,0.17599 0.860224,0.2151 0.938444,0.733288 0.07822,0.518192 0.176379,1.202586 -0.517798,0.733289 l 0.0098,-0.0098 C 37.6502,58.221262 37.943321,58.172111 37.43491,58.260102 c -0.508416,0.08799 -0.723776,-0.517986 -0.430465,-0.684196 0,0 0.281671,-0.372072 0.676962,-0.378272 z m 20.037019,0.397909 c 0.389784,-0.0021 0.693385,0.572981 0.727605,0.684196 0,0 -0.166135,0.293748 -0.469222,0.469739 -0.303092,0.175983 -0.391276,-0.293728 -0.899687,-0.587045 -0.508413,-0.293314 4.34e-4,-0.293445 0.469739,-0.518314 v -0.0093 c 0.05866,-0.02692 0.115878,-0.03899 0.171565,-0.03927 z m -5.838403,0.04858 c 0.05568,2.9e-4 0.112906,0.0124 0.171566,0.03927 0.469307,0.215092 0.97815,0.215227 0.469739,0.518314 v 0.0098 c -0.518189,0.293307 -0.586817,0.782071 -0.899687,0.586527 -0.312865,-0.195541 -0.469222,-0.469222 -0.469222,-0.469222 0.03422,-0.111217 0.337816,-0.686812 0.727604,-0.684712 z m 10.169405,1.26969 c 0.367108,6.9e-4 0.849244,0.210617 1.089856,0.265617 0.518191,0.127096 0.09767,0.557504 0.09767,0.782381 0,0.224872 -0.253717,0.09761 -0.859896,-0.03927 -0.606182,-0.13688 -0.470028,0.09788 -1.027328,-0.09767 -0.557295,-0.195541 0.03901,-0.430403 0.342098,-0.782381 l -0.01912,0.0098 c 0.07333,-0.08555 0.180385,-0.125142 0.304891,-0.135392 0.02335,-0.0018 0.04736,-0.0026 0.07183,-0.0026 z m -14.48077,0.06511 c 0.0247,2.01e-4 0.04868,0.0015 0.07235,0.0036 0.126189,0.01177 0.235973,0.05294 0.314193,0.138493 0.312858,0.342203 0.899388,0.586323 0.342098,0.781865 l -0.01912,-0.0098 c -0.55729,0.17599 -0.430405,-0.0387 -1.026811,0.09819 -0.596408,0.13688 -0.860412,0.253854 -0.860412,0.03876 0,-0.2151 -0.430298,-0.645497 0.09767,-0.782382 0.233732,-0.06875 0.709579,-0.272518 1.080037,-0.268717 z m 19.492351,0.05271 c 0.01748,-3.02e-4 0.03479,2.67e-4 0.05219,0.0021 0.487504,0.04679 0.944128,0.810286 0.944128,0.810286 0.127104,0.645288 -0.733366,0.0395 -1.241784,0.215491 -0.508404,0.175986 -0.341996,-1.23e-4 -0.684196,-0.518314 -0.342203,-0.518194 0.214791,-0.254126 0.781864,-0.469222 l -0.0098,-0.0098 c 0.05225,-0.02017 0.105173,-0.02989 0.157614,-0.03049 z m -24.564392,0.05374 c 0.05304,-5.7e-4 0.106511,0.0074 0.15968,0.02584 0.567073,0.195543 1.114287,-0.03919 0.781864,0.469222 l -0.0098,0.0098 c -0.342203,0.518189 -0.16601,0.684006 -0.684196,0.517798 -0.518189,-0.166215 -1.368886,0.430833 -1.241785,-0.214457 0,0 0.448849,-0.748464 0.941028,-0.804602 0.01758,-0.0021 0.03556,-0.0034 0.05323,-0.0036 z" />
  <path
     id="path241"
     style="font-variation-settings:normal;vector-effect:none;fill:url(#linearGradient244);fill-opacity:1;stroke:none;stroke-width:0.0403738;stroke-linecap:butt;stroke-linejoin:miter;stroke-miterlimit:4;stroke-dasharray:none;stroke-dashoffset:0;stroke-opacity:1;-inkscape-stroke:none;stop-color:#000000"
     d="m 81.96089,20.700098 c -0.764206,0.0062 -1.556023,0.02103 -2.376082,0.04547 -13.120948,0.391085 -21.861715,6.159831 -21.861715,6.159831 l -1.545125,-1.271757 -2.737301,0.07855 -1.545125,1.27124 c 0,0 -8.740813,-5.768743 -21.871533,-6.159831 -13.130726,-0.391082 -18.996898,1.661918 -19.515088,1.906347 -0.5181848,0.244427 -1.5548803,0.63572 -1.4180006,1.026811 0.1368828,0.391085 -1.2902157,2.053312 -0.6449218,2.835485 0.6452907,0.782172 0,2.053105 0,2.053105 0,0 0.3809179,0.899314 0.5177978,1.544609 0.1368768,0.64529 2.1901906,1.945617 2.8354856,2.190047 0.64529,0.244427 1.407936,1.026811 2.571419,1.026811 1.163483,0 1.926083,2.053104 2.317171,2.053104 0.391082,0 1.026503,0.146969 2.053105,1.418002 1.0266,1.27103 1.280812,1.671796 2.444295,2.053104 1.16348,0.381307 0.254351,1.046036 0.645439,1.925981 0.391082,0.879942 1.42747,0.880149 2.444295,1.27124 1.016825,0.391084 0.899355,1.026394 1.798857,1.417485 0.899498,0.391085 -0.01933,1.48e-4 1.153934,0.645438 1.173261,0.645295 5.051888,-2.053621 5.051888,-2.053621 l -1.317232,1.799373 c 0,0 -0.508124,0.518063 -1.153418,1.925981 -0.645293,1.407908 0.117371,2.698729 0.254248,3.59823 0.13688,0.899497 -0.254248,2.316654 -0.254248,2.316654 0,0 0.742757,1.016788 1.270724,2.190047 0.527966,1.17326 0.645154,2.83549 1.798856,2.83549 1.153702,0 1.789243,2.444475 2.571419,3.343979 0.782175,0.899497 1.681677,0.38135 2.444296,0.25425 0.762618,-0.12711 1.623101,2.933152 2.952791,2.444295 2.053206,-0.762624 2.043623,-0.12706 3.588411,0.25424 1.544792,0.381307 1.731781,-1.022304 2.367298,-1.667591 0.635513,-0.645297 2.140188,0.758014 3.548104,0.249597 1.407907,-0.508417 0.794452,-2.058278 1.693953,-2.302705 0.899494,-0.24443 1.222148,-0.521597 1.222148,-1.421104 0,-0.899494 -0.588811,-9.109402 0.290421,-7.959717 0.715568,0.935673 1.461417,0.584597 1.418001,0.782381 0,0 5.17e-4,-0.02879 5.17e-4,-0.02894 0.173029,0.08605 0.436584,0.05486 1.065051,-0.841292 1.045397,-1.490671 0.300259,7.074164 0.300241,7.973671 -2.1e-5,0.899504 0.196559,1.302251 1.096057,1.546681 0.899494,0.244417 0.455023,1.565881 1.862935,2.074288 1.40791,0.508407 3.0454,-0.556407 3.680912,0.0889 0.635521,0.645294 0.637505,1.799298 2.182296,1.418001 1.544787,-0.381317 1.581717,-1.378041 3.63492,-0.605647 1.329696,0.488857 2.153005,-2.335238 2.925403,-2.208138 0.77239,0.12711 1.662121,0.760487 2.444295,-0.13901 0.782166,-0.899494 1.417674,-3.353799 2.561601,-3.353799 1.14393,0 1.270889,-1.661706 1.798857,-2.834965 0.527968,-1.173261 1.29036,-2.190048 1.29036,-2.190048 0,0 -0.390617,-1.418189 -0.253731,-2.317688 0.136877,-0.899501 0.899017,-2.189803 0.253731,-3.597713 -0.645296,-1.40791 -1.153418,-1.926497 -1.153418,-1.926497 l -1.223181,-1.626257 c 0,0 3.815068,2.423476 4.988326,1.778186 1.173258,-0.645295 0.243585,-0.112756 1.143083,-0.503846 0.899504,-0.391083 0.782028,-1.026395 1.798856,-1.417484 1.016825,-0.391084 2.053206,-0.390777 2.444296,-1.270724 0.391092,-0.879945 -0.518042,-1.545187 0.645438,-1.926497 1.163492,-0.381316 1.417701,-0.782076 2.444295,-2.053105 1.0266,-1.271031 1.662021,-1.418001 2.053105,-1.418001 0.391085,0 1.154196,-2.053105 2.317688,-2.053105 1.163477,0 1.925614,-0.78187 2.570903,-1.026294 0.645287,-0.244431 2.698597,-1.544752 2.835487,-2.190047 0.13687,-0.645293 0.51831,-1.545125 0.51831,-1.545125 0,0 -0.6453,-1.27093 0,-2.053105 0.64529,-0.782173 -0.78231,-2.444402 -0.64544,-2.835485 0.13689,-0.391087 -0.899292,-0.781866 -1.41748,-1.026294 -0.485803,-0.229152 -5.715176,-2.065087 -17.17828,-1.971456 z m 9.982337,1.310514 c 0.07084,8e-4 0.142657,0.0023 0.214457,0.0047 0.574408,0.01833 1.144116,0.07958 1.144116,0.07958 0,0 0.645481,4.1e-5 0.899687,0.254248 0.254205,0.254204 -1.075441,0.557424 -1.329635,0.518314 v 0.0093 c -0.254217,-0.03911 -1.926334,-0.342512 -1.887223,-0.684713 0.01712,-0.14971 0.462697,-0.186684 0.958598,-0.181384 z m -74.301408,0.08372 c 0.495254,-0.0061 0.941341,0.03204 0.962732,0.186035 0.04888,0.351979 -1.63302,0.645603 -1.887223,0.684713 -0.25421,0.03911 -1.584355,-0.254847 -1.330152,-0.518832 v -0.0093 c 0.254211,-0.254201 0.899687,-0.254248 0.899687,-0.254248 0,0 0.567313,-0.06364 1.140499,-0.0832 0.07165,-0.0025 0.143707,-0.0043 0.214457,-0.0052 z m 79.187414,0.463021 c 0.0098,-6.01e-4 0.02015,1.34e-4 0.03204,0.001 0.33311,0.02807 1.456242,0.611849 1.456242,0.611849 0.391091,0.342195 0.127309,0.781946 -0.684196,0.557072 v 0.0098 c -0.811501,-0.215099 -0.938623,-0.97743 -0.860413,-1.153418 0.0073,-0.01651 0.02703,-0.02486 0.05633,-0.02636 z m -84.092024,0.07338 c 0.04758,-0.0027 0.07908,0.0066 0.08888,0.03101 0.07822,0.195544 -0.03965,0.948096 -0.860929,1.153418 -0.821273,0.205318 -1.075285,-0.214877 -0.684196,-0.557072 v -0.0098 c 0,0 1.123131,-0.598814 1.456242,-0.617534 z m 58.039351,0.832508 c 0.01164,-2.45e-4 0.01809,0 0.01809,0 0.422872,0.172998 -0.07528,0.662248 -0.0925,0.679028 -0.0078,-0.0079 -0.163756,-0.167257 -0.249597,-0.42478 -0.077,-0.230973 0.242882,-0.252448 0.324011,-0.254248 z m -31.992362,0.09819 h 0.0098 c 0,0 0.430098,4e-5 0.342098,0.254248 -0.08799,0.254206 -0.253731,0.429948 -0.253731,0.429948 0,0 -0.518606,-0.517992 -0.09819,-0.684196 z m 61.117199,0.390674 c 0,0 0.215073,0.518628 -0.127124,0.469738 -0.342196,-0.04888 -0.127079,-0.391519 0.127124,-0.469738 z m -90.1944935,0.07803 c 0.2542031,0.09777 0.4693245,0.430629 0.127124,0.469739 -0.3421983,0.03911 -0.127124,-0.469739 -0.127124,-0.469739 z M 31.499371,24.40789 c 0.05458,0.005 0.105174,0.01502 0.151412,0.03152 1.044075,0.372562 1.390928,2.08992 1.492415,2.339392 1.181808,-0.854266 2.871702,-1.686859 4.463294,1.942517 1.59159,3.629376 1.580602,3.459153 2.336808,3.68298 0.732698,0.216868 1.176636,-0.0911 2.231905,-0.752409 -1.315605,1.976424 -2.822851,2.766349 -4.016809,2.167309 -1.102679,-0.553244 -2.060682,-3.874426 -2.736267,-4.874121 -1.161195,-1.718266 -2.365228,-1.389752 -3.713468,-0.147277 -0.14383,-1.441167 -0.939521,-2.729832 -1.485181,-2.949691 -0.54566,-0.219851 -3.734431,2.389523 -5.43326,1.574581 -0.741244,-0.35558 -0.797884,-1.662948 -0.797884,-1.662948 l 1.019059,-1.277441 c -0.06621,1.388942 0.844755,1.416938 1.276408,1.570447 0.278513,0.0992 0.778951,0.151987 1.784387,-0.224276 0.907342,-0.339555 2.608482,-1.494959 3.427181,-1.420585 z m 46.609041,0.04237 c 0.818699,-0.07437 2.51984,1.081549 3.427181,1.421102 1.005433,0.376264 1.50536,0.323474 1.783871,0.224276 0.431652,-0.153509 1.48886,-0.199592 1.422652,-1.588534 l 0.873332,1.295012 c 0,0 -0.05716,1.307885 -0.798401,1.663464 -1.698828,0.814942 -4.887084,-1.79443 -5.432744,-1.574581 -0.545661,0.219859 -1.341351,1.508526 -1.48518,2.949691 -1.348237,-1.242473 -2.552792,-1.571504 -3.713985,0.146761 -0.675585,0.999693 -1.63307,4.321395 -2.735751,4.874638 -1.193954,0.599041 -2.701203,-0.190887 -4.016809,-2.16731 1.055271,0.661311 1.499208,0.969277 2.231905,0.752409 0.756204,-0.223825 0.74522,-0.05412 2.336809,-3.683496 1.591587,-3.629372 3.281486,-2.796782 4.463293,-1.942517 0.101485,-0.249473 0.448341,-1.966315 1.492415,-2.338875 0.04624,-0.0165 0.09683,-0.02708 0.151412,-0.03204 z m 19.647896,0.354501 c 0.01089,0 0.02249,8.67e-4 0.03462,0.0021 0.307976,0.03025 0.957047,0.33848 0.957047,0.33848 0,0 0.557313,0.342099 0.127124,0.586528 -0.425477,0.241748 -1.18319,-0.538134 -1.23765,-0.848527 -0.0013,-0.05594 0.04278,-0.07975 0.118855,-0.07855 z m -85.902249,0.09353 c 0.08106,-0.0012 0.129521,0.02362 0.120923,0.08992 -0.03911,0.303096 -0.811592,1.115133 -1.241785,0.860929 V 25.8295 c -0.430198,-0.254206 0.127641,-0.586527 0.127641,-0.586527 0,0 0.648552,-0.313735 0.95653,-0.342615 0.01284,-0.0012 0.0251,-0.0019 0.03669,-0.0021 z m 88.620431,0.28267 c 0.0116,0.0086 0.17001,0.127888 0.17001,0.33538 0,0.212739 -0.33292,-0.156965 -0.17001,-0.33538 z m -91.3246584,0.09095 c 0.175988,0.175987 -0.1663982,0.557197 -0.1663982,0.342098 h -0.0093 c 0,-0.215096 0.1756999,-0.342098 0.1756999,-0.342098 z m 88.6896764,2.184362 c 0.02396,-5.99e-4 0.04901,9.18e-4 0.0739,0.0036 0.192502,0.02127 0.391394,0.127992 0.405143,0.135392 -0.005,0.285578 0.103708,0.561085 0.302307,0.766362 -0.03911,0.430188 -0.899702,0.293396 -1.026811,-0.469222 -0.0556,-0.333649 0.07774,-0.431133 0.245464,-0.435633 z m -86.080534,0.04909 c 0.167725,0.0046 0.301072,0.102504 0.245463,0.436149 v 0.01912 c -0.127109,0.782174 -0.977414,0.899937 -1.026294,0.469739 -0.04889,-0.430194 0.293006,-0.782381 0.293006,-0.782381 0,0 0.215234,-0.117536 0.414445,-0.139526 0.0249,-0.0027 0.04941,-0.0037 0.07338,-0.0031 z m 19.257739,0.996322 c 0.203891,0.492744 -5.429421,3.320165 -4.849316,4.526338 0.28427,0.591057 1.1421,0.800875 1.886706,0.668693 1.241083,-0.220316 4.673552,-1.689355 4.402832,-1.385962 -1.041549,1.167263 -3.591396,2.048738 -5.47305,2.631364 -1.341572,0.389995 -2.193886,0.04925 -2.52181,-0.548803 -0.325457,-0.593547 0.357962,-1.610664 1.999361,-2.914034 1.641392,-1.303369 1.740082,-1.330917 4.555277,-2.977596 z m 47.574357,0.04289 c 2.815192,1.646677 2.91337,1.67423 4.554761,2.977596 1.641397,1.303372 2.324817,2.320488 1.999361,2.914034 -0.327925,0.598054 -1.179723,0.938797 -2.521293,0.548804 -1.881655,-0.582624 -4.431503,-1.4641 -5.473051,-2.631364 -0.27072,-0.303394 3.161748,1.165645 4.402832,1.385962 0.744606,0.132182 1.602437,-0.07764 1.886707,-0.668693 0.580106,-1.206174 -5.053208,-4.033594 -4.849317,-4.526339 z m 17.39067,1.378211 c 0.274497,-0.006 0.702374,0.0482 0.869197,0.413928 0.254208,0.557301 -0.899434,0.899247 -1.329634,0.429948 -0.430194,-0.469304 0.214974,-0.81132 0.214974,-0.81132 v -0.0098 c 0,0 0.05386,-0.01015 0.138493,-0.01705 0.03174,-0.0025 0.06776,-0.0048 0.10697,-0.0057 z m -82.445613,0.06821 c 0.06305,-8.99e-4 0.120336,0.0018 0.167948,0.0057 0.08463,0.0069 0.138493,0.01757 0.138493,0.01757 0,0 0.645167,0.342014 0.214974,0.81132 v 0.0098 c -0.430198,0.469305 -1.583323,0.127353 -1.329118,-0.429948 0.154906,-0.3396 0.534529,-0.410745 0.807703,-0.414445 z m 79.90985,1.70894 c 0.143144,1.01e-4 0.237195,0.0057 0.237195,0.0057 0,0 0.03935,0.557258 -0.429948,0.72347 -0.469307,0.166211 -0.430212,0.293436 -0.860412,0.518315 -0.430196,0.224875 -0.469205,-0.293646 -0.342098,-0.811837 0.09532,-0.38864 0.965834,-0.436231 1.395263,-0.435632 z m -77.294506,0.06718 c 0.42714,-0.0027 1.294152,0.04121 1.396814,0.437183 0.136879,0.527966 0.09736,1.026417 -0.342615,0.81132 l 0.0098,0.0098 c -0.430194,-0.215097 -0.391106,-0.341808 -0.860413,-0.517798 -0.469314,-0.175988 -0.439766,-0.733806 -0.439766,-0.733806 0,0 0.09378,-0.0058 0.236161,-0.0067 z m 59.108536,0.63562 c 0.191324,-0.0061 1.714468,1.086329 1.78077,1.278475 0.06643,0.192488 -0.755284,0.81346 -0.699182,2.101681 0.0561,1.288226 0.874882,3.069063 0.874882,3.069063 -0.948992,-0.07372 -3.814636,-3.874547 -1.95647,-6.449219 z m -40.912231,0.03669 c 1.858166,2.574673 -1.007474,6.375495 -1.95647,6.449218 0,0 0.818782,-1.781352 0.874882,-3.06958 0.0561,-1.288222 -0.765613,-1.908675 -0.699182,-2.101163 0.0663,-0.192148 1.589447,-1.284574 1.78077,-1.278475 z m 55.610042,1.387512 c 0,0 0.469533,0.293422 0.176217,0.391191 -0.293317,0.09777 -0.556969,0.899915 -0.89917,1.075903 -0.342194,0.175988 -0.293209,-0.03943 -0.342098,-0.684713 h -0.0098 c -0.03911,-0.645292 0.937996,-0.782381 1.07487,-0.782381 z m -70.298034,0.107487 c 0.127109,0 1.115012,0.127308 1.075903,0.782381 -0.03911,0.655073 1.03e-4,0.860187 -0.342098,0.684196 h -0.0098 c -0.342201,-0.16621 -0.58682,-0.977099 -0.899687,-1.07487 -0.31287,-0.09777 0.1757,-0.391707 0.1757,-0.391707 z m 67.26101,3.21324 c 0.32654,-0.0077 0.763569,0.101286 0.846977,0.101286 l -0.293005,0.557589 c 0,0 -0.586815,0.4692 -0.899687,1.075387 -0.312865,0.606179 -0.430113,-0.09792 -0.469222,-0.645439 l -0.0093,-0.0098 c -0.03911,-0.557297 0.341606,-0.645129 0.468705,-0.938444 0.03178,-0.07333 0.114989,-0.112306 0.223759,-0.129707 0.04079,-0.0065 0.08513,-0.0097 0.131775,-0.01085 z m -64.271012,0.07752 c 0.192078,-0.0017 0.355417,0.03159 0.403076,0.141594 0.127109,0.293319 0.518114,0.390922 0.469222,0.938444 -0.04889,0.547517 -0.166125,1.241842 -0.469222,0.645438 l -0.0098,0.0098 C 22.749741,38.37383 22.143371,37.884557 22.143371,37.884557 l -0.293522,-0.557072 c 0.06355,0 0.332642,-0.06353 0.601514,-0.09043 0.06722,-0.0067 0.134407,-0.01129 0.198437,-0.01189 z m 39.244116,0.329696 c 0.167979,0.0018 0.337237,0.01824 0.505396,0.04961 1.266831,0.236287 4.087605,1.095541 4.087605,1.095541 -3.77422,-0.03341 -4.173412,0.07911 -4.455542,0.482657 -0.166612,0.238339 0.07606,0.565099 1.082622,0.733289 1.095842,0.183113 3.373437,0.403593 3.373437,0.403593 2.185276,0.132776 3.724629,0.141486 4.186308,1.141532 0.301618,0.65334 -0.321619,1.23112 -0.594796,1.592668 -1.154386,1.313455 -2.82155,2.02186 -3.894852,2.543514 -0.403839,0.196274 -1.589051,0.56689 -1.589051,0.56689 3.481973,-0.195936 5.993856,0.898022 7.467245,2.157491 1.666445,1.576998 0.929486,3.456788 -2.484603,4.614189 -2.016497,0.683606 -3.016526,1.005242 -6.024439,0.728121 -1.77169,-0.0977 -2.050938,-0.03969 -2.068607,0.109037 -0.02486,0.20941 1.967442,0.729321 2.511474,0.889868 1.384019,0.408436 5.012026,1.233134 5.030184,1.237134 0,0 -1.043264,0.07555 -2.385384,-0.04547 -0.543529,-0.04901 -2.60678,-0.256376 -4.149617,-0.602547 0,0 -1.881313,-0.411736 -2.887679,-0.791166 -1.052998,-0.397017 -1.626205,-0.733839 -1.884123,-1.211296 0.01126,-0.09783 -0.07942,-0.444806 0.406177,-0.65319 0.477762,-0.205022 0.98508,-0.31679 1.5906,-0.380339 0.148115,-0.01555 0.305206,-0.07179 0.463021,-0.03876 0.759947,0.159059 1.701619,0.500095 2.455147,-0.0615 0.106049,-0.07903 0.268337,-0.004 0.407727,-0.0062 0.197265,-0.0032 0.401485,-0.0068 0.613917,-0.01137 3.159506,-0.111071 4.21088,-0.652009 4.770768,-1.087789 0.536888,-0.44208 0.266989,-1.665139 -2.033468,-2.742468 -1.15881,-0.573687 -5.701461,-1.632459 -5.701461,-1.632459 1.52989,-0.773678 4.382277,-2.134054 4.968689,-2.427758 0.514314,-0.257585 1.337778,-0.645404 1.516187,-1.114661 0.202282,-0.450502 -0.477984,-0.838682 -0.857829,-0.949813 -1.223308,-0.361011 -2.949967,-0.585109 -4.521688,-0.610298 -0.790027,-0.01264 -0.91829,-0.0646 -0.91829,-0.0646 -1.09009,-0.185004 -1.807934,-0.948022 -1.508952,-2.156458 0.234866,-1.079308 1.348025,-1.769496 2.523877,-1.756998 z m -14.131437,0.04496 c 1.175852,-0.0125 2.289016,0.67769 2.523877,1.756999 0.298989,1.208435 -0.418859,1.971454 -1.508952,2.156457 0,0 -0.128257,0.05196 -0.91829,0.0646 -1.571716,0.02519 -3.298375,0.249285 -4.521688,0.610299 -0.379843,0.111131 -1.060109,0.499313 -0.857829,0.949812 0.178409,0.469257 1.001864,0.857079 1.516187,1.114661 0.58641,0.29371 3.438804,1.654078 4.968689,2.427759 0,0 -4.542648,1.058769 -5.701461,1.632458 -2.300455,1.077329 -2.570359,2.300388 -2.033467,2.742469 0.559883,0.435779 1.610746,0.976722 4.770251,1.087789 0.138006,0.003 0.273099,0.0054 0.404626,0.0078 0.154604,0.0027 0.325157,-0.0676 0.450619,0.0072 1.433101,0.854791 1.838337,0.187978 2.407605,0.05168 0.198261,-0.04746 0.396169,0.02391 0.579809,0.04134 0.649046,0.06165 1.184528,0.174207 1.687753,0.390157 0.485589,0.208384 0.394918,0.555362 0.406176,0.65319 -0.257915,0.47746 -0.830606,0.814282 -1.883605,1.211296 -1.006364,0.379431 -2.887679,0.791166 -2.887679,0.791166 -1.54284,0.346174 -3.606089,0.553539 -4.149618,0.602547 -1.342125,0.121022 -2.385384,0.04599 -2.385384,0.04599 v -5.16e-4 c 0.01816,-0.004 3.646168,-0.828696 5.030184,-1.237134 0.544028,-0.160547 2.536336,-0.680461 2.511474,-0.889868 -0.01766,-0.148728 -0.296917,-0.206739 -2.068607,-0.109038 -3.007911,0.277121 -4.007942,-0.04451 -6.024439,-0.728121 -3.414091,-1.157401 -4.15105,-3.037193 -2.484602,-4.614188 1.524767,-1.224142 3.985269,-2.353423 7.467244,-2.157491 0,0 -1.185214,-0.370616 -1.58905,-0.566891 -1.073301,-0.521654 -2.740469,-1.230058 -3.894853,-2.543514 -0.273176,-0.36155 -0.896409,-0.939325 -0.594796,-1.592667 0.461679,-1.000046 2.001032,-1.008756 4.186308,-1.141533 0,0 2.2776,-0.220482 3.373438,-0.403593 1.006571,-0.168189 1.249236,-0.49495 1.082621,-0.733288 -0.282125,-0.403549 -0.638947,-0.504699 -4.413168,-0.471289 0,0 2.778396,-0.870623 4.045232,-1.106909 0.168156,-0.03137 0.337416,-0.04782 0.505395,-0.04961 z m 36.037077,2.725415 c 0.02566,-2.99e-4 0.05104,9.17e-4 0.07545,0.0036 0.292857,0.033 0.49041,0.264066 0.49041,0.264066 0,0 -0.126896,0.391269 -0.684196,0.899687 -0.557295,0.508408 -0.684196,-0.254331 -0.684196,-0.518315 v -0.0098 c 0,-0.25421 0.09754,-0.390987 0.557072,-0.586528 0.08616,-0.03665 0.168482,-0.05181 0.245463,-0.05271 z m -58.071391,0.05116 c 0.08825,-0.0035 0.184657,0.01288 0.287321,0.05994 0.469298,0.215096 0.557589,0.342097 0.557589,0.586527 0,0.244433 -0.127937,1.026733 -0.68523,0.518315 v 0.0098 c -0.557297,-0.518191 -0.684196,-0.89917 -0.684196,-0.89917 0,0 0.19256,-0.242086 0.486792,-0.272334 0.01226,-0.0012 0.02511,-0.0025 0.03772,-0.0031 z m 56.408443,1.233516 c 0,0 0.644922,0.214872 0.644922,0.557072 0,0.342201 -0.645313,0.293814 -0.860413,-0.126607 -0.215096,-0.420452 0.215491,-0.430465 0.215491,-0.430465 z m -54.703637,0.06821 c 0,0 0.43007,2.71e-4 0.214974,0.430465 -0.215097,0.430196 -0.860413,0.468803 -0.860413,0.126607 0,-0.342203 0.645439,-0.557072 0.645439,-0.557072 z m 51.496081,4.614706 c 0.73329,0.518188 -0.292717,1.466577 -0.468705,1.466577 -0.175991,0 -0.09767,-0.684093 -0.09767,-1.026294 l 0.0098,-0.0098 c 0,-0.342196 0.556555,-0.430464 0.556555,-0.430464 z m -48.289042,0.04961 c 0,0 0.557589,0.09752 0.557589,0.429948 0,0.332423 0.09736,1.026294 -0.09819,1.026294 l 0.0098,0.0098 c -0.166213,0 -1.20251,-0.938093 -0.469222,-1.46606 z m 47.488057,3.849377 c 0.479428,-0.0096 0.03902,0.416346 -0.264066,1.117245 -0.312875,0.72352 -0.684611,0.518089 -0.782381,0.09767 -0.09778,-0.420418 0.977718,-1.203027 0.977718,-1.203027 l 0.01964,-0.0093 c 0.01742,-0.0012 0.03363,-0.0023 0.04909,-0.0026 z m -46.697408,0.04909 c 0.01573,3e-4 0.0324,8.66e-4 0.05013,0.0021 0,0 1.075496,0.782095 0.977718,1.202511 l 0.01964,0.0098 c -0.09778,0.430181 -0.469527,0.645383 -0.782387,-0.09768 -0.303097,-0.719844 -0.752822,-1.127507 -0.265101,-1.116728 z m 43.853137,4.405933 c 0.226756,-9.4e-4 0.448552,0.132808 0.448552,0.132808 -0.254206,1.4959 -0.938525,1.241248 -1.202511,1.114144 -0.263983,-0.127104 0.127002,-0.390929 0.342098,-0.938444 v -0.0098 c 0.08066,-0.208983 0.221447,-0.28426 0.366386,-0.297139 0.0151,-0.0012 0.03035,-0.0015 0.04547,-0.0016 z m -40.99853,0.05994 c 0.01511,3e-4 0.03037,0.0011 0.04547,0.0026 0.144939,0.01432 0.286243,0.09224 0.366903,0.304891 0.215103,0.567071 0.586528,0.811857 0.342098,0.938961 -0.254206,0.127104 -0.938533,0.390497 -1.202511,-1.115178 0,0 0.221329,-0.133741 0.448035,-0.130741 z m 37.593054,2.422083 c 0.395266,0.006 0.676444,0.378787 0.676444,0.378787 0.293314,0.17599 0.0975,0.781967 -0.430465,0.684197 -0.527966,-0.0978 -0.21528,-0.0388 -0.899686,0.430467 -0.684392,0.469307 -0.586238,-0.215107 -0.517798,-0.733294 l 0.0098,0.01 c 0.09777,-0.518187 0.430553,-0.557297 0.938961,-0.733287 0.06355,-0.022 0.125135,-0.0335 0.184485,-0.0362 0.01298,-7.1e-4 0.02548,-7.2e-4 0.03824,-5.1e-4 z m -34.196879,0.0687 c 0.01274,0 0.02579,-8e-5 0.03876,5.2e-4 0.05935,0.003 0.120417,0.0136 0.183968,0.0357 0.508401,0.175987 0.860224,0.215097 0.938444,0.733284 0.07822,0.518197 0.176379,1.202584 -0.517798,0.733287 l 0.0098,-0.01 C 37.6502,58.221075 37.943321,58.171925 37.43491,58.259915 c -0.508416,0.088 -0.723776,-0.517987 -0.430465,-0.684197 0,0 0.281671,-0.372077 0.676962,-0.378277 z m 20.037019,0.397907 c 0.389784,-0.002 0.693385,0.572987 0.727605,0.684197 0,0 -0.166135,0.293747 -0.469222,0.469737 -0.303092,0.17599 -0.391276,-0.293727 -0.899687,-0.587037 -0.508413,-0.293317 4.34e-4,-0.293447 0.469739,-0.518317 v -0.009 c 0.05866,-0.0269 0.115878,-0.039 0.171565,-0.0393 z m -5.838403,0.0486 c 0.05568,2.9e-4 0.112906,0.0124 0.171566,0.0393 0.469307,0.21509 0.97815,0.21523 0.469739,0.518317 v 0.01 c -0.518189,0.293307 -0.586817,0.782074 -0.899687,0.586527 -0.312865,-0.19554 -0.469222,-0.469227 -0.469222,-0.469227 0.03422,-0.11121 0.337816,-0.686807 0.727604,-0.684707 z m 10.169405,1.269694 c 0.367108,6.9e-4 0.849244,0.210617 1.089856,0.265617 0.518191,0.12709 0.09767,0.557507 0.09767,0.782377 0,0.224877 -0.253717,0.0976 -0.859896,-0.0393 -0.606182,-0.13688 -0.470028,0.0979 -1.027328,-0.0977 -0.557295,-0.19554 0.03901,-0.430397 0.342098,-0.782377 l -0.01912,0.01 c 0.07333,-0.0855 0.180385,-0.125147 0.304891,-0.135397 0.02335,-0.002 0.04736,-0.003 0.07183,-0.003 z m -14.48077,0.0651 c 0.0247,2e-4 0.04868,0.002 0.07235,0.004 0.126189,0.0118 0.235973,0.0529 0.314193,0.138487 0.312858,0.34221 0.899388,0.586327 0.342098,0.781867 l -0.01912,-0.01 c -0.55729,0.175997 -0.430405,-0.0387 -1.026811,0.0982 -0.596408,0.136887 -0.860412,0.253857 -0.860412,0.0388 0,-0.2151 -0.430298,-0.645497 0.09767,-0.782377 0.233732,-0.0688 0.709579,-0.272517 1.080037,-0.268717 z m 19.492351,0.0527 c 0.01748,-3e-4 0.03479,2.7e-4 0.05219,0.002 0.487504,0.0468 0.944128,0.810294 0.944128,0.810294 0.127104,0.645287 -0.733366,0.0395 -1.241784,0.215487 -0.508404,0.17599 -0.341996,-1.2e-4 -0.684196,-0.518307 -0.342203,-0.518204 0.214791,-0.254134 0.781864,-0.469234 l -0.0098,-0.01 c 0.05225,-0.0202 0.105173,-0.0299 0.157614,-0.0305 z m -24.564392,0.0537 c 0.05304,-5.7e-4 0.106511,0.007 0.15968,0.0258 0.567073,0.19554 1.114287,-0.0392 0.781864,0.469234 l -0.0098,0.01 c -0.342203,0.518187 -0.16601,0.684007 -0.684196,0.517797 -0.518189,-0.166217 -1.368886,0.43083 -1.241785,-0.214457 0,0 0.448849,-0.748474 0.941028,-0.804614 0.01758,-0.002 0.03556,-0.003 0.05323,-0.004 z" />
  <path
     id="path649"
     style="font-variation-settings:normal;vector-effect:none;fill:#2c363c;fill-opacity:1;stroke:none;stroke-width:0.224299;stroke-linecap:butt;stroke-linejoin:miter;stroke-miterlimit:4;stroke-dasharray:none;stroke-dashoffset:0;stroke-opacity:1;-inkscape-stroke:none;stop-color:#000000"
     d="m 68.187495,11.095168 c -0.06637,5.99e-4 -0.171276,0.05149 -0.257437,0.117487 l -5.788151,5.279825 c -1.601403,1.238667 -3.128985,2.569947 -4.574911,3.987019 0.924121,-0.874474 2.359799,-2.072154 4.692398,-3.791834 5.783199,-4.663104 6.215728,-5.595567 5.928101,-5.592497 z m -10.620499,9.384331 c -0.100396,0.095 -0.193117,0.184718 -0.281312,0.271948 0.09343,-0.091 0.187201,-0.181653 0.281312,-0.271948 z m -5.262975,0.351519 c -0.07933,-0.07842 -0.163754,-0.1593 -0.252758,-0.243864 0.08453,0.081 0.168781,0.162292 0.252758,0.243864 z M 52.051263,20.587154 C 50.602452,19.166259 49.071575,17.831531 47.46652,16.589839 46.048827,15.563234 41.678369,11.31048 41.678369,11.31048 c -0.469301,-0.342201 -1.466675,-0.254414 5.670664,5.475014 2.339858,1.721513 3.77857,2.924074 4.70223,3.80166 z m 40.106549,1.428081 c 0.574409,0.01833 1.143962,0.07957 1.143962,0.07957 0,0 0.645424,-4.5e-5 0.899629,0.254162 0.254207,0.254205 -1.07559,0.557262 -1.329785,0.518154 v 0.0098 c -0.254217,-0.03911 -1.925901,-0.342585 -1.88679,-0.684787 0.01956,-0.171099 0.598575,-0.195262 1.172984,-0.176929 z m -74.730599,0.08425 c 0.573187,-0.01956 1.152749,0.0047 1.177193,0.180673 0.04888,0.35198 -1.633052,0.645679 -1.887257,0.684787 -0.25421,0.03911 -1.583993,-0.254636 -1.329786,-0.518621 v -0.0093 c 0.25421,-0.254201 0.899637,-0.254162 0.899637,-0.254162 0,0 0.567026,-0.06376 1.140213,-0.08331 z m 67.331821,0.311733 c 0.288427,-0.0061 0.564493,0.03511 0.564493,0.03511 0.782176,0.127102 0.977884,0.782522 0.557469,1.290937 v -0.0098 c -0.430196,0.518192 -1.544845,-0.254166 -1.759942,-0.342157 -0.215096,-0.088 -0.09777,-0.342324 0,-0.723637 0.04889,-0.190655 0.349553,-0.244307 0.63798,-0.250418 z m -59.925557,0.088 c 0.289649,0.0061 0.590238,0.05976 0.634235,0.250418 0.088,0.381307 0.2151,0.645418 0,0.723637 -0.215099,0.07821 -1.32974,0.860347 -1.759941,0.342157 -0.430196,-0.518193 -0.214929,-1.153588 0.557471,-1.290468 v 0.0093 c 0,0 0.278586,-0.04122 0.568235,-0.03511 z m 72.027966,0.05898 c 0.333113,0.02807 1.456166,0.611768 1.456166,0.611768 0.391093,0.342199 0.127189,0.782343 -0.684319,0.557469 v 0.0098 c -0.811506,-0.215099 -0.938521,-0.977805 -0.860311,-1.153794 0.0098,-0.02199 0.04088,-0.0293 0.08846,-0.02528 z m -84.124285,0.07255 c 0.0476,-0.0027 0.0791,0.0064 0.0889,0.03089 0.0782,0.195544 -0.0395,0.948469 -0.860784,1.153791 -0.821277,0.205318 -1.075404,-0.21527 -0.684317,-0.557469 v -0.0098 c 0,0 1.123054,-0.598668 1.456172,-0.617381 z m 65.145934,0.412368 c 0,0 4.446446,1.023822 5.782064,1.630288 1.303268,0.583578 0.238097,1.107742 -0.355733,1.234299 -0.596403,0.127102 -7.362267,-1.495951 -7.362267,-1.495951 0,0 -0.860305,-0.684484 -0.68432,-0.977797 0.175989,-0.293312 2.620256,-0.390839 2.620256,-0.390839 z m -46.157757,0.07817 c 0,0 2.444267,0.09752 2.620256,0.390836 0.175991,0.293315 -0.68432,0.977799 -0.68432,0.977799 l -7.381924,1.515608 c -0.586635,-0.127105 -1.662077,-0.645381 -0.34216,-1.241788 1.319918,-0.596409 5.788148,-1.632627 5.788148,-1.632627 z m 39.06931,0.342156 c 0.422877,0.172999 -0.07544,0.661936 -0.09268,0.678703 -0.0078,-0.0079 -0.163638,-0.167016 -0.249481,-0.42454 -0.088,-0.263985 0.34216,-0.254163 0.342161,-0.254163 z m 2.307582,0 c 0.557304,0.127106 2.395543,1.114482 2.913733,1.290471 0.518193,0.175988 7.234976,1.633052 7.762938,1.887257 0.588308,0.343025 1.159273,0.714973 1.710792,1.114473 0,0 0.587009,1.417776 -1.417315,1.153791 -2.004324,-0.263986 -4.634399,-1.026989 -6.042311,-0.684787 -1.407908,0.342202 -3.031276,0.29348 -3.305039,0.29348 -0.273751,0 -9.043798,2.55e-4 -9.434879,-0.126847 -0.391088,-0.127105 -3.617243,-0.23497 -3.617243,-0.23497 0,0 -1.271292,-0.21497 0.03885,-0.938479 1.310142,-0.723511 6.1304,-3.422103 7.460096,-3.167895 1.329695,0.254204 1.79875,0.948565 2.228946,0.733463 0.430196,-0.215097 1.153968,-1.417573 1.711263,-1.290468 z m -36.625516,0.09783 c 0.567082,-0.136883 1.271289,1.075371 1.711263,1.290467 h 0.01965 c 0.430193,0.2151 0.899251,-0.46948 2.228947,-0.733465 1.329698,-0.263986 6.1304,2.444438 7.460096,3.177724 1.329695,0.733289 0.03885,0.938482 0.03885,0.938482 l -3.646729,0.254159 c -0.39109,0.127103 -9.170897,0.127315 -9.434882,0.127315 -0.263982,0 -1.88688,0.03894 -3.304572,-0.293477 -1.417686,-0.332424 -4.028215,0.430576 -6.042311,0.684784 -2.014098,0.254204 -1.417782,-1.153791 -1.417782,-1.153791 l 1.710795,-1.114941 c 0.518187,-0.254204 7.235435,-1.710798 7.763403,-1.88679 0.527967,-0.175988 2.346189,-1.15359 2.913265,-1.290467 z m 2.307585,0 h 0.0098 c 0,0 0.430157,-4.8e-5 0.34216,0.25416 -0.08799,0.254207 -0.254163,0.430157 -0.254163,0.430157 0,0 -0.518247,-0.518109 -0.09783,-0.684317 z m 61.117259,0.390836 c 0,0 0.214885,0.518361 -0.12731,0.469475 -0.342197,-0.04888 -0.12689,-0.391256 0.12731,-0.469475 z m -90.1946882,0.07817 c 0.25421,0.09777 0.4695162,0.430364 0.12732,0.469475 -0.342197,0.03911 -0.12732,-0.469475 -0.12732,-0.469475 z m 83.0772212,0.295353 c 0.643366,-0.04184 1.882718,0.506714 2.336136,0.643597 0.518193,0.156432 1.711269,0.899335 1.975254,1.54463 0.263485,0.644075 -1.321933,1.413945 -1.327913,1.416844 -0.580799,-0.005 -0.853968,-0.517971 -1.194513,-0.683381 -0.342205,-0.166211 -1.97521,-1.368801 -2.317414,-1.662114 -0.342196,-0.293312 -0.214932,-0.938958 0.29348,-1.20294 0.06355,-0.033 0.14306,-0.05066 0.23497,-0.05664 z m -76.002344,0.07442 c 0.09283,0.0071 0.173942,0.02615 0.238714,0.06038 0.51819,0.273763 0.644996,0.899844 0.293013,1.202938 -0.351979,0.30309 -1.974745,1.495903 -2.316945,1.662116 -0.342197,0.16621 -0.586977,0.684319 -1.202934,0.684319 0,0 -1.583531,-0.782271 -1.329321,-1.417785 h 0.01 c 0.254207,-0.645298 1.466371,-1.368639 1.974788,-1.54463 0.444857,-0.153988 1.683071,-0.697332 2.332857,-0.647338 z m 81.009287,0.406752 c 0.30798,0.03025 0.956735,0.338415 0.956735,0.338415 0,0 0.557502,0.342061 0.127315,0.58649 -0.425478,0.241749 -1.183122,-0.538212 -1.237577,-0.848609 -0.0015,-0.06392 0.05649,-0.08582 0.153527,-0.0763 z m -85.973637,0.09361 c 0.10266,-0.0096 0.16752,0.01222 0.15774,0.088 -0.0391,0.303096 -0.811587,1.114988 -1.241784,0.860781 v -0.01965 c -0.430197,-0.254207 0.12731,-0.58649 0.12731,-0.58649 0,0 0.648757,-0.313755 0.956734,-0.342627 z m 74.25083,0.0024 c 0.292171,0.03342 0.624407,0.30097 0.624407,0.30097 l 1.075155,0.977797 c 0.175988,0.293315 -1.153324,0.645001 -1.153324,0.645001 v -0.0093 c 0,0 -0.645259,-0.557628 -0.782145,-0.586961 -0.136877,-0.02933 -0.342627,-0.342073 -0.166633,-1.026476 0.066,-0.256652 0.227238,-0.32102 0.40254,-0.30097 z m -62.542999,0.06881 c 0.175587,-0.02004 0.33553,0.04385 0.397858,0.300499 0.166213,0.684404 -0.03906,0.977594 -0.166166,1.02648 -0.127102,0.04888 -0.782142,0.586957 -0.782142,0.586957 0,0 -1.296303,-0.335006 -1.153794,-0.635637 0.175988,-0.293315 1.075626,-0.9778 1.075626,-0.9778 0,0 0.33597,-0.267082 0.628618,-0.300499 z m 76.949245,0.209228 c 0.0116,0.0086 0.16991,0.128112 0.16991,0.335605 0,0.212739 -0.33282,-0.157187 -0.16991,-0.335605 z m -91.3245999,0.09127 c 0.17599,0.175989 -0.166637,0.55726 -0.166637,0.34216 h -0.009 c 0,-0.215096 0.175997,-0.34216 0.175997,-0.34216 z m 81.3631439,1.231025 c 0.656522,-0.03943 1.498419,0.166199 2.13393,0.49007 1.016827,0.518187 2.541988,1.07532 2.786418,1.368636 0.24443,0.293312 0.341956,0.391045 0.214845,0.51815 0,0 -0.390998,0.09794 -0.684317,0.469475 -0.293315,0.371532 -0.126808,0.811119 -0.645001,0.97733 v 0.0098 c -0.518181,0.175989 -1.202899,0.175935 -1.545097,-0.09783 l -2.600595,-1.788961 c 0,0 -1.026779,-0.977767 -0.557472,-1.583948 0.175988,-0.227322 0.503376,-0.339095 0.897289,-0.362755 z m -71.410582,0.08519 c 0.392999,0.02274 0.717946,0.132081 0.89027,0.355733 0.459526,0.596409 -0.557471,1.583948 -0.557471,1.583948 l -2.610424,1.798793 c -0.342199,0.254207 -1.026444,0.254261 -1.544631,0.09783 -0.518187,-0.156435 -0.34237,-0.586241 -0.645467,-0.977329 l 0.01,-0.01965 c -0.29331,-0.391085 -0.684317,-0.469475 -0.684317,-0.469475 -0.1271,-0.127102 -0.0394,-0.215064 0.21484,-0.518154 0.254217,-0.303093 1.759818,-0.860218 2.786422,-1.368636 0.641628,-0.317757 1.485954,-0.520952 2.140949,-0.483048 z m 78.810765,0.871548 c 0.192503,0.02127 0.391605,0.127872 0.405347,0.135271 -0.005,0.285578 0.103775,0.561423 0.302374,0.7667 -0.03911,0.430192 -0.899838,0.293145 -1.026946,-0.469475 -0.06355,-0.381313 0.120014,-0.454496 0.319225,-0.432496 z m -86.227793,0.04867 c 0.19921,-0.02199 0.38277,0.05165 0.31922,0.432964 v 0.0192 c -0.12711,0.782175 -0.977594,0.899673 -1.026474,0.469474 -0.0489,-0.430195 0.293007,-0.782145 0.293007,-0.782145 0,0 0.21503,-0.117486 0.414247,-0.139483 z m 75.916216,1.097622 c 0.860389,0 6.384647,2.102315 5.279826,2.317414 0,0 -1.759681,0.517843 -1.798789,0.723167 -0.03911,0.205322 -0.09774,0.938581 -0.782145,0.782145 h -0.0098 c -0.684403,-0.166213 -3.343839,-1.799011 -3.422058,-2.190098 -0.07822,-0.391091 -0.127399,-1.632628 0.732995,-1.632628 z m -65.575623,0.107658 c 0.860391,0 0.811628,1.241539 0.723634,1.632627 -0.08799,0.391085 -2.737652,2.014105 -3.422055,2.190096 -0.6844,0.175988 -0.723478,-0.557271 -0.782145,-0.782142 -0.03911,-0.215103 -1.798793,-0.723638 -1.798793,-0.723638 -1.114595,-0.215099 4.418964,-2.316943 5.279359,-2.316943 z m 56.763278,0.213907 c 1.417075,0.01558 3.488864,0.353091 4.647463,0.822398 1.544795,0.625739 1.329488,0.391216 1.710795,0.811634 0.09777,0.09777 -0.342159,0.782049 -0.342159,1.20247 0,0.413271 -0.12328,0.918723 -0.378201,1.019455 -0.254339,0.09852 -0.641943,0.2881 -1.068604,-0.0027 -0.430195,-0.293318 -6.00346,-3.030751 -6.00346,-3.030751 0,0 -0.782013,-0.430322 0.293478,-0.723635 0.268871,-0.07333 0.668328,-0.103958 1.140688,-0.09876 z m -47.991185,0.05196 c 0.473123,-0.0032 0.873216,0.03001 1.14209,0.105782 1.075488,0.303093 0.29348,0.723167 0.29348,0.723167 l -6.003463,3.031219 c -0.430196,0.293316 -0.811167,0.09777 -1.075155,0 -0.263979,-0.09777 -0.391306,-0.586967 -0.391306,-1.026943 l 0.01965,0.0098 c 0,-0.430195 -0.430148,-1.104698 -0.34216,-1.20247 0.391091,-0.430196 0.175782,-0.166342 1.710796,-0.811634 1.151263,-0.483971 3.226685,-0.819324 4.646058,-0.828949 z m 34.101217,0.165695 c 0.536217,0 1.00204,0.01803 1.290467,0.06693 2.19565,0.363651 4.286799,1.197426 6.130308,2.444259 l 9.777039,6.43362 c 0,0 1.975332,0.97785 1.026946,1.075622 -0.948388,0.09777 -0.977758,-0.12736 -1.583947,0.03885 -0.606178,0.166213 -0.938965,0.215309 -1.202941,0.127315 -0.263994,-0.08799 -0.0388,-3e-4 -0.29301,0.469004 -0.254208,0.469301 -0.166387,0.557472 -0.733466,0.469475 -0.567079,-0.08799 -7.626217,-4.282378 -8.056415,-4.634357 v 0.0098 c -0.430196,-0.342201 -9.601261,-5.397312 -9.816357,-5.397312 -0.2151,0 -2.962236,-1.270903 -0.390839,-0.938479 0,0 2.243565,-0.16476 3.852215,-0.16476 z m -20.219676,0.06974 c 1.60865,-0.0027 3.852683,0.173188 3.852683,0.173188 2.571402,-0.342202 -0.166429,0.938479 -0.391307,0.938479 -3.318924,1.712631 -6.592179,3.512358 -9.816357,5.397312 -0.410643,0.351976 -7.489234,4.556245 -8.036755,4.654017 l -0.02948,-0.02948 c -0.557301,0.09777 -0.468956,-1.71e-4 -0.723167,-0.469475 -0.254204,-0.469306 -0.03927,-0.557001 -0.29348,-0.469004 -0.254205,0.08799 -0.586509,0.03889 -1.20247,-0.127315 -0.615965,-0.166213 -0.645337,0.03936 -1.583948,-0.03885 -0.938608,-0.07822 1.026476,-1.075626 1.026476,-1.075626 l 9.777039,-6.433617 c 1.843218,-1.247381 3.934494,-2.081207 6.130308,-2.444258 0.288427,-0.05378 0.754253,-0.07445 1.290467,-0.07536 z m 28.190433,0.112337 c 0.916611,-0.02199 2.030979,0.03158 2.822929,0.334671 1.583903,0.606184 7.626426,3.647118 8.271727,4.419515 0.645293,0.772391 0.860302,1.505471 0.684317,1.710792 v -0.0098 c -0.166211,0.215102 -0.293406,1.583786 -1.153791,1.466461 -0.860398,-0.117324 -4.986205,-3.030973 -5.572836,-3.422055 l -6.472468,-3.519444 c -0.39109,-0.127102 -2.346741,-0.977641 -0.215312,-0.860313 0,0 0.718827,-0.09783 1.635434,-0.119827 z m -36.131701,0.05851 c 0.916611,0.02199 1.635434,0.119826 1.635434,0.119826 2.150978,-0.127102 0.175775,0.72343 -0.215312,0.86031 -0.391088,0.136881 -5.866281,3.1288 -6.472468,3.519884 -0.606181,0.391091 -4.712444,3.304734 -5.572836,3.422059 -0.860394,0.117327 -0.977799,-1.242058 -1.153791,-1.466932 -0.175985,-0.224874 0.03902,-0.938398 0.684317,-1.710793 v 0.0098 c 0.645292,-0.782178 6.687827,-3.813328 8.271727,-4.419515 0.79195,-0.303091 1.906318,-0.356668 2.822929,-0.334668 z m 59.13639,0.542491 c 0.253898,-0.02061 0.785739,-0.0098 0.976394,0.408156 0.254208,0.557301 -0.899586,0.899458 -1.329788,0.430157 -0.430196,-0.469301 0.214845,-0.811161 0.214845,-0.811161 v -0.0098 c 0,0 0.05392,-0.01045 0.138549,-0.01731 z m -82.170568,0.06834 c 0.0846,0.0069 0.138547,0.01732 0.138547,0.01732 0,0 0.645047,0.342328 0.21485,0.811634 v 0.0098 c -0.430197,0.469307 -1.583521,0.127144 -1.329324,-0.430157 0.19066,-0.417976 0.722027,-0.429249 0.975927,-0.408624 z m 72.691688,1.103707 c 0.131536,-0.0073 0.298947,0.02819 0.511602,0.135742 0.850608,0.430195 3.255974,1.632839 2.571574,1.759942 0,0 -1.026695,0.175952 -1.153791,0.518154 -0.1271,0.342195 -0.508595,1.486119 -0.645469,1.486119 -0.127109,0 -0.586245,0.215096 -0.97733,0 -0.391093,-0.2151 -1.369103,-0.977797 -1.369103,-0.977797 0,0 -0.390878,-0.517855 0.03932,-1.075156 0.430193,-0.557301 0.557001,-1.417782 0.557001,-1.417782 0,0 0.0716,-0.407222 0.466198,-0.429222 z m -63.179107,0.088 c 0.395974,0.02199 0.461986,0.429222 0.461986,0.429222 0,0 0.126805,0.860485 0.557001,1.417783 0.430196,0.557301 0.03932,1.075155 0.03932,1.075155 l -1.369103,0.977797 c -0.391091,0.215099 -0.860005,0 -0.97733,0 -0.117324,0 -0.518363,-1.153749 -0.645468,-1.495951 v 0.0098 c -0.127103,-0.342205 -1.153791,-0.518154 -1.153791,-0.518154 -0.684404,-0.127102 1.711184,-1.329743 2.571573,-1.759942 0.215099,-0.10755 0.383823,-0.143075 0.515814,-0.135742 z m 70.229174,0.511603 c 0.143144,1.49e-4 0.237312,0.0056 0.237312,0.0056 0,0 0.03915,0.556954 -0.430157,0.723167 -0.469307,0.166211 -0.430112,0.293744 -0.860314,0.518621 -0.430195,0.224878 -0.469261,-0.293441 -0.342156,-0.811634 0.09532,-0.38864 0.965883,-0.436229 1.395315,-0.435771 z m -77.29469,0.06693 c 0.427144,-0.0027 1.29453,0.04121 1.397191,0.437179 0.13688,0.527967 0.09735,1.026727 -0.342627,0.811631 l 0.0098,0.0098 C 16.785418,32.810567 16.824607,32.683501 16.3553,32.50751 c -0.469307,-0.175988 -0.43998,-0.733466 -0.43998,-0.733466 0,0 0.0935,-0.0061 0.2359,-0.007 z m 43.240747,1.31715 c 0.383755,-0.01468 0.755466,0.01965 0.755466,0.01965 l 0.01965,-0.01965 3.646731,2.962412 c 0.1271,0.215099 0.430367,0.342091 0.469475,1.466462 0.03911,1.124379 0.977803,3.089796 1.241788,3.715538 1.019104,1.892646 2.121714,3.739126 3.304572,5.533989 0.293316,0.342198 0.938356,1.11444 0.214845,1.632627 -0.723512,0.518189 -1.66176,-0.254124 -1.857301,-0.68432 -0.195544,-0.430196 -4.331275,-5.181922 -4.986345,-6.04231 -0.65507,-0.860395 -1.202692,-1.711182 -1.505783,-2.48358 l -0.86031,-2.268264 c 0,0 -1.369049,-3.167644 -1.271277,-3.558734 0.04888,-0.195541 0.44473,-0.259157 0.828481,-0.27382 z m -9.217228,0.05242 c 0.386199,0.01588 0.782355,0.07942 0.821463,0.270075 l 0.0192,0.0098 c 0.09778,0.391087 -1.270806,3.559202 -1.270806,3.559202 l -0.860314,2.268267 c -0.293319,0.782172 -0.860484,1.632492 -1.505779,2.483109 -0.645292,0.850616 -4.790802,5.612114 -4.986346,6.04231 -0.195544,0.430196 -1.114704,1.202512 -1.857771,0.68432 -0.743064,-0.518193 -0.09756,-1.270873 0.215312,-1.632627 0.312869,-0.361761 3.030812,-4.888697 3.304572,-5.533989 0.273763,-0.645298 1.202686,-2.61025 1.241791,-3.715068 0.03911,-1.104824 0.341902,-1.242055 0.469005,-1.466932 0.127105,-0.224874 3.647199,-2.952584 3.647199,-2.952584 0,0 0.376286,-0.0318 0.762484,-0.01591 z m 7.70396,0.279436 c 0.349247,-0.20113 2.239245,5.978842 2.239245,6.727098 0,0.772397 0.43025,2.913868 0.09783,3.989358 -0.332424,1.075491 -0.645002,8.271173 -0.732996,8.955577 -0.088,0.684406 -0.09812,0.254216 -1.20294,0.175994 -1.114596,-0.09777 -1.495951,0.430193 -1.495951,-0.175994 0,-0.606181 0.860478,-4.790494 1.241791,-6.941472 0.381304,-2.150982 -0.21506,-5.739532 -0.430157,-7.675408 l -0.390838,-4.497214 0.645001,-0.518153 c 0.0079,-0.02016 0.01776,-0.0333 0.02903,-0.03979 z m -6.187414,0.06834 c 0.02873,-0.01285 0.05152,-5.99e-4 0.0674,0.03979 l 0.645002,0.518154 c 0,0 -0.165962,2.571573 -0.390839,4.497681 -0.224874,1.926101 -0.811464,5.533737 -0.430157,7.674938 l 1.241791,6.941942 c 0,0.586634 -0.391132,0.09777 -1.495951,0.175994 -1.104824,0.07822 -1.114895,0.537431 -1.193111,-0.146976 l -0.0192,-0.02903 c -0.09777,-0.684404 -0.391213,-7.890334 -0.723634,-8.956047 -0.332427,-1.06571 0.09783,-3.226269 0.09783,-3.988888 0,-0.714959 1.770127,-6.534648 2.200862,-6.727565 z m 38.26657,0.342627 c 0,0 0.469312,0.293534 0.175994,0.391306 -0.293316,0.09777 -0.556957,0.899635 -0.899161,1.075623 -0.342193,0.175988 -0.293274,-0.03903 -0.34216,-0.684316 h -0.0098 c -0.03911,-0.645295 0.938281,-0.782613 1.075156,-0.782613 z m -27.199998,0.09783 5.572839,3.00173 c 1.544798,0.645292 4.15562,2.053225 3.91119,2.542087 l -0.01965,-0.0098 c -0.254217,0.469301 -0.733122,0.215351 -1.54463,-0.214844 -0.811506,-0.430199 -3.940545,-2.786634 -4.791161,-2.913733 -0.850614,-0.127106 -2.874373,-2.190312 -3.128578,-2.405411 z m -43.097983,0.0098 c 0.127108,0 1.114737,0.127072 1.075626,0.782145 -0.03911,0.65507 4.2e-5,0.860307 -0.34216,0.684316 h -0.0098 c -0.342201,-0.16621 -0.586763,-0.977383 -0.899631,-1.075155 -0.312871,-0.09777 0.175994,-0.391306 0.175994,-0.391306 z m 27.200465,0.06834 c -0.254208,0.215094 -2.268654,2.268528 -3.129045,2.405408 -0.860392,0.13688 -3.98896,2.48354 -4.790694,2.913736 -0.801725,0.430196 -1.270867,0.684149 -1.54463,0.214842 -0.273763,-0.469304 2.346373,-1.887014 3.910723,-2.542084 l -0.01965,0.0098 c 1.544801,-0.645298 5.573307,-3.00173 5.573307,-3.00173 z m 38.568473,1.18843 c 0.07654,0.01758 0.176102,0.0582 0.305649,0.13153 0.518181,0.293315 0.938269,0.469274 0.899161,0.782142 0,0 -0.166072,0.684745 -0.58649,0.938949 -0.420418,0.254205 -0.430364,0.684056 -0.469475,0.811164 -0.03911,0.127102 -0.215057,0.557472 -0.518151,0.557472 -0.303093,0 -0.644956,-0.215264 -0.811167,-0.29348 l -0.0098,0.0098 c -0.166216,-0.09777 -0.215141,-0.214764 0.254163,-1.075155 0.469304,-0.860392 0.684316,-1.466881 0.684316,-1.633094 0,-0.124661 0.02223,-0.282061 0.251823,-0.229356 z m -61.282491,0.09502 c 0.228238,-0.06233 0.255568,0.09533 0.255568,0.241991 0,0.195544 0.215018,0.782013 0.684316,1.632627 0.46931,0.850614 0.430618,0.977854 0.25463,1.075626 -0.175991,0.09777 -0.518316,0.29348 -0.811631,0.29348 l -0.0098,-0.0098 c -0.293319,0 -0.469268,-0.430369 -0.518154,-0.557468 -0.04889,-0.127109 -0.03928,-0.556963 -0.469475,-0.811167 -0.430195,-0.254205 -0.58649,-0.938947 -0.58649,-0.938947 -0.0391,-0.293315 0.391219,-0.469276 0.899628,-0.782145 0.127105,-0.07822 0.22536,-0.123387 0.301437,-0.144165 z m 40.318587,0.700232 c 0.302024,-0.0027 1.262722,0.497574 2.135332,1.047542 1.162805,0.732857 5.31327,3.857945 5.962273,4.984005 -0.0024,0.03231 -0.09779,1.315586 -0.25229,1.566627 -0.156433,0.254211 -0.214968,1.153662 -1.026476,0.254163 l -4.390026,-4.634357 -2.483576,-3.030752 c -0.07333,-0.129547 -0.04591,-0.186311 0.05476,-0.187228 z m -19.332682,0.07396 c 0.101438,-3e-4 0.129498,0.05451 0.05617,0.181611 -0.293319,0.508415 -2.483576,3.060238 -2.483576,3.060238 l -4.370369,4.634357 c -0.811506,0.899499 -0.86026,4.8e-5 -1.026476,-0.25416 -0.166208,-0.254204 -0.254163,-1.583948 -0.254163,-1.583948 0.645295,-1.114599 4.790886,-4.243281 5.964146,-4.986348 l -0.01965,-0.0098 c 0.865277,-0.542631 1.829615,-1.041005 2.133931,-1.041921 z m 41.656795,1.09809 c 0.326316,-0.05225 0.88341,0.09034 0.978735,0.09034 l -0.29301,0.557472 c 0,0 -0.58676,0.469439 -0.899632,1.075626 -0.312865,0.606183 -0.430363,-0.09795 -0.469474,-0.645469 l -0.0093,-0.0098 c -0.03911,-0.557298 0.341908,-0.645166 0.469008,-0.938482 0.03178,-0.07333 0.114963,-0.112238 0.223735,-0.129654 z m -64.337579,0.07817 c 0.268874,-0.0269 0.537919,-0.01702 0.601468,0.129654 0.127109,0.293319 0.517894,0.390956 0.469008,0.938479 -0.04889,0.547521 -0.165911,1.241875 -0.469008,0.645469 l -0.0098,0.0098 C 22.749824,38.37367 22.143511,37.884678 22.143511,37.884678 l -0.29348,-0.557004 c 0.06355,0 0.332597,-0.06391 0.601469,-0.0908 z m 42.396345,0.449814 c 0.481889,0.07485 2.74991,2.994241 2.74991,2.994241 l 3.255893,3.715539 c 0,0 0.684361,0.586712 0.518154,1.153791 l -0.0098,0.03885 c -0.166213,0.557298 -0.733466,1.153791 -0.733466,1.153791 0,0 -0.390958,0.811452 -1.026476,-0.09783 -0.635517,-0.90928 -4.546521,-6.433164 -4.83984,-8.799242 -0.01588,-0.122214 0.01681,-0.169838 0.08565,-0.159144 z m -20.096569,0.107658 c 0.06884,-0.0107 0.101076,0.03646 0.08519,0.158673 -0.293315,2.346522 -4.204323,7.890429 -4.83984,8.79971 -0.635517,0.90928 -1.026476,0.09783 -1.026476,0.09783 0,0 -0.557427,-0.586719 -0.723637,-1.153794 -0.166214,-0.567073 0.518154,-1.153791 0.518154,-1.153791 l -0.01965,-0.03885 3.255893,-3.715535 c 0,0 2.268486,-2.919386 2.750377,-2.994241 z m 37.942195,1.801615 c 0,0 -0.899116,0.586506 -1.329318,1.114473 -0.430192,0.527968 -0.645642,0.341992 -1.026946,-0.127315 -0.381316,-0.469304 0.03907,-0.469223 0.518154,-0.684316 l -0.0192,-0.0098 c 0.469307,-0.215096 1.8573,-0.29301 1.8573,-0.29301 z m -55.769098,0.05851 c 0,0 1.368807,0.09794 1.838111,0.29348 0.469301,0.195544 0.899928,0.21501 0.518621,0.684317 v 0.0098 c -0.391088,0.4693 -0.586976,0.645037 -1.026947,0.126844 -0.439973,-0.518193 -1.329785,-1.114473 -1.329785,-1.114473 z m 56.950506,0.674488 c 0.292857,0.033 0.490537,0.263991 0.490537,0.263991 0,0 -0.127018,0.391213 -0.684319,0.899631 -0.557298,0.508409 -0.684317,-0.254171 -0.684317,-0.518153 v -0.0098 c 0,-0.254211 0.09795,-0.390947 0.557472,-0.586491 0.11488,-0.04889 0.223008,-0.06015 0.320627,-0.04915 z m -58.184337,0.05055 c 0.09808,-0.01006 0.207514,0.0033 0.324841,0.05711 0.469304,0.215097 0.557469,0.342061 0.557469,0.586491 0,0.244432 -0.127485,1.026572 -0.684783,0.518154 v 0.0098 c -0.557298,-0.518192 -0.68432,-0.899161 -0.68432,-0.899161 0,0 0.19256,-0.242171 0.486793,-0.272418 z m 49.079446,0.737678 c 0.428224,0.05347 0.913672,0.404883 0.913672,0.404883 l 2.014104,2.40494 c 0.09777,0.127102 0.899197,0.860349 0.469005,2.268267 l -0.0098,0.0098 c -0.430193,1.417689 -1.026476,0.342414 -1.114473,0.127315 -0.088,-0.215097 -2.395582,-3.34389 -2.395582,-3.34389 0,0 -0.73299,-0.645391 -0.469005,-1.505779 0.099,-0.322649 0.335171,-0.397645 0.592108,-0.365565 z m -39.95115,0.06834 c 0.256936,-0.03208 0.49358,0.04292 0.592575,0.365561 0.263988,0.860392 -0.469475,1.495951 -0.469475,1.495951 l -2.405408,3.353717 c -0.09777,0.2151 -0.68428,1.270822 -1.114476,-0.127314 -0.430196,-1.398137 0.391261,-2.15094 0.469475,-2.268265 v -0.0098 l 2.014104,-2.404944 c 0,0 0.484974,-0.35141 0.913205,-0.404879 z m 26.335472,0.42454 c 0,0 1.114689,1.466584 1.417782,2.102098 0.303091,0.635515 0.176207,4.154967 0.391306,4.839373 0.212631,0.784662 0.327556,1.592579 0.34216,2.405411 -0.0391,0.254208 -0.586727,1.417522 -1.505782,1.368636 -0.919055,-0.04888 -1.202677,0.09791 -1.153791,-0.586491 l -0.0098,-0.0098 c 0.03911,-0.684407 -3.6e-5,-8.740612 0.518154,-10.119196 z m 20.982157,0 c 0,0 0.645001,0.214799 0.645001,0.557001 0,0.342202 -0.645214,0.293573 -0.860313,-0.126848 -0.215097,-0.420415 0.215312,-0.430153 0.215312,-0.430153 z m -54.703301,0.06834 c 0,0 0.429944,-3.9e-5 0.214845,0.430157 -0.215097,0.430196 -0.860314,0.469046 -0.860314,0.126848 0,-0.342205 0.645469,-0.557005 0.645469,-0.557005 z m 21.00135,0.0098 c 0.518187,1.368806 0.469268,9.434799 0.518154,10.119199 0.04889,0.684406 -0.254295,0.55716 -1.153794,0.586491 l -0.0098,0.0098 c -0.899503,0.03911 -1.466668,-1.114428 -1.505779,-1.368635 0.01462,-0.812833 0.129528,-1.62075 0.342159,-2.405411 0.2151,-0.684403 0.09799,-4.203856 0.391307,-4.839373 0.293315,-0.635518 1.417782,-2.102102 1.417782,-2.102102 z m 25.349248,1.515144 c 0.713407,0.05199 1.498761,1.4571 1.498761,1.4571 0,0 2.483576,3.422025 2.571573,4.028206 0.08799,0.606187 -1.114892,1.329447 -1.369103,2.052955 l 0.0098,0.0098 c -0.254208,0.733286 -0.253917,1.026569 -0.557002,0.518154 l -3.255892,-5.572839 c -0.391091,-0.557298 0.254159,-1.466462 0.254159,-1.466462 0.21388,-0.794394 0.5234,-1.050576 0.847675,-1.026943 z m -38.017553,0.07723 c 0.324273,-0.02391 0.633795,0.229766 0.847672,1.018052 0,0 0.64525,0.899383 0.254162,1.466461 -0.39109,0.567076 -2.952799,5.054647 -3.255892,5.572836 -0.303091,0.518193 -0.293487,0.215136 -0.557472,-0.518151 -0.263982,-0.733289 -1.466411,-1.466329 -1.368636,-2.052955 l 0.0098,-0.0098 c 0.09777,-0.586632 2.571573,-4.028209 2.571573,-4.028209 0,0 0.785354,-1.395639 1.498761,-1.448206 z m 27.676023,1.508119 c 0.03171,0.03467 3.245294,3.550313 3.079899,4.095143 -0.166211,0.547521 -0.586377,1.662362 -2.052955,1.271278 -0.93282,-0.03887 -1.073226,-4.391231 -1.026944,-5.366421 z m -17.256792,0.08659 c 0.03911,0.938604 -0.09765,5.358204 -1.026479,5.397309 l -0.0098,-0.01965 c -1.466575,0.391088 -1.886736,-0.723754 -2.052952,-1.271277 -0.166207,-0.547523 3.08926,-4.106374 3.08926,-4.106374 z m 25.735872,1.165492 c 0.250236,-0.055 0.486793,0.379605 0.486793,0.379605 0.175985,0.215096 3.813151,5.963891 3.862043,6.354981 0.04889,0.391085 -0.293285,0.430373 -0.782145,0.645469 -0.628855,0.380917 -1.193202,0.859319 -1.671945,1.417315 -0.215096,0.293316 -0.391201,1.114641 -0.811631,-0.34216 l -0.01965,-0.0192 c -0.430193,-1.466578 -2.698161,-6.218679 -2.737272,-6.551103 -0.03911,-0.332424 0.645002,-0.430157 0.645002,-0.430157 0,0 0.469274,-0.557178 0.782145,-1.20247 0.07822,-0.161325 0.16326,-0.233957 0.24667,-0.25229 z m -34.253806,0.03511 c 0.08158,0.01878 0.163515,0.09273 0.236845,0.256502 0.210064,0.429345 0.469235,0.832867 0.772314,1.20247 0,0 0.684577,0.09773 0.645468,0.430157 -0.0391,0.332427 -2.31732,5.103613 -2.737738,6.550636 -0.420418,1.447019 -0.586763,0.645253 -0.811635,0.342156 l -0.0093,0.01965 c -0.215096,-0.293313 -1.20259,-1.202686 -1.662116,-1.417783 -0.459523,-0.215096 -0.811946,-0.253913 -0.782613,-0.645001 0.02933,-0.391091 3.686056,-6.130574 3.862044,-6.355449 0,0 0.242057,-0.439721 0.486792,-0.383349 z m 41.261745,0.217184 c 0.73329,0.51819 -0.293016,1.466461 -0.469004,1.466461 -0.175985,0 -0.09783,-0.684274 -0.09783,-1.026476 l 0.0098,-0.0098 c 0,-0.342202 0.557001,-0.430157 0.557001,-0.430157 z m -48.289341,0.04915 c 0,0 0.557469,0.09773 0.557469,0.430156 0,0.332424 0.09772,1.026476 -0.09783,1.026476 l 0.0098,0.0098 c -0.166213,0 -1.20276,-0.938494 -0.469472,-1.466461 z m 38.961649,2.040783 c 0.220204,-0.09828 0.82193,1.371446 0.82193,1.371446 0.8995,0.782178 2.316947,6.433149 2.316947,6.433149 0,0 -1.026647,-0.0389 -1.759942,0.03932 -0.733289,0.07822 -1.466462,1.505306 -1.466462,1.329318 0,-0.175769 -1.852205,-7.019727 -1.798325,-7.71847 0.04067,-0.678071 0.391237,-0.513939 0.732528,-0.513939 0.342205,0 0.938488,-0.556963 1.114476,-0.899164 0.01099,-0.02139 0.02417,-0.03511 0.03885,-0.04166 z m -29.643318,0.06038 c 0.01468,0.0061 0.02738,0.01902 0.03838,0.03979 0.175991,0.332421 0.782049,0.899628 1.114473,0.899628 0.332424,0 0.684526,-0.166252 0.723637,0.518154 0.03905,0.683394 -1.790596,7.517984 -1.795982,7.713321 -0.03735,0.08996 -0.736812,-1.243226 -1.45991,-1.328851 -0.743064,-0.08799 -1.759942,-0.03932 -1.759942,-0.03932 0,0 1.417917,-5.67053 2.317414,-6.433149 0,0 0.601729,-1.460875 0.82193,-1.369573 z m 38.120529,1.75105 c 0.557295,-0.03911 0.09802,0.390962 -0.214845,1.114474 -0.312874,0.723514 -0.684376,0.518246 -0.782142,0.09783 -0.09778,-0.420418 0.977329,-1.202937 0.977329,-1.202937 z m -46.598207,0.04868 c 0,0 1.075572,0.782052 0.977797,1.20247 l 0.01965,0.0098 c -0.09777,0.430195 -0.469277,0.645238 -0.782142,-0.09783 -0.312868,-0.743067 -0.782388,-1.153585 -0.215312,-1.114473 z m 34.635283,0.29301 c 0.809385,0.02807 1.296085,0.821463 1.296085,0.821463 0,0 1.202368,5.23076 1.270809,6.38447 0.06844,1.153704 -0.03885,0.684316 -0.03885,0.684316 l -1.153791,-0.29301 c -0.733289,-0.215096 -1.417489,0.0388 -1.974787,0.29301 -0.557301,0.254208 -0.684583,0.21531 -0.733466,0.03932 -0.04889,-0.175991 -0.127315,-2.317371 -0.215312,-4.49768 -0.08799,-2.180312 0.127189,-3.128536 1.153791,-3.382741 l 0.02948,-0.0098 c 0.128325,-0.03177 0.250403,-0.04333 0.366032,-0.03932 z m -22.679382,0.05149 c 0.114958,-0.0047 0.236587,0.0064 0.363693,0.03697 1.016827,0.244433 1.241785,1.202431 1.153791,3.38274 l 0.0192,0.0098 -0.214845,4.497214 c -0.03911,0.175988 -0.166336,0.215354 -0.723634,-0.03885 -0.557298,-0.254204 -1.241495,-0.518358 -1.974787,-0.29348 l -1.153791,0.29348 c 0,0 -0.127312,0.469385 -0.03932,-0.684319 0.08799,-1.15371 1.271278,-6.384471 1.271278,-6.384471 0,0 0.493718,-0.786372 1.298423,-0.81912 z m 19.728671,1.697219 c 0.22411,-0.0015 0.482578,0.07021 0.482578,0.07021 0,0 0.586586,4.634483 0.342159,5.357991 -0.244432,0.723512 -0.214955,1.075407 -0.58649,0.68432 -0.371532,-0.391085 -0.469175,-0.645155 -1.026476,-0.586491 -0.557298,0.05866 -1.584167,0.68414 -1.887257,0.03885 -0.303094,-0.645295 -0.293316,-3.001437 0,-3.558732 h -0.01965 c 0.293315,-0.557298 0.557642,-1.544884 1.026946,-1.329788 0.469304,0.215099 1.241587,-0.557475 1.466461,-0.645466 0.05622,-0.02199 0.127034,-0.03044 0.201739,-0.03089 z m -16.697919,0.06834 c 0.07425,5.99e-4 0.143752,0.0093 0.197527,0.03136 0.215096,0.08799 0.977599,0.860101 1.466462,0.645002 0.488856,-0.215097 0.72385,0.782262 1.026943,1.329785 0.303093,0.547526 0.293319,2.913439 0,3.558734 h -0.01965 c -0.293316,0.645292 -1.329956,2.61e-4 -1.887257,-0.03885 -0.557298,-0.03911 -0.64517,0.214955 -1.026476,0.58649 -0.38131,0.371532 -0.342064,0.03919 -0.586494,-0.684316 -0.244433,-0.723511 0.34216,-5.357994 0.34216,-5.357994 0,0 0.264057,-0.07158 0.486792,-0.07021 z m 11.498131,1.566627 c 0.318009,-0.03133 0.699855,0.06804 1.165495,0.449347 0,0 0.293322,0.78228 0.175994,1.85777 -0.117327,1.075488 0.175566,1.417561 -0.342627,0.938479 -0.518187,-0.479081 -0.782055,-0.469522 -1.20247,-0.391306 -0.420421,0.07822 -0.586757,0.29337 -0.811634,0.09783 -0.224875,-0.195544 -0.557044,-2.26801 -0.126848,-2.395112 l -0.0098,-0.0098 c 0.268871,-0.07944 0.621908,-0.494946 1.151919,-0.547175 z m -6.332047,0.06132 c 0.530011,0.0507 0.883048,0.468644 1.151922,0.554194 0.430193,0.13688 0.09802,2.190264 -0.126847,2.395582 l -0.0098,0.0093 c -0.215097,0.215096 -0.391214,2.99e-4 -0.811634,-0.09736 -0.420415,-0.09777 -0.684281,-0.09802 -1.202471,0.390836 -0.518193,0.488862 -0.215057,0.127231 -0.342159,-0.938479 -0.127103,-1.065713 0.175994,-1.857768 0.175994,-1.857768 0.465637,-0.384976 0.847019,-0.486789 1.165024,-0.456368 z m 23.605223,0.667468 c 0.241563,-0.02148 0.493814,0.13106 0.493814,0.13106 -0.254207,1.495906 -0.938485,1.241575 -1.20247,1.114473 -0.263985,-0.127105 0.12706,-0.390959 0.342157,-0.938479 v -0.0098 c 0.08066,-0.208985 0.22156,-0.284334 0.366499,-0.297222 z m -40.907885,0.06085 c 0.144939,0.01432 0.286306,0.09206 0.366967,0.304714 0.215102,0.567073 0.586589,0.811841 0.34216,0.938946 -0.254208,0.127103 -0.938494,0.39074 -1.202473,-1.11494 0,0 0.251784,-0.152589 0.493346,-0.12872 z m 37.509232,2.419922 c 0.415454,-0.01872 0.714743,0.3782 0.714743,0.3782 0.293315,0.175988 0.09781,0.782088 -0.430157,0.684316 -0.527968,-0.09777 -0.215225,-0.03914 -0.899631,0.430157 -0.684398,0.469307 -0.586593,-0.214812 -0.518151,-0.732999 l 0.0098,0.0098 c 0.09777,-0.51819 0.430535,-0.557478 0.938947,-0.733466 0.06355,-0.02199 0.125071,-0.03337 0.184421,-0.03604 z m -34.11994,0.0688 c 0.05935,0.0027 0.120869,0.01357 0.184421,0.03557 0.508406,0.175991 0.860263,0.215276 0.938479,0.733466 0.07822,0.518193 0.176024,1.202302 -0.518154,0.732998 l 0.0098,-0.0098 c -0.684403,-0.469301 -0.391216,-0.518148 -0.899628,-0.430154 -0.508413,0.08799 -0.72347,-0.518109 -0.430157,-0.684319 0,0 0.299756,-0.396444 0.71521,-0.377733 z m 19.998747,0.397393 c 0.389787,-0.0021 0.693156,0.573103 0.727378,0.684316 0,0 -0.165914,0.293484 -0.469004,0.469475 -0.303094,0.175985 -0.391219,-0.293645 -0.899631,-0.586961 -0.508415,-0.293315 1.7e-4,-0.29328 0.469474,-0.518151 v -0.0093 c 0.05866,-0.0269 0.116096,-0.03903 0.171783,-0.03932 z m -5.838703,0.04868 c 0.05568,2.85e-4 0.113119,0.01243 0.171782,0.03932 0.469307,0.215094 0.97789,0.215061 0.469475,0.518151 v 0.0098 c -0.51819,0.293309 -0.58676,0.782034 -0.899632,0.58649 -0.312865,-0.195543 -0.469004,-0.469007 -0.469004,-0.469007 0.03422,-0.111216 0.337591,-0.686791 0.727379,-0.684784 z m 10.097666,1.272679 c 0.373518,-0.0307 0.905096,0.203926 1.161751,0.26259 0.518186,0.127099 0.09783,0.557265 0.09783,0.782142 0,0.224874 -0.254126,0.09757 -0.86031,-0.03932 -0.606181,-0.136883 -0.469646,0.09819 -1.026946,-0.09736 -0.557298,-0.195541 0.03907,-0.430633 0.342159,-0.782613 l -0.0192,0.0098 c 0.07333,-0.08555 0.180206,-0.125038 0.304711,-0.135275 z m -14.336505,0.06553 c 0.126189,0.01177 0.235856,0.053 0.314075,0.138549 0.312872,0.342204 0.899455,0.586604 0.34216,0.782145 l -0.0192,-0.0098 c -0.557295,0.175989 -0.430534,-0.03906 -1.026943,0.09783 -0.596409,0.136883 -0.860314,0.253947 -0.860314,0.03885 0,-0.2151 -0.430139,-0.645262 0.09783,-0.782146 0.249316,-0.07333 0.773826,-0.300684 1.152386,-0.265396 z m 19.472166,0.05149 c 0.487505,0.04679 0.944098,0.81023 0.944098,0.81023 0.127103,0.645292 -0.733373,0.03932 -1.241791,0.215312 -0.508409,0.175988 -0.342114,3.9e-5 -0.684316,-0.518154 -0.342205,-0.518193 0.215069,-0.254378 0.782145,-0.469475 l -0.0098,-0.0098 c 0.06966,-0.0269 0.140053,-0.03477 0.209696,-0.02807 z m -24.669612,0.05476 c 0.07031,-0.008 0.141619,-0.0021 0.212505,0.02247 0.567076,0.195544 1.114566,-0.0394 0.782143,0.469007 l -0.0098,0.0098 c -0.342205,0.51819 -0.166127,0.684364 -0.684316,0.518154 -0.51819,-0.16621 -1.368894,0.430447 -1.241792,-0.214845 0,0 0.449108,-0.748471 0.941289,-0.804612 z M 57.285684,20.751447 c -0.38116,0.357219 -0.756907,0.720168 -1.127112,1.088729 -0.41064,0.469304 -0.684418,0.850751 -0.703977,1.075625 -0.127102,1.026602 -0.127279,0.39104 -0.645466,0.254163 -0.01983,-0.0052 -0.038,0.04308 -0.05523,0.116081 -0.468459,0.154387 -0.477177,0.729593 -0.600064,-0.272418 -0.02933,-0.224874 -0.29334,-0.606322 -0.703977,-1.075622 -0.376259,-0.374837 -0.758249,-0.743873 -1.145834,-1.106987 1.388419,1.372518 1.363423,1.840962 1.51748,2.17278 0.254207,0.547524 -0.557001,1.290468 -0.557001,1.290468 -0.782176,0.899505 0.126844,1.417782 0.126844,1.417782 l -1.54463,1.271277 c 0,0 -8.740689,-5.788262 -21.86166,-6.159797 -13.120971,-0.371535 -19.036357,1.662123 -19.554544,1.926108 -0.5181862,0.263982 -1.5448895,0.645163 -1.4177829,1.026476 0.1271,0.381307 -1.27121,2.053392 -0.6454733,2.835567 0.6257463,0.782176 0,2.052953 0,2.052953 l 0.5087967,1.5451 c 0.1270996,0.645292 2.1897965,1.926113 2.8351005,2.190096 0.645287,0.263985 1.417854,1.026479 2.571568,1.026479 1.153711,0 1.925858,2.053419 2.316947,2.053419 0.391082,0 1.026818,0.126725 2.053419,1.417315 1.026605,1.290587 1.290555,1.662332 2.444262,2.053422 1.153707,0.391085 0.254381,1.026605 0.645469,1.926108 0.391087,0.899496 1.41765,0.899272 2.444258,1.27081 1.026605,0.371526 0.899287,1.026694 1.798792,1.417782 0.899497,0.391088 8.4e-5,1.74e-4 1.153791,0.645469 1.15371,0.645289 4.88852,-1.79926 4.88852,-1.79926 l -1.153791,1.554926 c 0,0 -0.517806,0.51819 -1.153324,1.926107 -0.635517,1.407909 0.127061,2.698547 0.254163,3.598053 0.127102,0.899496 -0.254163,2.316943 -0.254163,2.316943 0.353915,0.770321 0.782867,1.503898 1.280639,2.190099 0.518193,1.153704 0.645082,2.835564 1.798792,2.835564 1.153705,0 1.799173,2.443923 2.571574,3.343423 0.772394,0.899499 1.662089,0.391516 2.444261,0.25463 0.782172,-0.136877 1.603384,2.874454 2.962412,2.444261 1.886991,-0.586631 2.053261,-0.127153 3.598053,0.25416 1.544794,0.381306 1.798966,-0.782265 2.444258,-1.417783 0.645298,-0.635517 2.053515,0.51819 3.471205,0 1.417692,-0.518187 1.026607,-1.799215 1.926107,-2.053422 0.899503,-0.254205 1.153324,-0.782169 1.153324,-1.662113 l 0.127312,-7.97778 c 0.645295,1.290584 1.818351,0.674587 1.818351,0.674587 l -0.42623,0.112855 c 0.279407,0.056 0.786567,-0.03181 1.208474,-0.895099 0.635517,-1.300368 0.127315,7.068918 0.127315,7.968418 0,0.899502 0.254291,1.417686 1.153791,1.662116 0.899502,0.244427 0.51819,1.54454 1.926107,2.052952 1.407912,0.508412 2.83522,-0.645295 3.470738,0 0.635514,0.645292 0.899466,1.799086 2.444258,1.417785 1.544801,-0.381315 1.711053,-0.860346 3.598052,-0.254162 1.349248,0.430196 2.190018,-2.571364 2.962412,-2.444262 0.772404,0.127103 1.662075,0.645337 2.444262,-0.254159 0.782163,-0.899503 1.417866,-3.34389 2.571573,-3.34389 1.153704,0 1.270825,-1.662308 1.798792,-2.835567 0.527971,-1.173263 1.271278,-2.190099 1.271278,-2.190099 0,0 -0.39104,-1.41745 -0.254163,-2.316944 0.136886,-0.899505 0.899455,-2.190137 0.254163,-3.598052 -0.645301,-1.407914 -1.153791,-1.926107 -1.153791,-1.926107 l -1.143963,-1.515608 c 0,0 3.71526,2.444551 4.88852,1.799259 1.173257,-0.645295 0.254291,-0.254378 1.153791,-0.645468 0.899497,-0.391085 0.781963,-1.026692 1.798793,-1.417783 1.016824,-0.391084 2.053173,-0.390863 2.444258,-1.27081 0.391081,-0.879947 -0.518013,-1.544797 0.645469,-1.926107 1.163482,-0.381316 1.417668,-0.782388 2.444258,-2.053419 1.026608,-1.271035 1.662329,-1.417786 2.053422,-1.417786 0.391082,0 1.153453,-2.052952 2.316947,-2.052952 1.163479,0 1.926281,-0.782052 2.571573,-1.026476 0.645301,-0.244433 2.698218,-1.544804 2.835098,-2.190099 0.13688,-0.645295 0.51862,-1.545097 0.51862,-1.545097 0,0 -0.64529,-1.27078 0,-2.052955 0.6453,-0.782175 -0.78234,-2.44448 -0.64547,-2.835565 0.13688,-0.391087 -0.899585,-0.782049 -1.417782,-1.026479 -0.518185,-0.244429 -6.433568,-2.317192 -19.554544,-1.926104 -13.120968,0.391085 -21.861661,6.140136 -21.861661,6.140136 l -1.54463,-1.271277 c 0,0 0.899242,-0.518282 0.126845,-1.417782 0,0 -0.811212,-0.723392 -0.557002,-1.290467 0.153248,-0.341872 0.132537,-0.803223 1.498758,-2.154526 z" />
  <path
     style="font-variation-settings:normal;vector-effect:none;fill:#2c363c;fill-opacity:1;stroke:none;stroke-width:0.224299;stroke-linecap:butt;stroke-linejoin:miter;stroke-miterlimit:4;stroke-dasharray:none;stroke-dashoffset:0;stroke-opacity:1;-inkscape-stroke:none;stop-color:#000000"
     d="M 52.051263,20.587154 C 50.602452,19.166259 49.071575,17.831531 47.46652,16.589839 46.048827,15.563234 41.678369,11.31048 41.678369,11.31048 c -0.469301,-0.342201 -1.466675,-0.254414 5.670664,5.475014 2.339858,1.721513 3.77857,2.924074 4.70223,3.80166 z"
     id="path444" />
  <path
     style="font-variation-settings:normal;vector-effect:none;fill:#2c363c;fill-opacity:1;stroke:none;stroke-width:0.224299;stroke-linecap:butt;stroke-linejoin:miter;stroke-miterlimit:4;stroke-dasharray:none;stroke-dashoffset:0;stroke-opacity:1;-inkscape-stroke:none;stop-color:#000000"
     d="m 52.304021,20.831018 c -0.07933,-0.07842 -0.163754,-0.1593 -0.252758,-0.243864 0.08453,0.081 0.168781,0.162292 0.252758,0.243864 z"
     id="path443" />
  <path
     style="font-variation-settings:normal;vector-effect:none;fill:#2c363c;fill-opacity:1;stroke:none;stroke-width:0.224299;stroke-linecap:butt;stroke-linejoin:miter;stroke-miterlimit:4;stroke-dasharray:none;stroke-dashoffset:0;stroke-opacity:1;-inkscape-stroke:none;stop-color:#000000"
     d="m 57.566996,20.479499 c -0.100396,0.095 -0.193117,0.184718 -0.281312,0.271948 0.09343,-0.091 0.187201,-0.181653 0.281312,-0.271948 z"
     id="path441" />
  <path
     style="font-variation-settings:normal;vector-effect:none;fill:#2c363c;fill-opacity:1;stroke:none;stroke-width:0.224299;stroke-linecap:butt;stroke-linejoin:miter;stroke-miterlimit:4;stroke-dasharray:none;stroke-dashoffset:0;stroke-opacity:1;-inkscape-stroke:none;stop-color:#000000"
     d="m 68.187495,11.095168 c -0.06637,5.99e-4 -0.171276,0.05149 -0.257437,0.117487 l -5.788151,5.279825 c -1.601403,1.238667 -3.128985,2.569947 -4.574911,3.987019 0.924121,-0.874474 2.359799,-2.072154 4.692398,-3.791834 5.783199,-4.663104 6.215728,-5.595567 5.928101,-5.592497 z"
     id="path2" />
  <g
     id="g6"
     style="fill:#efedec;fill-opacity:1;stroke:none"
     transform="matrix(-0.23965167,0,0,0.23965167,-14.331192,10.113804)" />
  <g
     id="g8"
     style="fill:#efedec;fill-opacity:1;stroke:none"
     transform="matrix(-0.23965167,0,0,0.23965167,-14.331192,10.113804)" />
  <g
     id="g10"
     style="fill:#efedec;fill-opacity:1;stroke:none"
     transform="matrix(0.23965167,0,0,0.23965167,123.93885,10.071053)" />
</svg>
