<?xml version="1.0" encoding="UTF-8" standalone="no"?>
<!-- Created with Inkscape (http://www.inkscape.org/) -->

<svg
   width="5120"
   height="2160"
   viewBox="0 0 1354.6667 571.50005"
   version="1.1"
   id="svg1"
   inkscape:version="1.4 (e7c3feb1, 2024-10-09)"
   sodipodi:docname="gnu-ibi-libertas.svg"
   xml:space="preserve"
   inkscape:export-filename="gnu-ibi-libertas.png"
   inkscape:export-xdpi="96"
   inkscape:export-ydpi="96"
   xmlns:inkscape="http://www.inkscape.org/namespaces/inkscape"
   xmlns:sodipodi="http://sodipodi.sourceforge.net/DTD/sodipodi-0.dtd"
   xmlns:xlink="http://www.w3.org/1999/xlink"
   xmlns="http://www.w3.org/2000/svg"
   xmlns:svg="http://www.w3.org/2000/svg"><sodipodi:namedview
     id="namedview1"
     pagecolor="#ffffff"
     bordercolor="#999999"
     borderopacity="1"
     inkscape:showpageshadow="2"
     inkscape:pageopacity="0"
     inkscape:pagecheckerboard="0"
     inkscape:deskcolor="#d1d1d1"
     inkscape:document-units="mm"
     inkscape:zoom="0.78202342"
     inkscape:cx="2428.316"
     inkscape:cy="1377.836"
     inkscape:window-width="1712"
     inkscape:window-height="1040"
     inkscape:window-x="0"
     inkscape:window-y="39"
     inkscape:window-maximized="1"
     inkscape:current-layer="g1" /><defs
     id="defs1"><linearGradient
       id="swatch30"
       inkscape:swatch="solid"><stop
         style="stop-color:#08fe1b;stop-opacity:1;"
         offset="0"
         id="stop30" /></linearGradient><linearGradient
       xlink:href="#linearGradient421"
       id="linearGradient422"
       x1="542.05408"
       y1="412.49466"
       x2="4348.3213"
       y2="3210.8206"
       gradientUnits="userSpaceOnUse"
       gradientTransform="matrix(0.04396486,0,0,0.04396486,768.65588,-53.889528)" /><linearGradient
       id="linearGradient421"><stop
         style="stop-color:#4078f2;stop-opacity:0.5;"
         offset="0"
         id="stop421" /><stop
         style="stop-color:#ca3ec9;stop-opacity:0.5;"
         offset="1"
         id="stop422" /></linearGradient><clipPath
       id="SVGID_2_">
		<path
   id="use5"
   d="m 272.18,121.361 c 26.74,-6.701 56.3,-7.089 81.501,5.301 20.14,9.69 33.449,29.62 39.97,50.47 10.551,33.199 9.3,68.5 8.89,102.909 -0.05,20.741 8.349,40.58 19.999,57.41 13.7,20.361 30.88,38.061 45.15,57.989 11.999,16.861 22.92,34.621 31.05,53.701 7.87,18.31 13.12,37.881 14.199,57.83 1.469,15.541 -2.63,30.821 -5.699,45.91 3.829,3.42 9.06,5.42 12.371,9.6 11.97,14.05 8.179,35.059 19.79,49.301 6.43,7.759 13.45,15.48 16.83,25.159 1.78,5.37 2.29,11.529 -0.069,16.811 -3.611,6.52 -9.421,11.518 -15.591,15.539 -11.181,7.07 -23.87,11.22 -35.36,17.711 -5,2.96 -10.219,5.609 -14.701,9.35 -13.248,10.628 -23.039,25.3 -37.868,34.02 -16.93,10.958 -38.922,17.138 -58.411,9.518 -14.989,-5.439 -25.359,-18.939 -31.09,-33.338 -25.13,1.44 -49.779,-7.11 -74.899,-4.4 -17.6,1.108 -34.61,6.438 -52.21,7.549 -6.6,12.209 -18.352,21.75 -32.091,24.471 -24.559,5.58 -49.769,-2.221 -71.679,-13.211 -24.872,-12.64 -53.781,-9.201 -80.061,-16.691 -8.09,-2.479 -15.809,-8.128 -18.57,-16.389 -2.12,-7.19 -1.65,-14.959 0.369,-22.109 2.25,-8.441 5.699,-16.891 4.79,-25.81 -1.121,-11.3 -4.591,-22.6 -2.689,-34.02 1.608,-10.051 8.718,-18.771 17.93,-22.93 9.94,-5.101 22.29,-6.31 30.08,-15.01 6.789,-7.24 12.079,-15.732 18.708,-23.111 -0.71,-12.31 -0.789,-24.74 1.341,-36.93 5.32,-32.811 20.61,-62.981 37.969,-90.96 8.311,-13.181 17.38,-25.871 27,-38.12 7.251,-9.419 15.48,-18.131 21.591,-28.39 11.09,-17.911 17.97,-38.42 19.89,-59.4 1.99,-33.949 -4.961,-68.211 1.299,-101.95 3.01,-16.269 9.069,-32.54 20.65,-44.699 10.461,-11.502 24.482,-19.611 39.621,-23.081 z" />
	</clipPath><filter
       style="color-interpolation-filters:sRGB"
       inkscape:label="Greyscale"
       id="filter1008"
       x="0"
       y="0"
       width="1"
       height="1"><feColorMatrix
         values="0.21 0.72 0.072 0 0 0.21 0.72 0.072 0 0 0.21 0.72 0.072 0 0 0 0 0 1 0 "
         id="feColorMatrix1006"
         result="fbSourceGraphic" /><feColorMatrix
         result="fbSourceGraphicAlpha"
         in="fbSourceGraphic"
         values="0 0 0 -1 0 0 0 0 -1 0 0 0 0 -1 0 0 0 0 1 0"
         id="feColorMatrix1046" /><feColorMatrix
         id="feColorMatrix1048"
         values="0.21 0.72 0.072 0 0 0.21 0.72 0.072 0 0 0.21 0.72 0.072 0 0 0 0 0 1 0 "
         in="fbSourceGraphic"
         result="fbSourceGraphic" /><feColorMatrix
         result="fbSourceGraphicAlpha"
         in="fbSourceGraphic"
         values="0 0 0 -1 0 0 0 0 -1 0 0 0 0 -1 0 0 0 0 1 0"
         id="feColorMatrix1086" /><feColorMatrix
         id="feColorMatrix1088"
         values="0.21 0.72 0.072 0 0 0.21 0.72 0.072 0 0 0.21 0.72 0.072 0 0 0 0 0 1 0 "
         in="fbSourceGraphic" /></filter><clipPath
       id="SVGID_4_">
			<rect
   id="use11"
   width="593"
   height="771"
   x="0"
   y="0" />
		</clipPath><clipPath
       id="SVGID_6_">
		<path
   id="use23"
   d="m 545.72,654.57 c -5.17,5.97 -12.539,9.281 -19.428,12.801 -16.112,7.96 -33.191,14.869 -46.66,27.11 -8.85,8.16 -16.131,18.02 -26.001,25.061 -12.53,9.308 -27.75,15.73 -43.54,15.52 -18.36,-0.821 -35.96,-15.31 -38.21,-33.89 -2.75,-30.63 15.411,-57.971 16.561,-88.17 1.02,-16.271 1.589,-32.82 6.441,-48.509 2.71,-8.491 7.719,-17.252 16.511,-20.512 1.789,10.45 4.78,21.482 12.669,29.06 4.161,4.301 10.06,6.762 16.051,6.741 14.529,0.6 27.689,-7.36 38.399,-16.439 4.429,-4.052 10.75,-5.54 16.609,-4.562 7.601,1.211 15.471,4.7 19.611,11.521 6.119,9.47 6.65,21.051 9.919,31.581 4.301,15.809 20.801,24.798 24.29,41.009 1.55,4.199 -0.432,8.538 -3.222,11.678 z m -333.049,67.882 c -8.561,3.98 -18.161,5.37 -27.54,5.179 -17.401,-0.46 -34.111,-6.529 -49.471,-14.329 -16.32,-8.07 -34.661,-10.29 -52.519,-12.281 -10.721,-1.4 -21.851,-1.7 -31.911,-6.058 -4.69,-1.982 -8.991,-5.872 -9.77,-11.13 -2.059,-10.691 2.12,-21.131 5.059,-31.23 3.361,-13.57 -2.97,-26.979 -2.29,-40.602 -0.059,-6.51 2.2,-13.28 7.331,-17.539 9.791,-8.269 23.77,-8.351 33.861,-16.131 10.769,-8.38 16.03,-21.91 27.08,-29.998 2.889,-2.311 6.579,-3.141 10.19,-3.451 7.939,-0.54 16.179,2.019 22.13,7.4 9.619,8.361 16.819,19.101 22.779,30.279 7.23,13.351 13.091,27.51 21.91,39.951 11.401,15.541 25.281,29.299 34.81,46.179 2.952,5.431 5.991,11.031 6.831,17.252 2.099,14.368 -5.41,29.908 -18.48,36.509 z m 281.13,-172.331 c -1.82,0.21 -3.64,0.199 -5.441,0.311 1.28,-7.95 -2.62,-15.931 -9.06,-20.531 -6.22,-4.469 -13.19,-7.799 -20.09,-11.059 -10.7,-4.732 -22.869,-8.011 -34.491,-5.061 -8.359,2.891 -11.409,12.161 -13.15,19.981 -7.889,3.47 -14.579,9.409 -19.149,16.689 -5.909,9.041 -7.87,19.901 -9.44,30.401 -2.939,21.57 -1.65,44.051 -9.47,64.709 -1.249,2.83 -2.131,6.17 -4.841,7.981 -17.529,12.719 -38.16,21.129 -59.589,24.248 -25.97,4.031 -53.81,-0.38 -76.001,-14.898 -8.848,-6.881 -13.689,-17.361 -21.139,-25.521 8.531,-0.77 17.69,-5.08 20.94,-13.511 1.761,-3.51 0.279,-7.379 -0.749,-10.849 -3.539,-10.941 -10.649,-20.31 -18.631,-28.422 -9.531,-9.22 -19.869,-17.68 -31.191,-24.62 -10.068,-6.34 -20.579,-12.749 -27.769,-22.479 -11.741,-15.02 -15.291,-35.311 -11.781,-53.802 5.16,-29.339 20.002,-55.779 35.75,-80.649 -2.53,15.031 -12.82,26.969 -18.14,40.939 -6.021,14.191 -9.969,29.49 -9.61,44.98 0.04,14.369 4.541,28.68 12.931,40.37 1.069,-10.181 1.78,-20.421 3.898,-30.452 3.252,-16.79 8.542,-33.178 15.641,-48.73 10.45,-22.77 21.689,-45.209 30.75,-68.589 7.979,-20.73 14.34,-42.342 16.03,-64.571 10.24,4.99 18.37,13.171 27.37,19.97 9.209,6.489 21.15,6.579 31.9,5.189 14.789,-2.33 25.709,-13.79 39.611,-18.48 9.568,-3.271 17.869,-9.4 24.979,-16.479 11,38.609 25.672,76.179 43.841,111.98 13.62,25.059 25.359,51.538 30.68,79.7 2.059,5.92 10.259,5.359 15.15,3.749 6.22,-18.349 4.849,-38.59 -1.681,-56.65 -4.068,-11.651 -9.999,-22.59 -17.04,-32.689 -5.29,-7.421 -13.059,-13.04 -16.891,-21.461 8.431,4.27 14.321,11.919 19.85,19.319 10.461,13.441 18.761,28.592 24.211,44.731 5.431,16.42 7.209,34.4 2.729,51.259 9.921,6.212 21.102,10.521 29.92,18.4 3.701,3.531 7.591,7.461 8.731,12.631 0.672,3.946 0.611,7.985 0.432,11.966 z M 267.9,250.361 c -4.169,1.78 -8.309,3.611 -12.449,5.471 -0.842,-6.451 -1.161,-13.471 -5.25,-18.862 -1.87,-2.429 -4.751,-5.12 -8.09,-4.119 -4.129,1.06 -6.64,5.059 -7.49,9.01 -2.399,9.249 0.659,19.139 6.329,26.57 -2.779,1.709 -5.529,3.47 -8.298,5.179 -9.31,-12.239 -13.171,-28.779 -9.092,-43.729 1.791,-6.709 5.16,-13.431 11.09,-17.39 4.432,-3.159 10.731,-4.44 15.66,-1.679 7.48,3.879 12.52,11.3 15.06,19.17 2.261,6.539 2.75,13.508 2.53,20.379 z m 76.74,22.519 c -5.25,-1.919 -10.368,-4.159 -15.56,-6.21 2.301,-5.989 4.62,-12.169 4.501,-18.69 0.019,-6.9 -2.49,-14.13 -7.92,-18.61 -4.031,-3.17 -10.33,-2.29 -13.63,1.53 -6.629,6.18 -6.579,15.9 -7.78,24.219 -4.549,-1.509 -8.989,-3.34 -13.519,-4.9 -1.7,-11.439 0.749,-23.499 7.469,-32.99 5.261,-7.931 14.18,-13.899 23.921,-13.83 8.21,-0.151 15.669,4.599 21.039,10.479 14.12,16.144 13.701,41.883 1.479,59.002 z" />
	</clipPath><filter
       style="color-interpolation-filters:sRGB"
       inkscape:label="Greyscale"
       id="filter1004"
       x="0"
       y="0"
       width="1"
       height="1"><feColorMatrix
         values="0.21 0.72 0.072 0 0 0.21 0.72 0.072 0 0 0.21 0.72 0.072 0 0 0 0 0 1 0 "
         id="feColorMatrix1002"
         result="fbSourceGraphic" /><feColorMatrix
         result="fbSourceGraphicAlpha"
         in="fbSourceGraphic"
         values="0 0 0 -1 0 0 0 0 -1 0 0 0 0 -1 0 0 0 0 1 0"
         id="feColorMatrix1042" /><feColorMatrix
         id="feColorMatrix1044"
         values="0.21 0.72 0.072 0 0 0.21 0.72 0.072 0 0 0.21 0.72 0.072 0 0 0 0 0 1 0 "
         in="fbSourceGraphic"
         result="fbSourceGraphic" /><feColorMatrix
         result="fbSourceGraphicAlpha"
         in="fbSourceGraphic"
         values="0 0 0 -1 0 0 0 0 -1 0 0 0 0 -1 0 0 0 0 1 0"
         id="feColorMatrix1082" /><feColorMatrix
         id="feColorMatrix1084"
         values="0.21 0.72 0.072 0 0 0.21 0.72 0.072 0 0 0.21 0.72 0.072 0 0 0 0 0 1 0 "
         in="fbSourceGraphic" /></filter><clipPath
       id="SVGID_8_">
			<rect
   id="use29"
   width="593"
   height="771"
   x="0"
   y="0" />
		</clipPath><clipPath
       id="SVGID_10_">
		<path
   id="use41"
   d="m 231.151,685.942 c 2.099,14.369 -5.41,29.91 -18.48,36.51 -8.561,3.98 -18.161,5.37 -27.54,5.179 -17.401,-0.46 -34.111,-6.529 -49.471,-14.329 -16.32,-8.07 -34.661,-10.29 -52.519,-12.281 -10.721,-1.4 -21.851,-1.7 -31.911,-6.058 -4.69,-1.982 -8.991,-5.872 -9.77,-11.13 -2.059,-10.691 2.12,-21.131 5.059,-31.23 3.361,-13.57 -2.97,-26.979 -2.29,-40.602 -0.059,-6.51 2.2,-13.28 7.331,-17.539 9.791,-8.269 23.77,-8.351 33.861,-16.131 10.769,-8.38 16.03,-21.91 27.08,-29.998 2.889,-2.311 6.579,-3.141 10.19,-3.451 7.939,-0.54 16.179,2.019 22.13,7.4 9.619,8.361 16.819,19.101 22.779,30.279 7.23,13.351 13.091,27.51 21.91,39.951 11.401,15.541 25.281,29.299 34.81,46.179 2.951,5.43 5.991,11.03 6.831,17.251 z m 66.59,-375.181 c -12.331,5.441 -27.08,6.879 -39.56,1.129 -11.311,-5.338 -20.159,-14.388 -29.78,-22.16 0.021,1.881 0.069,3.76 0.149,5.651 9.581,10.259 21.062,19.439 34.78,23.329 8.412,2.511 17.47,2.311 25.9,-0.01 15.751,-4.06 29.081,-13.779 43.41,-21.009 3.991,-1.7 8,-4.07 9.3,-8.521 -16.109,4.07 -29.03,15.291 -44.199,21.591 z m 39.321,4.11 c -5.452,3.26 -11.731,4.679 -17.3,7.7 -10.121,5.17 -19.351,12.52 -30.59,15.18 -8.901,1.95 -18.66,1.469 -26.671,-3.189 -7.381,-3.69 -12.509,-10.391 -19.399,-14.77 -7.192,-4.902 -15.19,-9.47 -19.63,-17.26 -2.641,-4.301 -3.09,-10.15 -0.17,-14.42 3.619,-5.832 10.419,-8.21 15.39,-12.621 10.33,-8.24 20.01,-18.891 33.63,-21.309 10.15,-1.82 20.579,0.46 29.65,5.179 8.019,3.861 15.6,8.71 24.091,11.54 7.599,2.71 15.77,4.78 22.12,10.03 3.909,3.401 7.28,8.79 5.639,14.12 -2.162,8.78 -9.132,15.47 -16.76,19.82 z M 545.72,654.57 c -5.17,5.97 -12.539,9.281 -19.428,12.801 -16.112,7.96 -33.191,14.869 -46.66,27.11 -8.85,8.16 -16.131,18.02 -26.001,25.061 -12.53,9.308 -27.75,15.73 -43.54,15.52 -18.36,-0.821 -35.96,-15.31 -38.21,-33.89 -2.75,-30.63 15.411,-57.971 16.561,-88.17 1.02,-16.271 1.589,-32.82 6.441,-48.509 2.71,-8.491 7.719,-17.252 16.511,-20.512 1.789,10.45 4.78,21.482 12.669,29.06 4.161,4.301 10.06,6.762 16.051,6.741 14.529,0.6 27.689,-7.36 38.399,-16.439 4.429,-4.052 10.75,-5.54 16.609,-4.562 7.601,1.211 15.471,4.7 19.611,11.521 6.119,9.47 6.65,21.051 9.919,31.581 4.301,15.809 20.801,24.798 24.29,41.009 1.55,4.199 -0.432,8.538 -3.222,11.678 z" />
	</clipPath><filter
       style="color-interpolation-filters:sRGB"
       inkscape:label="Greyscale"
       id="filter1000"
       x="0"
       y="0"
       width="1"
       height="1"><feColorMatrix
         values="0.21 0.72 0.072 0 0 0.21 0.72 0.072 0 0 0.21 0.72 0.072 0 0 0 0 0 1 0 "
         id="feColorMatrix998"
         result="fbSourceGraphic" /><feColorMatrix
         result="fbSourceGraphicAlpha"
         in="fbSourceGraphic"
         values="0 0 0 -1 0 0 0 0 -1 0 0 0 0 -1 0 0 0 0 1 0"
         id="feColorMatrix1038" /><feColorMatrix
         id="feColorMatrix1040"
         values="0.21 0.72 0.072 0 0 0.21 0.72 0.072 0 0 0.21 0.72 0.072 0 0 0 0 0 1 0 "
         in="fbSourceGraphic"
         result="fbSourceGraphic" /><feColorMatrix
         result="fbSourceGraphicAlpha"
         in="fbSourceGraphic"
         values="0 0 0 -1 0 0 0 0 -1 0 0 0 0 -1 0 0 0 0 1 0"
         id="feColorMatrix1078" /><feColorMatrix
         id="feColorMatrix1080"
         values="0.21 0.72 0.072 0 0 0.21 0.72 0.072 0 0 0.21 0.72 0.072 0 0 0 0 0 1 0 "
         in="fbSourceGraphic" /></filter><clipPath
       id="SVGID_12_">
			<rect
   id="use47"
   width="593"
   height="771"
   x="0"
   y="0" />
		</clipPath><clipPath
       id="SVGID_14_">
		<path
   id="use59"
   d="m 500.114,66.466 c -16.987,-17.82 -40.478,-28.907 -64.736,-32.274 -14.05,-1.782 -29.505,-1.721 -41.88,6.073 -6.285,3.758 -13.347,6.371 -20.69,6.867 -2.973,0.235 -6.035,0.006 -8.892,0.987 -0.632,3.818 2.076,7.024 5.244,8.722 8.323,4.656 18.035,5.746 27.376,6.615 6.325,0.678 12.724,-0.162 19.015,0.926 28.659,3.915 52.708,28.138 57.681,56.419 1.335,8.099 0.89,16.79 -2.962,24.173 -3.554,7.041 -10.717,12.146 -18.57,13.045 -7.041,0.957 -14.164,-1.283 -20.104,-4.99 -7.135,-4.425 -12.768,-10.868 -17.48,-17.726 -4.278,-6.426 -7.505,-13.488 -11.997,-19.783 -9.629,-14.241 -22.75,-27 -39.304,-32.631 -12.625,-4.45 -26.799,-3.567 -39.044,1.673 -5.41,2.196 -10.33,5.376 -15.161,8.62 -8.481,-8.865 -19.724,-15.704 -32.125,-16.851 -12.959,-1.528 -25.804,3.174 -36.745,9.803 -13.723,8.342 -23.881,21.03 -35.645,31.715 -7.24,6.419 -15.841,12.05 -25.649,13.255 -7.186,0.766 -13.395,-4.394 -16.548,-10.444 -6.144,-11.642 -6.604,-25.447 -4.576,-38.213 1.749,-10.003 5.832,-20.312 14.067,-26.73 10.379,-8.319 24.232,-10.433 37.163,-9.266 9.298,0.195 19.296,2.16 27.953,-2.294 3.031,-1.686 6.898,-3.672 7.274,-7.549 -7.324,-1.121 -14.703,-2.101 -21.843,-4.184 -7.583,-2.12 -14.915,-5.051 -22.09,-8.284 -6.344,-2.798 -12.457,-6.522 -19.449,-7.444 -10.7,-1.795 -21.645,1.369 -30.806,6.862 -11.598,6.969 -20.961,17.212 -28.14,28.596 -7.746,12.476 -13.154,26.591 -14.535,41.271 -0.993,9.465 0.193,19.118 3.422,28.075 4.709,13.939 9.379,28.59 19.494,39.676 9.348,10.171 23.249,13.74 36.218,16.743 -6.262,8.823 -14.724,17.577 -25.961,19.139 -2.185,0.498 -5.17,0.214 -6.319,2.593 -0.924,3.541 2.626,5.981 5.059,7.851 11.296,7.362 25.81,8.714 38.704,5.357 12.377,-3.138 23.066,-10.901 31.644,-20.161 -0.909,8.149 1.373,16.12 1.923,24.188 -4.902,3.81 -10.746,7.064 -17.157,6.68 -3.764,-0.067 -7.251,-2.794 -11.057,-1.566 -4.673,1.602 -7.606,6.096 -9.218,10.542 -2.851,7.74 -1.856,16.926 3.084,23.602 3.917,5.265 9.274,9.463 12.239,15.413 1.276,2.368 1.478,5.506 -0.16,7.757 -1.998,3.059 -6.094,3.921 -7.887,7.16 -1.136,2.811 0.237,5.796 1.921,8.061 3.625,4.694 8.67,8.032 13.786,10.897 -3.963,3.739 -6.613,9.226 -5.838,14.758 0.565,5.383 3.621,10.887 8.769,13.055 3.462,1.488 6.9,-1.243 10.442,-0.479 6.527,0.426 11.237,7.236 10.053,13.519 -1.707,7.368 -1.514,15.677 2.756,22.183 4.203,6.48 11.649,10.028 19.025,11.489 12.549,2.347 25.567,0.216 37.444,-4.138 15.047,-5.609 28.993,-15.541 37.087,-29.662 1.182,1.959 1.148,5.065 3.325,6.176 3.72,-0.231 6.715,-2.966 9.201,-5.498 6.948,-7.797 8.594,-18.44 12.446,-27.8 2.775,2.12 2.509,6.182 4.599,8.865 4.696,-1.123 7.677,-5.406 9.699,-9.474 3.071,-6.203 3.743,-13.183 5.788,-19.712 0.313,0.046 0.94,0.143 1.264,0.191 0.928,2.406 1.627,4.891 2.334,7.368 0.869,-0.479 1.755,-0.97 2.252,-1.862 3.579,-4.994 6.065,-10.748 7.354,-16.748 1.965,-8.107 1.432,-16.506 1.043,-24.765 6.594,8.292 15.536,14.327 24.834,19.193 11.227,5.674 23.283,10.141 35.849,11.525 4.358,0.273 9.514,0.768 13.066,-2.294 2.527,-2.527 0.796,-6.392 -0.833,-8.907 -3.453,-4.876 -7.026,-9.692 -9.621,-15.102 -7.007,-13.771 -8.876,-29.343 -10.53,-44.496 18.469,2.616 38.21,-0.281 53.993,-10.633 16.009,-10.248 26.583,-27.143 32.723,-44.819 6.01,-17.642 9.549,-36.567 6.913,-55.191 -2.262,-17.06 -10.16,-33.222 -21.974,-45.708 z" />
	</clipPath><filter
       style="color-interpolation-filters:sRGB"
       inkscape:label="Greyscale"
       id="filter996"
       x="0"
       y="0"
       width="1"
       height="1"><feColorMatrix
         values="0.21 0.72 0.072 0 0 0.21 0.72 0.072 0 0 0.21 0.72 0.072 0 0 0 0 0 1 0 "
         id="feColorMatrix994"
         result="fbSourceGraphic" /><feColorMatrix
         result="fbSourceGraphicAlpha"
         in="fbSourceGraphic"
         values="0 0 0 -1 0 0 0 0 -1 0 0 0 0 -1 0 0 0 0 1 0"
         id="feColorMatrix1034" /><feColorMatrix
         id="feColorMatrix1036"
         values="0.21 0.72 0.072 0 0 0.21 0.72 0.072 0 0 0.21 0.72 0.072 0 0 0 0 0 1 0 "
         in="fbSourceGraphic"
         result="fbSourceGraphic" /><feColorMatrix
         result="fbSourceGraphicAlpha"
         in="fbSourceGraphic"
         values="0 0 0 -1 0 0 0 0 -1 0 0 0 0 -1 0 0 0 0 1 0"
         id="feColorMatrix1074" /><feColorMatrix
         id="feColorMatrix1076"
         values="0.21 0.72 0.072 0 0 0.21 0.72 0.072 0 0 0.21 0.72 0.072 0 0 0 0 0 1 0 "
         in="fbSourceGraphic" /></filter><clipPath
       id="SVGID_16_">
			<rect
   id="use65"
   width="593"
   height="771"
   x="0"
   y="0" />
		</clipPath><clipPath
       id="SVGID_18_">
		<path
   id="use77"
   d="m 315.057,176.516 c -5.956,-5.83 -15.043,-7.016 -22.983,-5.998 -1.203,-2.775 -1.081,-5.872 -1.868,-8.758 -1.742,2.662 -2.097,5.863 -2.916,8.857 -0.456,2.059 -2.991,3.023 -3.054,5.233 -0.147,2.026 1.952,4.446 4.073,3.495 3.159,-0.829 6.508,-2.964 9.791,-1.526 2.727,1.488 1.644,6.073 -1.434,6.161 -2.303,0.391 -3.17,-2.001 -4.264,-3.497 -1.7,3.758 -1.171,8.634 2.292,11.206 4.087,3.569 11.16,1.81 13.202,-3.18 1.902,-3.628 0.258,-7.883 -2.475,-10.572 4.203,1.553 8.09,5.469 7.511,10.257 -0.021,4.725 -3.856,7.822 -6.178,11.493 4.005,0.42 7.362,-2.511 9.6,-5.496 3.891,-5.22 3.404,-13.121 -1.297,-17.675 z m -36.262,63.664 c -5.552,-7.255 -15.379,-10.276 -24.223,-8.817 -10.927,1.73 -20.566,7.862 -28.867,14.909 -0.98,0.81 -1.516,1.992 -2.141,3.077 0.309,0.884 0.611,1.759 0.905,2.649 0.791,0.439 1.583,0.892 2.368,1.339 4.461,-1.409 7.671,-5.007 11.464,-7.543 6.621,-4.627 13.926,-9.344 22.273,-9.507 6.94,0.269 13.448,5.372 15.289,12.102 1.852,6.556 0.248,13.376 -1.333,19.802 3.674,-2.364 5.601,-6.522 6.844,-10.559 1.739,-5.801 1.265,-12.569 -2.579,-17.452 z m -30.019,27.691 c 1.02,-3.086 1.425,-7.198 4.839,-8.632 1.933,-0.827 3.224,1.152 4.549,2.156 4.287,4.138 12.146,0.657 13.362,-4.753 0.668,-3.56 -2.733,-6.037 -5.628,-7.198 -3.667,-1.734 -8.09,-1.205 -11.424,1.024 -4.133,2.733 -7.337,6.858 -9.134,11.468 -1.237,2.547 0.952,5.341 3.436,5.935 z m 177.72,5.368 c -2.284,-0.128 -4.358,-1.205 -6.371,-2.196 -5.995,-3.155 -11.875,-6.833 -16.406,-11.945 -3.674,-4.123 -5.92,-9.212 -8.85,-13.828 -0.689,-1.155 -1.868,-1.862 -2.912,-2.662 -1.253,1.358 -2.465,2.767 -3.833,4.016 -1.249,0.048 -1.442,-1.358 -1.749,-2.265 -1.096,-4.383 -1.648,-8.88 -2.582,-13.295 -0.751,-3.39 -1.379,-7.041 -3.85,-9.665 -0.934,0.575 -1.868,1.15 -2.807,1.742 -1.7,-1.064 -3.187,-2.467 -4.079,-4.285 -3.495,-6.451 -5.292,-13.79 -5.576,-21.104 0.136,-6.818 1.094,-13.698 -0.097,-20.48 -1.236,-8.693 -5.445,-17.247 -12.711,-22.443 -4.895,-3.474 -10.834,-5.914 -16.895,-5.886 -1.778,-0.244 -2.022,2.25 -0.607,2.935 3.182,2.034 7.11,2.924 9.738,5.788 5.086,5.072 6.147,12.671 6.354,19.54 0.006,11.735 -0.773,23.509 0.208,35.229 0.54,6.814 2.737,13.332 5.242,19.651 1.451,3.478 1.402,7.37 0.833,11.044 -0.474,2.815 -1.096,5.813 -3.321,7.805 -2.124,-3.85 -3.556,-8.233 -6.823,-11.33 -0.598,-0.634 -2.177,-1.184 -2.569,-0.05 -0.94,3.628 0.395,7.389 -0.174,11.069 -1.377,9.237 -3.936,18.257 -6.869,27.112 -1.629,4.228 -2.689,8.897 -5.788,12.362 -2.043,-5.754 -4.06,-12.318 -9.245,-16.011 -4.312,17.1 -9.203,34.249 -17.455,49.926 -6.035,11.5 -14.218,22.227 -25.229,29.368 -10.859,7.228 -24.061,10.259 -36.991,10.263 3.352,-4.572 5.609,-10.204 4.826,-15.958 -0.691,-6.749 -4.933,-13.139 -11.216,-15.9 -10.454,-4.713 -22.206,-3.894 -33.246,-6.115 -3.56,-0.733 -7.923,-2.066 -9.022,-6.019 -1.585,-5.563 3.155,-10.826 8.265,-12.264 8.084,-2.383 16.437,0.875 23.583,4.568 10.568,5.393 23.446,5.429 34.205,0.535 9.075,-4.156 17.411,-10.555 22.81,-19.034 2.007,-3.392 3.951,-7.184 3.436,-11.252 -3.086,3.26 -5.141,7.358 -8.393,10.505 -6.856,7.217 -15.127,13.75 -25.004,16.063 -6.369,1.511 -12.91,-0.344 -18.837,-2.679 -9.041,-3.462 -17.986,-7.566 -27.664,-8.907 -4.849,-0.768 -9.929,0.665 -14.623,-1.146 -2.412,-0.913 -4.31,-3.447 -3.619,-6.096 0.523,-4.085 4.209,-6.424 6.862,-9.104 2.664,-2.475 2.872,-6.751 1.005,-9.745 -3.783,-6.606 -10.427,-10.83 -15.018,-16.777 -4.052,-6.306 -4.062,-14.909 -0.542,-21.448 1.667,-3.252 5.664,-5.735 9.256,-3.963 5.181,2.458 11.33,1.635 16.074,-1.402 8.08,-5.101 13.645,-13.355 17.34,-22.015 4.52,-10.45 13.064,-18.278 20.029,-27.047 1.444,-1.919 3.252,-4.175 2.473,-6.741 -1.113,-3.588 -0.64,-7.326 -0.416,-10.996 -1.705,0.785 -2.704,2.471 -4.238,3.464 -3.155,0.376 -6.096,-1.442 -9.144,-2.053 -5.028,-1.518 -10.515,-0.764 -15.077,1.789 0.157,-8.607 6.781,-15.259 7.965,-23.533 -0.435,-0.107 -1.299,-0.315 -1.736,-0.414 -6.695,3.487 -11.082,10.314 -13.674,17.226 -4.65,11.808 -8.198,24.635 -17.174,34.062 -1.814,1.872 -4.219,4.461 -7.123,3.292 -1.499,-1.1 -2.605,-2.63 -3.873,-3.97 -3.199,2.173 -5.769,5.126 -9.048,7.205 -5.821,3.837 -13.095,6.157 -20.054,4.501 -0.936,-0.126 -1.702,-0.739 -2.242,-1.486 6.422,-1.138 11.29,-5.886 15.387,-10.622 7.784,-9.228 13.677,-19.859 19.216,-30.54 6.701,-12.78 17.18,-23.921 30.395,-30.002 10.538,-4.91 23.279,-5.477 33.922,-0.594 5.473,3.277 10.301,7.885 16.59,9.633 4.845,1.589 9.942,0.372 14.634,-1.1 11.12,-3.552 22.37,-7.305 34.132,-7.818 6.604,-0.204 13.412,-0.283 19.735,1.915 9.344,3.31 17.535,9.046 26.453,13.25 4.788,2.332 10.018,3.583 14.754,6.029 12.425,5.947 22.479,16.397 28.361,28.818 8.086,16.678 10.007,35.597 9.627,53.915 -0.353,12.369 6.163,23.339 10.958,34.312 0.547,1.575 1.775,4.016 0.104,5.253 z M 227.183,168.678 c 3.623,0.046 7.297,-0.101 10.851,0.695 1.677,0.447 3.55,1.169 4.337,2.851 0.628,2.391 -0.754,4.788 -2.496,6.333 -3.737,3.394 -8.315,5.867 -11.462,9.894 -5.408,6.35 -6.121,15.27 -11.235,21.794 -0.376,0.735 -1.816,1.092 -2.001,0.006 -0.892,-4.196 -0.592,-8.533 -0.953,-12.786 -0.246,-7.765 -1.048,-16.103 2.676,-23.245 1.213,-2.628 3.8,-4.089 6.399,-5.049 1.14,1.192 2.811,2.164 3.105,3.923 0.065,1.969 -1.818,3.875 -3.833,3.481 -1.881,-0.086 -2.46,-2.097 -3.39,-3.386 -2.145,4.201 -0.724,9.804 3.567,11.989 4.65,2.748 11.33,-0.183 12.43,-5.475 1.51,-5.198 -2.82,-10.479 -7.995,-11.025 z" />
	</clipPath><filter
       style="color-interpolation-filters:sRGB"
       inkscape:label="Greyscale"
       id="filter992"
       x="0"
       y="0"
       width="1"
       height="1"><feColorMatrix
         values="0.21 0.72 0.072 0 0 0.21 0.72 0.072 0 0 0.21 0.72 0.072 0 0 0 0 0 1 0 "
         id="feColorMatrix990"
         result="fbSourceGraphic" /><feColorMatrix
         result="fbSourceGraphicAlpha"
         in="fbSourceGraphic"
         values="0 0 0 -1 0 0 0 0 -1 0 0 0 0 -1 0 0 0 0 1 0"
         id="feColorMatrix1030" /><feColorMatrix
         id="feColorMatrix1032"
         values="0.21 0.72 0.072 0 0 0.21 0.72 0.072 0 0 0.21 0.72 0.072 0 0 0 0 0 1 0 "
         in="fbSourceGraphic"
         result="fbSourceGraphic" /><feColorMatrix
         result="fbSourceGraphicAlpha"
         in="fbSourceGraphic"
         values="0 0 0 -1 0 0 0 0 -1 0 0 0 0 -1 0 0 0 0 1 0"
         id="feColorMatrix1070" /><feColorMatrix
         id="feColorMatrix1072"
         values="0.21 0.72 0.072 0 0 0.21 0.72 0.072 0 0 0.21 0.72 0.072 0 0 0 0 0 1 0 "
         in="fbSourceGraphic" /></filter><clipPath
       id="SVGID_20_">
			<rect
   id="use83"
   width="593"
   height="771"
   x="0"
   y="0" />
		</clipPath><clipPath
       id="SVGID_22_">
		<path
   id="use95"
   d="m 216.145,42.339 c -6.302,-0.5 -12.591,-1.539 -18.929,-1.373 -11.136,0.241 -22.099,3.203 -32.173,7.855 -9.266,4.303 -17.613,11.029 -22.701,20.002 -2.357,4.339 -4.7,8.918 -4.935,13.956 3.075,0.325 5.235,-2.215 7.696,-3.602 -1.847,8.536 -7.24,15.692 -10.255,23.774 -0.997,4.284 -1.755,9.285 0.642,13.257 1.585,0.176 2.103,-1.566 2.981,-2.521 1.879,-2.832 4.419,-5.183 7.486,-6.659 2.324,2.003 1.866,5.29 2.536,7.988 1.547,8.622 5.731,17.716 14.04,21.645 8.997,4.23 19.412,2.202 28.298,-1.255 -5.874,5.45 -13.538,9.125 -21.605,9.524 -4.814,0.401 -9.57,-0.653 -14.35,-1.085 -1.222,-0.044 -2.828,-0.34 -3.483,1.029 -1.411,4.106 1.631,7.713 3.086,11.311 -6.688,-1.831 -12.589,-6.004 -16.901,-11.388 -2.926,-3.466 -5.141,-7.444 -7.603,-11.239 -1.377,-2.005 -2.754,-4.327 -5.277,-4.988 -0.626,4.003 0.067,8.042 -0.313,12.06 -0.772,-0.89 -1.616,-1.763 -2.232,-2.79 -6.781,-12.377 -10.882,-26.492 -10.154,-40.679 0.989,-24.716 16.137,-47.376 36.619,-60.544 8.909,-5.672 19.221,-10.15 29.977,-9.631 5.462,0.128 9.822,3.699 14.737,5.557 11.025,4.259 22.647,6.722 34.293,8.54 -3.551,1.831 -7.628,1.468 -11.48,1.256 z m 292.899,103.4 c -1.898,10.305 -5.731,20.178 -10.517,29.469 -2.162,4.07 -4.377,8.177 -7.431,11.664 0.773,-7.599 2.813,-16.695 -2.624,-23.094 -1.071,0.728 -2.284,1.459 -2.597,2.823 -3.34,9.818 -7.944,19.368 -14.781,27.248 -3.441,3.934 -7.53,7.57 -12.627,9.121 2.374,-4.671 4.625,-9.442 5.825,-14.567 0.592,-2.618 1.35,-5.483 0.321,-8.09 -1.127,-1.381 -3.01,-0.271 -4.085,0.602 -3.917,3.185 -7.696,6.598 -12.144,9.052 -7.538,4.501 -16.658,5.368 -25.214,4.043 -7.028,-14.577 -16.238,-28.329 -28.327,-39.201 -6.061,-5.513 -13.091,-9.862 -20.61,-13.076 -1.751,-1.077 -4.711,-2.059 -4.639,-4.436 2.158,-2.366 5.956,-2.158 8.088,-4.654 -1.694,-1.144 -3.468,-2.215 -5.397,-2.926 -8.37,-3.155 -17.199,-4.778 -25.959,-6.44 -1.856,-0.411 -3.875,-0.621 -5.408,-1.868 3.113,-1.226 6.881,-1.604 9.169,-4.282 -0.059,-2.357 -2.951,-2.92 -4.744,-3.562 -12.751,-3.34 -26.377,-1.413 -38.578,3.153 -9.47,3.462 -17.991,9.006 -27.359,12.677 -5.41,2.198 -11.909,2.763 -17.136,-0.267 -5.479,-2.889 -8.703,-8.387 -13.032,-12.593 -2.053,-1.919 -4.898,-3.999 -7.834,-2.782 -0.43,1.52 0.38,4.631 -1.893,4.728 -4.597,0.199 -9.016,-2.064 -13.62,-1.388 -1.297,0.22 -1.287,1.935 -1.891,2.872 -7.037,0.852 -13.435,4.003 -19.624,7.27 3.932,-5.391 8.447,-10.341 13.068,-15.152 9.501,-9.566 20.094,-18.645 32.855,-23.482 8.342,-3.201 18.303,-3.332 25.968,1.698 2.431,1.728 5.727,3.447 5.848,6.831 -1.556,-0.309 -3.122,-0.674 -4.557,-1.377 -4.245,-2.093 -9.157,-2.794 -13.824,-2.045 -0.057,0.25 -0.162,0.741 -0.21,0.991 3.565,1.476 7.515,1.978 10.83,4.047 4.755,2.576 8.219,7.125 9.764,12.279 13.448,-9.088 28.256,-16.828 44.38,-19.666 12.478,-2.244 25.751,-0.605 36.955,5.466 14.067,7.459 24.399,20.186 32.757,33.439 3.638,5.508 6.39,11.579 10.584,16.714 6.634,8.456 15.268,15.566 25.338,19.498 8.101,3.071 17.736,3.636 25.455,-0.825 2.83,-1.341 5.974,-3.837 9.237,-2.584 1.975,1.753 1.302,4.73 1.671,7.064 2.586,-0.976 4.091,-3.415 5.607,-5.559 5.08,-7.706 6.495,-17.256 5.958,-26.318 -0.758,-12.335 -4.339,-24.517 -10.488,-35.253 -5.874,-10.683 -12.847,-21.141 -22.682,-28.598 -1.511,-1.052 -2.494,-2.626 -3.294,-4.253 1.583,-2.653 4.184,-4.354 6.585,-6.184 -1.176,-0.613 -2.376,-1.18 -3.695,-1.4 -16.517,-3.481 -33.42,-6.115 -50.342,-4.95 -4.314,0.489 -8.674,0.497 -12.982,-0.111 -3.523,-0.554 -7.36,-0.989 -10.236,-3.304 11.827,-1.016 21.736,-8.38 33.235,-10.65 10.007,-2.164 20.449,-1.05 30.282,1.432 -1.457,1.024 -3.107,1.887 -4.261,3.294 -0.875,1.49 0.76,2.443 1.99,2.815 4.27,1.291 8.76,1.503 13.093,2.481 9.99,2.194 19.701,5.739 28.646,10.706 1.95,1.05 3.739,2.368 5.475,3.739 -5.844,-0.867 -12.335,-2.819 -17.888,0.151 1.066,1.295 2.332,2.42 3.894,3.063 9.405,4.28 19.183,8.659 26.31,16.401 7.717,8.38 11.25,19.689 12.902,30.752 1.248,9.045 2.166,18.304 0.44,27.354 z" />
	</clipPath><filter
       style="color-interpolation-filters:sRGB"
       inkscape:label="Greyscale"
       id="filter988"
       x="0"
       y="0"
       width="1"
       height="1"><feColorMatrix
         values="0.21 0.72 0.072 0 0 0.21 0.72 0.072 0 0 0.21 0.72 0.072 0 0 0 0 0 1 0 "
         id="feColorMatrix986"
         result="fbSourceGraphic" /><feColorMatrix
         result="fbSourceGraphicAlpha"
         in="fbSourceGraphic"
         values="0 0 0 -1 0 0 0 0 -1 0 0 0 0 -1 0 0 0 0 1 0"
         id="feColorMatrix1026" /><feColorMatrix
         id="feColorMatrix1028"
         values="0.21 0.72 0.072 0 0 0.21 0.72 0.072 0 0 0.21 0.72 0.072 0 0 0 0 0 1 0 "
         in="fbSourceGraphic"
         result="fbSourceGraphic" /><feColorMatrix
         result="fbSourceGraphicAlpha"
         in="fbSourceGraphic"
         values="0 0 0 -1 0 0 0 0 -1 0 0 0 0 -1 0 0 0 0 1 0"
         id="feColorMatrix1066" /><feColorMatrix
         id="feColorMatrix1068"
         values="0.21 0.72 0.072 0 0 0.21 0.72 0.072 0 0 0.21 0.72 0.072 0 0 0 0 0 1 0 "
         in="fbSourceGraphic" /></filter><clipPath
       id="SVGID_24_">
			<rect
   id="use101"
   width="593"
   height="771"
   x="0"
   y="0" />
		</clipPath><filter
       style="color-interpolation-filters:sRGB"
       inkscape:label="Greyscale"
       id="filter984"
       x="0"
       y="0"
       width="1"
       height="1"><feColorMatrix
         values="0.21 0.72 0.072 0 0 0.21 0.72 0.072 0 0 0.21 0.72 0.072 0 0 0 0 0 1 0 "
         id="feColorMatrix982"
         result="fbSourceGraphic" /><feColorMatrix
         result="fbSourceGraphicAlpha"
         in="fbSourceGraphic"
         values="0 0 0 -1 0 0 0 0 -1 0 0 0 0 -1 0 0 0 0 1 0"
         id="feColorMatrix1022" /><feColorMatrix
         id="feColorMatrix1024"
         values="0.21 0.72 0.072 0 0 0.21 0.72 0.072 0 0 0.21 0.72 0.072 0 0 0 0 0 1 0 "
         in="fbSourceGraphic"
         result="fbSourceGraphic" /><feColorMatrix
         result="fbSourceGraphicAlpha"
         in="fbSourceGraphic"
         values="0 0 0 -1 0 0 0 0 -1 0 0 0 0 -1 0 0 0 0 1 0"
         id="feColorMatrix1062" /><feColorMatrix
         id="feColorMatrix1064"
         values="0.21 0.72 0.072 0 0 0.21 0.72 0.072 0 0 0.21 0.72 0.072 0 0 0 0 0 1 0 "
         in="fbSourceGraphic" /></filter><filter
       style="color-interpolation-filters:sRGB"
       inkscape:label="Greyscale"
       id="filter980"
       x="0"
       y="0"
       width="1"
       height="1"><feColorMatrix
         values="0.21 0.72 0.072 0 0 0.21 0.72 0.072 0 0 0.21 0.72 0.072 0 0 0 0 0 1 0 "
         id="feColorMatrix978"
         result="fbSourceGraphic" /><feColorMatrix
         result="fbSourceGraphicAlpha"
         in="fbSourceGraphic"
         values="0 0 0 -1 0 0 0 0 -1 0 0 0 0 -1 0 0 0 0 1 0"
         id="feColorMatrix1018" /><feColorMatrix
         id="feColorMatrix1020"
         values="0.21 0.72 0.072 0 0 0.21 0.72 0.072 0 0 0.21 0.72 0.072 0 0 0 0 0 1 0 "
         in="fbSourceGraphic"
         result="fbSourceGraphic" /><feColorMatrix
         result="fbSourceGraphicAlpha"
         in="fbSourceGraphic"
         values="0 0 0 -1 0 0 0 0 -1 0 0 0 0 -1 0 0 0 0 1 0"
         id="feColorMatrix1058" /><feColorMatrix
         id="feColorMatrix1060"
         values="0.21 0.72 0.072 0 0 0.21 0.72 0.072 0 0 0.21 0.72 0.072 0 0 0 0 0 1 0 "
         in="fbSourceGraphic" /></filter><filter
       style="color-interpolation-filters:sRGB"
       inkscape:label="Greyscale"
       id="filter976"
       x="-0.013148882"
       y="-0.013689626"
       width="1.0262978"
       height="1.0273793"><feColorMatrix
         values="0.21 0.72 0.072 0 0 0.21 0.72 0.072 0 0 0.21 0.72 0.072 0 0 0 0 0 1 0 "
         id="feColorMatrix974"
         result="fbSourceGraphic" /><feColorMatrix
         result="fbSourceGraphicAlpha"
         in="fbSourceGraphic"
         values="0 0 0 -1 0 0 0 0 -1 0 0 0 0 -1 0 0 0 0 1 0"
         id="feColorMatrix1014" /><feColorMatrix
         id="feColorMatrix1016"
         values="0.21 0.72 0.072 0 0 0.21 0.72 0.072 0 0 0.21 0.72 0.072 0 0 0 0 0 1 0 "
         in="fbSourceGraphic"
         result="fbSourceGraphic" /><feColorMatrix
         result="fbSourceGraphicAlpha"
         in="fbSourceGraphic"
         values="0 0 0 -1 0 0 0 0 -1 0 0 0 0 -1 0 0 0 0 1 0"
         id="feColorMatrix1054" /><feColorMatrix
         id="feColorMatrix1056"
         values="0.21 0.72 0.072 0 0 0.21 0.72 0.072 0 0 0.21 0.72 0.072 0 0 0 0 0 1 0 "
         in="fbSourceGraphic" /><feGaussianBlur
         stdDeviation="1.0368558"
         id="feGaussianBlur30" /></filter><filter
       style="color-interpolation-filters:sRGB"
       inkscape:label="Greyscale"
       id="filter972"
       x="0"
       y="0"
       width="1"
       height="1"><feColorMatrix
         values="0.21 0.72 0.072 0 0 0.21 0.72 0.072 0 0 0.21 0.72 0.072 0 0 0 0 0 1 0 "
         id="feColorMatrix970"
         result="fbSourceGraphic" /><feColorMatrix
         result="fbSourceGraphicAlpha"
         in="fbSourceGraphic"
         values="0 0 0 -1 0 0 0 0 -1 0 0 0 0 -1 0 0 0 0 1 0"
         id="feColorMatrix1010" /><feColorMatrix
         id="feColorMatrix1012"
         values="0.21 0.72 0.072 0 0 0.21 0.72 0.072 0 0 0.21 0.72 0.072 0 0 0 0 0 1 0 "
         in="fbSourceGraphic"
         result="fbSourceGraphic" /><feColorMatrix
         result="fbSourceGraphicAlpha"
         in="fbSourceGraphic"
         values="0 0 0 -1 0 0 0 0 -1 0 0 0 0 -1 0 0 0 0 1 0"
         id="feColorMatrix1050" /><feColorMatrix
         id="feColorMatrix1052"
         values="0.21 0.72 0.072 0 0 0.21 0.72 0.072 0 0 0.21 0.72 0.072 0 0 0 0 0 1 0 "
         in="fbSourceGraphic" /></filter><rect
       id="rect11"
       width="593"
       height="771"
       x="0"
       y="0" /><rect
       id="rect12"
       width="593"
       height="771"
       x="0"
       y="0" /><rect
       id="rect13"
       width="593"
       height="771"
       x="0"
       y="0" /><rect
       id="rect14"
       width="593"
       height="771"
       x="0"
       y="0" /><rect
       id="rect15"
       width="593"
       height="771"
       x="0"
       y="0" /><rect
       id="rect16"
       width="593"
       height="771"
       x="0"
       y="0" /></defs><g
     inkscape:label="Layer 1"
     inkscape:groupmode="layer"
     id="layer1"><rect
       style="fill:#f0edec;fill-opacity:1;stroke:none;stroke-width:2.02567;-inkscape-stroke:none"
       id="rect1"
       width="1354.6666"
       height="571.5"
       x="1.2663115e-06"
       y="0.00061350659"
       inkscape:export-filename="gnu-ibi-libertas.png"
       inkscape:export-xdpi="96"
       inkscape:export-ydpi="96" /><g
       id="g2"><g
         id="g1"
         transform="matrix(1.4260138,0,0,1.4260138,-288.55335,-121.73341)"><path
           d="m 633.33791,225.57042 c -0.39297,9.62382 -0.11623,19.84975 -0.11623,29.67953 0,6.21639 -0.33496,12.83836 0.11623,18.85228 0.61129,8.17316 0.76643,14.78349 3.37328,20.604 5.43523,12.11904 19.04375,19.71002 32.12598,24.32606 6.59,2.68946 11.23472,2.24825 16.06313,0.23251 13.26335,-4.5507 28.05331,-12.8447 33.28775,-25.25755 2.23661,-5.31724 2.58773,-11.03529 3.1408,-18.39042 0.3962,-5.32371 0.11623,-11.23943 0.11623,-16.76031 v -33.28646 h -88.10841 z m 97.77001,82.52077 c -1.10291,0.16819 -4.06245,2.72253 -5.23807,3.37587 -4.21912,2.33519 -8.42518,4.76042 -13.15209,6.51666 0,1.03217 0.0522,2.36435 0.13908,2.58536 0.10042,0.25545 8.19386,-1.24223 8.55937,-0.87447 0.32594,-0.13953 1.6701,-1.83503 1.40794,-1.79362 -0.49687,0.0785 -7.556,1.03486 -7.40541,0.96591 4.6566,-2.13232 8.73575,-4.65731 13.1295,-6.935 -0.30241,0.77462 -1.8393,6.52429 -1.63231,7.33288 0.1973,0.77785 4.19377,4.89328 5.00559,5.47055 -2.40143,0.62584 -6.56961,3.46696 -8.88694,4.21565 -0.021,0.15524 -0.13402,0.50152 -0.11623,0.81364 0.0194,0.41238 0.30114,0.95331 0.85745,0.96301 1.21832,-0.93056 8.93422,-4.85465 10.93783,-5.52739 -0.93149,-0.63716 -5.74301,-5.57896 -5.93552,-6.40048 -0.18759,-0.79727 1.25967,-6.11716 1.51354,-7.1004 0.27653,-1.09806 0.80787,-2.31035 0.93239,-3.25956 0.0146,-0.13422 0.0649,-0.37781 -0.11623,-0.3487 z m -107.43031,0.46574 c -0.28786,-0.0695 0.84557,3.12398 1.0461,4.07319 0.21023,1.01882 1.44678,6.01289 1.27857,6.63543 -0.22156,0.80697 -5.14363,5.90214 -6.04924,6.51667 0.50617,0.14878 0.79827,0.14746 1.27857,0.35122 3.10128,0.68763 7.72004,3.40121 10.30822,4.47021 0.34931,-1.41016 1.33681,-1.51023 0.0269,-2.03587 -1.64654,-0.61691 -6.45583,-2.43847 -8.58911,-3.36673 1.92766,-1.57189 3.21221,-3.76684 5.00558,-5.4681 -0.58218,-1.97294 -0.77796,-4.42353 -1.39736,-6.40294 -0.0145,-0.0372 -0.30018,-0.81617 -0.3487,-0.81617 0,0 0.2066,-0.15514 1.16234,0.46747 3.05166,1.98264 6.28814,3.5799 9.78769,5.12267 0.63392,0.27983 -5.96283,0.026 -5.31173,0.30355 0.71961,0.30672 0.61998,1.28983 1.34294,1.61782 0.14638,0.0664 8.352,0.10463 8.49807,0.17253 0.0323,-0.44957 0.11623,-1.24127 0.11623,-1.86233 -4.05909,-1.88393 -7.95439,-3.60007 -11.75473,-5.70562 -1.80476,-0.99941 -3.5544,-2.17037 -5.35437,-3.2571 -0.30888,-0.18598 -0.69356,-0.73693 -1.0461,-0.81617 z m 99.28108,9.31139 c -3.28116,2.31734 -7.47622,3.76813 -11.52225,5.23807 -6.49298,2.34968 -13.7265,4.77271 -21.64674,5.58931 -22.41781,2.3013 -44.06067,-1.88924 -57.96572,-10.35995 0,4.84826 -1.39697,13.93997 -3.02707,17.45763 1.96802,0.43179 3.43188,1.33488 5.12189,1.97851 3.19707,1.21126 6.45133,2.46999 9.77622,3.49204 13.90893,4.26285 34.10281,6.11367 51.09729,3.37587 7.1317,-1.15304 14.0577,-2.76264 20.2521,-5.00558 3.61107,-1.31314 6.94851,-3.40032 10.82492,-4.1895 -0.76007,-1.53954 -0.92046,-3.41532 -1.28109,-5.35437 -0.70832,-3.79387 -1.62985,-7.7928 -1.62985,-12.22229 z"
           fill="#222222"
           id="path1"
           sodipodi:nodetypes="csccccccsccccccscsscccccccccccccccccccccccccssccccccccccccccccccc"
           style="fill:#a29692;fill-opacity:1;stroke-width:1.29373" /><path
           d="m 718.88731,227.67173 c -19.50302,-0.23611 -40.04912,0.23287 -59.94189,0.23287 h -15.94526 c -2.42737,0 -5.22345,0.18112 -7.45029,-0.11644 0.61938,4.18685 0.23287,9.49601 0.23287,14.08391 v 23.6268 c 0,13.55347 0.1601,25.15502 5.82019,32.82201 4.07687,5.52262 9.5154,9.4863 15.71239,12.91954 6.82591,3.94907 16.23598,7.80902 19.84652,7.51284 3.69026,0.14775 12.53079,-3.95166 13.90859,-4.60194 9.29548,-4.17229 18.35646,-9.54451 23.2775,-18.04111 0.58541,-1.01881 1.03013,-2.04733 1.51367,-3.14215 0.29755,-0.68083 0.68244,-1.39723 0.93148,-2.09585 0.1407,-0.40752 0.10189,-0.63716 0.23288,-1.04792 0.15201,-0.49 0.31211,-1.01073 0.46574,-1.62849 0.11967,-0.49809 0.22479,-1.01073 0.34769,-1.6301 0.11805,-0.59189 0.21993,-1.23552 0.35093,-1.9778 0.14069,-0.82637 0.25389,-1.76918 0.34769,-2.79446 0.0631,-0.71641 0.16333,-1.52661 0.23287,-2.44354 0.30888,-4.14318 0.11643,-8.81679 0.11643,-13.15241 v -25.37335 c 0,-4.11407 -0.19244,-8.84913 0.23288,-12.57185 -0.22479,-0.10835 0.52881,-0.57409 -0.23288,-0.58056"
           fill="#00356b"
           id="path2"
           style="fill:#f0edec;fill-opacity:1;stroke-width:1.61717"
           sodipodi:nodetypes="csscsscccccccccccccsscc" /><path
           d="m 721.21396,320.77846 c -21.90031,13.58937 -65.92864,13.67217 -87.99197,0.23247 0.46251,3.13575 -1.04125,11.33685 -2.09727,13.61654 2.00852,0.43987 3.5544,1.55597 5.35438,2.21099 3.10651,1.12393 6.32816,2.33622 9.54632,3.25956 12.92595,3.70331 31.30188,5.20236 46.90559,2.9109 7.10415,-1.04792 13.93092,-2.56897 20.02053,-4.77323 2.23324,-0.81182 4.48666,-1.70579 6.74914,-2.55965 1.25816,-0.4803 2.10348,-1.21945 3.72712,-1.39736 -1.18377,-2.57608 -2.07929,-10.11441 -2.21345,-13.5014 z"
           fill="#ffffff"
           id="path4"
           sodipodi:nodetypes="ccccccccccc"
           style="fill:#f0edec;fill-opacity:1;stroke-width:1.29373" /><g
           id="g37"
           transform="translate(0.02708611,1.5875)"><path
             style="fill:#a29693;fill-opacity:1;stroke-width:0.081625"
             d="m 670.97211,300.87826 c 1.91848,-0.28087 3.21529,-0.66882 4.73426,-1.4163 2.61573,-1.28716 4.60665,-3.12034 5.72709,-5.27328 l 0.33982,-0.65296 0.21909,0.4634 c 0.30582,0.64683 0.37584,0.69109 0.79496,0.50223 0.534,-0.24063 1.20571,-0.96349 1.58692,-1.70777 0.40927,-0.79906 0.68109,-1.64943 0.96974,-3.0338 0.2527,-1.21196 0.3279,-1.4461 0.45124,-1.40495 0.0489,0.015 0.24146,0.32279 0.42804,0.68105 0.40842,0.78423 0.54454,0.83843 1.02161,0.40679 0.73935,-0.66893 1.15282,-1.68892 1.40429,-3.4642 0.22713,-1.60364 0.23614,-1.64545 0.35476,-1.64545 0.0592,0 0.22783,0.27588 0.37465,0.61308 0.14677,0.33718 0.31641,0.61308 0.37689,0.61308 0.16795,0 0.90257,-1.58803 1.09654,-2.37059 0.24635,-0.99402 0.30147,-2.8334 0.12367,-4.1281 -0.074,-0.53951 -0.15625,-1.05244 -0.18263,-1.13983 -0.0304,-0.10122 0.19041,0.0401 0.60826,0.3892 2.56307,2.14093 7.0553,3.74825 10.50667,3.75929 1.53107,0.005 2.30371,-0.24568 2.54566,-0.82555 0.1899,-0.45518 -0.0116,-0.89378 -0.87544,-1.89715 -1.34847,-1.56792 -2.20839,-3.01188 -2.89652,-4.86366 -0.25543,-0.6874 -1.0398,-3.61719 -1.20914,-4.51638 l -0.0502,-0.26568 0.71217,-0.001 c 2.10031,-0.003 4.50197,-0.53583 6.26791,-1.38758 3.96751,-1.91356 6.5782,-5.7369 7.62435,-11.16587 1.03485,-5.37042 0.34357,-9.85759 -2.07683,-13.48078 -2.66562,-3.99019 -7.33352,-6.68777 -12.89623,-7.45263 -1.25462,-0.17245 -3.67407,-0.16899 -4.80321,0.007 -1.80545,0.28149 -2.9268,0.72036 -4.3497,1.70242 -0.48937,0.33772 -1.08306,0.71138 -1.31933,0.83034 -0.64866,0.3266 -1.77747,0.67883 -2.50891,0.78293 -1.01981,0.14511 -1.18355,0.21464 -1.18355,0.50262 0,0.9515 1.26542,1.59972 3.65736,1.8735 0.80735,0.0924 1.54816,0.0846 4.91327,-0.0519 1.0653,-0.0432 1.41999,-0.0249 2.24515,0.11587 2.4785,0.42293 4.69244,1.57821 6.52779,3.4064 1.6665,1.65998 2.7355,3.45089 3.28992,5.51171 0.18112,0.67313 0.21103,0.95414 0.21383,2.00879 0.003,1.13144 -0.0133,1.27667 -0.22228,1.88009 -0.98595,2.85889 -3.8861,3.86096 -6.87121,2.37419 -1.39914,-0.69686 -2.67348,-1.85397 -3.92158,-3.56073 -2.53614,-3.46827 -3.96629,-4.91057 -6.20346,-6.25617 -3.99055,-2.40022 -8.45922,-2.02423 -12.10205,1.01826 -0.45683,0.38155 -0.53165,0.41768 -0.66403,0.32094 -0.0821,-0.06 -0.38299,-0.2804 -0.66874,-0.4898 -1.95292,-1.43122 -4.38119,-2.05617 -6.60061,-1.69882 -1.3449,0.21655 -3.15624,1.01576 -4.5302,1.99884 -1.41735,1.01411 -2.39899,2.02829 -4.91037,5.07298 -1.74106,2.11079 -2.82948,3.10403 -4.1092,3.74987 -0.77534,0.3913 -1.34511,0.5568 -1.952,0.56694 -2.28367,0.0381 -4.08921,-3.21155 -4.08789,-7.35769 5.9e-4,-2.39219 0.64309,-4.40904 1.7897,-5.61929 1.2159,-1.28337 2.68999,-2.04227 4.62254,-2.37978 0.37727,-0.0659 1.43039,-0.15774 2.34027,-0.2041 2.08942,-0.10651 2.99258,-0.2178 3.6231,-0.44644 0.92587,-0.33577 1.74242,-0.92732 2.03378,-1.47337 0.15109,-0.28327 0.15225,-0.3065 0.0195,-0.40455 -0.0893,-0.0659 -0.56869,-0.12334 -1.30599,-0.15675 -2.26395,-0.10223 -4.05003,-0.48352 -7.1645,-1.529 -2.29925,-0.77184 -2.99289,-0.89435 -4.21336,-0.74412 -1.94232,0.23903 -3.64737,1.12445 -5.36798,2.78751 -3.05244,2.95034 -4.95542,7.28005 -5.08522,11.56997 -0.081,2.67357 0.30892,4.07025 2.18001,7.81075 1.48425,2.96717 2.80957,4.49175 4.71924,5.42869 1.05637,0.51827 2.12389,0.80805 3.95135,1.07263 0.57239,0.0828 1.04072,0.18158 1.04072,0.2193 0,0.21476 -1.04637,1.60172 -1.71257,2.26997 -0.88812,0.8909 -1.52653,1.273 -2.57275,1.53988 -0.65777,0.16778 -1.02031,0.42194 -1.02031,0.71519 0,0.45765 0.83535,1.12634 1.88736,1.51085 1.02532,0.37473 1.97058,0.50767 3.25501,0.45774 2.54375,-0.0987 4.75427,-1.12288 6.73408,-3.11955 0.49383,-0.49804 0.9897,-1.04253 1.10194,-1.21005 0.11226,-0.16742 0.22618,-0.30476 0.25319,-0.30507 0.0269,-2.8e-4 0.0716,0.32132 0.0988,0.71471 0.0273,0.39341 0.19757,1.32104 0.37821,2.06142 l 0.32842,1.34612 -0.26408,0.2743 c -0.95008,0.98677 -2.33079,1.42157 -3.64864,1.14898 -0.65267,-0.13515 -0.98004,-0.0472 -1.47071,0.39464 -0.71548,0.64422 -1.08926,1.62109 -1.08926,2.84681 0,1.4446 0.40919,2.3112 1.65703,3.50936 1.36275,1.30853 1.70331,1.68468 1.92062,2.12138 0.37014,0.74386 0.24003,1.18093 -0.56299,1.89135 -0.66852,0.59147 -0.79778,0.91015 -0.59008,1.45482 0.0751,0.19703 0.26624,0.5099 0.42469,0.69528 0.34705,0.40605 1.5402,1.22039 2.17278,1.48298 l 0.45759,0.18993 -0.23425,0.32384 c -0.5372,0.74265 -0.71359,1.8231 -0.44532,2.72775 0.25503,0.85997 1.11241,1.74718 1.81628,1.8794 0.20419,0.0384 0.46046,10e-4 0.8373,-0.11984 0.63629,-0.20523 1.07486,-0.22107 1.54285,-0.0557 0.51754,0.18286 0.88094,0.50611 1.12068,0.99679 0.20473,0.41906 0.21711,0.50991 0.20511,1.50467 -0.022,1.82926 0.32535,2.88583 1.24823,3.79604 0.90523,0.89283 2.12152,1.33656 3.80168,1.38692 0.56117,0.0173 1.13052,0.0133 1.2652,-0.005 z m -1.49253,-3.03697 c 0.73956,-1.45685 0.80264,-2.45258 0.23263,-3.67242 -0.27814,-0.59524 -0.94059,-1.30687 -1.46687,-1.57575 -0.85582,-0.43726 -2.51823,-0.65668 -4.98676,-0.65828 -2.35254,-0.001 -3.0526,-0.25911 -3.27109,-1.20348 -0.0948,-0.40958 0.0855,-1.03137 0.41429,-1.42868 0.14362,-0.1736 0.48404,-0.41783 0.7975,-0.57222 0.53527,-0.26361 0.56953,-0.26928 1.60919,-0.26582 1.06125,0.003 1.06347,0.003 2.28667,0.42342 1.55851,0.53444 2.10256,0.62844 3.29851,0.56996 1.14045,-0.0557 1.66898,-0.19133 2.74173,-0.70324 1.9353,-0.92352 3.74544,-2.78478 4.36697,-4.49033 0.20737,-0.56905 0.27656,-0.93577 0.25311,-1.34154 -0.015,-0.27278 -0.15842,-0.14013 -0.48329,0.44961 -1.25333,2.2747 -3.31234,4.12941 -5.20279,4.68652 -0.5686,0.16762 -1.5018,0.18429 -2.199,0.0393 -0.26937,-0.0561 -1.20428,-0.30096 -2.0776,-0.54441 -0.87333,-0.24345 -1.90179,-0.50364 -2.2855,-0.57822 -0.75723,-0.14712 -2.28702,-0.18765 -3.26884,-0.0865 -1.08601,0.11191 -1.76407,-0.28769 -1.74716,-1.02963 0.0101,-0.43675 0.23585,-0.87223 0.76651,-1.47786 0.47324,-0.54009 0.57251,-0.74345 0.57251,-1.17273 0,-0.66875 -0.54838,-1.30809 -2.52275,-2.94125 -1.15449,-0.95495 -1.53781,-1.79928 -1.45736,-3.21009 0.0489,-0.85587 0.27975,-1.43563 0.73646,-1.84885 l 0.32833,-0.29704 0.53938,0.0653 c 0.29667,0.0359 0.85161,0.0668 1.2332,0.0687 0.59957,0.003 0.75887,-0.0283 1.17268,-0.22908 1.28117,-0.62166 2.52898,-2.32453 3.27389,-4.46781 0.41227,-1.18611 0.9395,-2.1483 2.07425,-3.78559 1.44288,-2.08181 1.53955,-2.30452 1.27521,-2.93812 -0.067,-0.16041 -0.14578,-0.60747 -0.17551,-0.99368 -0.0297,-0.3862 -0.0798,-0.7182 -0.11124,-0.73771 -0.0316,-0.0196 -0.14544,0.10021 -0.25303,0.26635 -0.30906,0.47684 -0.452,0.51255 -1.32129,0.33005 -1.08618,-0.22802 -2.05565,-0.17817 -2.71074,0.13946 -0.26935,0.13065 -0.52271,0.25324 -0.56301,0.27263 -0.19011,0.0913 0.0453,-1.10846 0.47124,-2.4037 0.25251,-0.76746 0.45909,-1.49511 0.45909,-1.61701 0,-0.50555 -0.52006,-0.28998 -1.14735,0.4756 -0.74174,0.90528 -0.99614,1.50523 -1.59561,3.76298 -0.69815,2.62931 -1.23014,3.94193 -2.02864,5.00549 -0.68811,0.91652 -1.0785,1.04702 -1.65465,0.55314 -0.18356,-0.15743 -0.36688,-0.2861 -0.40735,-0.2861 -0.0405,0 -0.43967,0.35864 -0.88713,0.79699 -1.24808,1.22274 -2.10808,1.65408 -3.4211,1.71595 -0.569,0.0268 -0.77141,0.007 -0.89787,-0.0887 -0.15925,-0.12018 -0.15726,-0.12534 0.0816,-0.21327 0.84115,-0.30922 1.63617,-1.05923 2.49487,-2.35361 0.65254,-0.98358 1.79876,-3.27366 2.4449,-4.88472 0.82955,-2.0683 1.58391,-3.3136 2.75173,-4.54258 1.91487,-2.01515 3.87717,-2.95209 6.18476,-2.95303 1.24525,-6.2e-4 1.80209,0.14943 3.09809,0.83445 1.25556,0.66365 1.85304,0.88802 2.53405,0.95165 0.6717,0.0628 1.19394,-0.0883 3.1211,-0.90246 3.17112,-1.33983 4.67103,-1.71302 6.91877,-1.7214 1.51801,-0.005 1.77079,0.0608 4.50183,1.18454 1.0843,0.44611 2.3148,0.90515 2.73444,1.02004 2.92061,0.79958 4.27912,1.5252 5.86628,3.13329 2.44926,2.48166 3.74614,5.82206 4.28381,11.03395 0.19374,1.87814 0.5759,2.90541 1.93602,5.20416 0.29262,0.49455 0.61247,1.05835 0.71078,1.25289 0.48239,0.95451 -0.1388,0.98629 -1.99899,0.10223 -1.62894,-0.77416 -2.39746,-1.42045 -3.45526,-2.90571 -0.93436,-1.31193 -1.10095,-1.39702 -1.51328,-0.77302 -0.38837,0.58773 -0.45511,0.48886 -1.06586,-1.57878 -0.40908,-1.38487 -0.81696,-2.29506 -1.04768,-2.33784 -0.0818,-0.015 -0.21701,0.0341 -0.30025,0.10956 -0.0921,0.0834 -0.21473,0.11685 -0.3129,0.0858 -0.27177,-0.0862 -0.80488,-0.7357 -1.12235,-1.36699 -0.69518,-1.38237 -0.90822,-2.27106 -1.01565,-4.23677 -0.0893,-1.63393 -0.32136,-2.6531 -0.84683,-3.71936 -0.85436,-1.73355 -2.54522,-2.89548 -4.42703,-3.04223 -0.72282,-0.0563 -1.0089,0.007 -1.0089,0.22172 0,0.19691 0.23887,0.35953 0.82456,0.56132 0.7289,0.25117 1.07444,0.46133 1.49022,0.9065 0.73787,0.79001 1.05031,1.76815 1.24147,3.88675 0.50917,5.64304 0.60726,6.13294 1.68182,8.39975 l 0.51322,1.08264 -0.007,0.94007 c -0.007,1.04138 -0.14529,1.59399 -0.39667,1.59399 -0.0929,0 -0.27103,-0.207 -0.49211,-0.5722 -0.42028,-0.69424 -0.95234,-1.26704 -1.17689,-1.26704 -0.23193,0 -0.29409,0.324 -0.18056,0.94114 0.20167,1.09608 0.0485,2.94337 -0.44078,5.32271 -0.33254,1.61661 -0.75161,2.97328 -0.91837,2.97328 -0.0404,0 -0.20674,-0.26669 -0.36976,-0.59264 -0.52917,-1.0581 -1.36439,-2.05002 -1.60223,-1.90281 -0.0468,0.029 -0.0852,0.17425 -0.0852,0.32273 0,0.14844 -0.129,1.00161 -0.28658,1.89576 -1.04296,5.91647 -2.62794,9.58594 -5.17836,11.98872 -1.47986,1.39418 -3.42594,2.37738 -5.51363,2.78556 -1.12968,0.2209 -1.46279,0.25758 -1.41093,0.15525 z m -1.0493,-17.16636 c 0.0221,-0.0786 0.0645,-0.2985 0.0941,-0.48853 0.0673,-0.43432 0.34573,-0.85509 0.63242,-0.95607 0.18654,-0.0655 0.27671,-0.0369 0.59071,0.18897 0.20379,0.14645 0.48583,0.29963 0.62673,0.34009 0.82485,0.23692 1.99788,-0.7569 1.82482,-1.54601 -0.17193,-0.78393 -1.68843,-1.26105 -2.63728,-0.82977 -0.79296,0.36042 -1.89536,1.92108 -1.89536,2.68323 0,0.4915 0.65075,1.00949 0.76396,0.60809 z m 4.86043,-0.568 c 0.75831,-0.92071 0.96869,-2.75008 0.4451,-3.87058 -0.63087,-1.35008 -2.24261,-2.20147 -3.96555,-2.09467 -1.68922,0.10471 -3.59604,1.1134 -5.41367,2.86387 -0.62628,0.6031 -0.69078,0.69393 -0.69036,0.97181 9.2e-4,0.58513 0.54841,0.82471 1.03016,0.45075 0.12949,-0.10054 0.6579,-0.56436 1.17418,-1.03075 2.39228,-2.16105 3.95998,-2.73639 5.51434,-2.02375 1.34904,0.61851 1.95919,2.2118 1.66319,4.34307 -0.0479,0.34491 -0.0706,0.64374 -0.0502,0.66406 0.0203,0.0203 0.1521,-0.10291 0.29282,-0.27381 z m 4.79076,-12.52309 c 0.75041,-0.45824 1.19706,-1.21871 1.24423,-2.11842 0.0397,-0.75761 -0.12484,-1.2157 -0.63164,-1.75833 -0.43321,-0.46379 -0.94184,-0.74365 -1.65972,-0.91315 -0.56461,-0.13331 -1.88862,-0.15975 -2.37195,-0.0474 -0.27072,0.0629 -0.32344,0.05 -0.42215,-0.10403 -0.0618,-0.0969 -0.15724,-0.40597 -0.21142,-0.68696 -0.0589,-0.30451 -0.1403,-0.5109 -0.20158,-0.5109 -0.11885,0 -0.15443,0.12683 -0.28575,1.01732 -0.0668,0.4532 -0.15509,0.72728 -0.29185,0.90691 -0.31317,0.41118 -0.23113,0.94709 0.1683,1.09918 0.14677,0.0558 0.33966,0.007 0.83169,-0.20729 0.73845,-0.32285 1.17545,-0.35944 1.41598,-0.11852 0.33442,0.3349 0.0969,0.98094 -0.36062,0.98094 -0.31872,0 -0.46716,-0.0904 -0.57676,-0.35148 l -0.10302,-0.2453 -0.10122,0.30724 c -0.1919,0.58223 0.0583,1.28304 0.58965,1.65182 0.28504,0.19783 0.41352,0.23174 0.87746,0.23174 0.44492,0 0.59819,-0.037 0.84503,-0.20434 0.32321,-0.21911 0.70683,-0.87703 0.70683,-1.21231 0,-0.377 -0.1903,-0.83413 -0.4653,-1.11772 -0.25748,-0.2655 -0.26192,-0.27894 -0.0678,-0.20504 0.68059,0.25913 1.12398,0.69244 1.27204,1.24309 0.15891,0.59103 -0.0653,1.38234 -0.57396,2.02548 -0.13564,0.1716 -0.24659,0.35253 -0.24659,0.40222 0,0.1413 0.34129,0.10573 0.62016,-0.0645 z m -16.69927,3.55012 c -0.0421,-0.1109 -0.18813,-0.96719 -0.32448,-1.90284 -0.44367,-3.04444 -0.30228,-4.38272 0.53616,-5.07484 0.24753,-0.20433 0.73162,-0.44214 0.56946,-0.27975 -0.0276,0.0276 0.0608,0.0973 0.19661,0.15425 0.61569,0.25929 0.40553,1.14168 -0.25661,1.0774 -0.19677,-0.0191 -0.31625,-0.0981 -0.44961,-0.29683 l -0.18158,-0.27083 -0.0555,0.29637 c -0.1961,1.04681 0.47498,1.92105 1.47461,1.92105 0.85684,0 1.51008,-0.66183 1.51008,-1.52994 0,-0.72274 -0.54795,-1.37812 -1.23516,-1.47731 l -0.35653,-0.0516 0.36732,-0.0587 c 0.202,-0.0322 0.66116,-0.0611 1.02031,-0.0645 0.74121,-0.007 1.14481,0.14212 1.33978,0.49435 0.21785,0.39352 -0.0331,0.81814 -1.15854,1.96085 -1.15068,1.16826 -1.34445,1.49864 -1.81683,3.0976 -0.4708,1.59365 -0.74526,2.20671 -0.98782,2.20671 -0.0633,0 -0.14944,-0.0908 -0.19163,-0.20166 z m 43.05804,-5.74524 c 0.17332,-0.41248 0.52513,-1.52893 0.61461,-1.95051 0.15908,-0.74952 0.14877,-1.79319 -0.0195,-1.96184 -0.21363,-0.21423 -0.50289,-0.0444 -1.28842,0.75671 -1.63456,1.66684 -2.88107,2.27954 -4.83131,2.37483 l -0.95159,0.0465 -0.46481,-0.72156 c -2.36512,-3.67158 -5.41286,-6.33009 -8.56979,-7.4753 -0.93661,-0.33979 -1.32131,-0.53466 -1.42001,-0.71936 -0.11287,-0.21125 -0.0303,-0.29971 0.6061,-0.64801 0.31203,-0.17088 0.57858,-0.36907 0.59234,-0.44057 0.0694,-0.36097 -1.93972,-0.826 -4.71673,-1.09171 -1.49769,-0.14345 -1.87843,-0.19946 -1.87516,-0.27646 0.001,-0.0287 0.30276,-0.19936 0.67011,-0.37922 1.05794,-0.51793 1.09926,-0.79704 0.15925,-1.07638 -0.62497,-0.18573 -2.38872,-0.18232 -3.44364,0.007 -1.69572,0.30374 -3.56031,1.08967 -5.50743,2.32135 -2.61407,1.65358 -3.05893,1.88041 -4.03566,2.05779 -1.07985,0.1961 -2.03067,-0.21782 -3.38715,-1.47455 -1.098,-1.01727 -1.70285,-1.34685 -2.09045,-1.13911 -0.12352,0.0663 -0.16158,0.17159 -0.16158,0.44676 0,0.19835 -0.0459,0.38984 -0.10201,0.42627 -0.0561,0.0366 -0.66693,0.0663 -1.3574,0.0663 -1.34376,0 -1.24797,-0.0272 -1.45971,0.41675 -0.0342,0.0719 -0.31896,0.21292 -0.63262,0.31348 -0.66376,0.21281 -1.44487,0.59737 -2.08036,1.02423 -0.64758,0.43501 -0.69044,0.45763 -0.61008,0.32224 1.30482,-2.19859 3.8831,-5.16386 5.63004,-6.47506 0.84548,-0.6346 2.28917,-1.37777 3.06092,-1.57567 0.75809,-0.19439 1.93821,-0.17799 2.612,0.0364 0.61373,0.19521 1.42558,0.65617 1.6997,0.96503 0.16934,0.1908 0.17642,0.2269 0.0662,0.33741 -0.11034,0.11057 -0.18305,0.10268 -0.67938,-0.0722 -0.45634,-0.1609 -0.71647,-0.19603 -1.45367,-0.19657 -1.45539,-0.001 -1.56446,0.16606 -0.28979,0.44406 1.39874,0.30505 2.34485,0.91774 2.87922,1.86451 0.13315,0.23606 0.25689,0.42917 0.27482,0.42917 0.0179,0 0.25709,-0.18115 0.53149,-0.40258 2.6076,-2.10431 5.28283,-3.48992 7.77481,-4.02694 0.67026,-0.14445 1.08531,-0.17761 2.17514,-0.1739 1.23589,0.003 1.42746,0.0256 2.32631,0.25963 1.27664,0.3324 2.80291,1.0823 3.91626,1.92422 1.49909,1.13363 2.97623,2.72417 4.75259,5.11738 1.63084,2.19719 3.50551,3.66025 5.579,4.35408 1.86237,0.62319 3.54476,0.47249 4.94502,-0.44298 0.8268,-0.54051 1.0414,-0.64155 1.36259,-0.64155 0.34935,0 0.43468,0.10223 0.551,0.65952 0.0509,0.24422 0.12051,0.47398 0.15441,0.5106 0.16308,0.17562 0.89655,-0.95054 1.17768,-1.80835 0.32156,-0.98122 0.40303,-1.63975 0.35017,-2.83055 -0.13131,-2.95808 -1.34467,-5.81433 -3.73279,-8.78716 -0.80318,-0.99984 -2.15925,-2.30225 -2.93933,-2.82305 -0.88392,-0.59009 -0.97523,-0.68387 -0.97523,-1.00163 0,-0.22807 0.0774,-0.34824 0.44894,-0.69865 0.24693,-0.23276 0.44894,-0.44939 0.44894,-0.48139 0,-0.0974 -0.23844,-0.14362 -1.42844,-0.27611 -0.62851,-0.07 -2.09777,-0.14911 -3.265,-0.17559 -2.2677,-0.0516 -3.33313,0.0133 -5.09635,0.31214 -1.25296,0.21206 -3.04512,0.18489 -3.71578,-0.0563 l -0.40473,-0.14544 0.68559,-0.1817 c 0.47532,-0.12583 1.31294,-0.4981 2.73107,-1.21339 2.29395,-1.15707 2.93967,-1.3717 4.58945,-1.52544 0.85945,-0.0802 2.99862,0.0101 3.12005,0.13198 0.0205,0.0205 -0.11619,0.16848 -0.3035,0.32915 -0.18734,0.16057 -0.34062,0.35817 -0.34062,0.43908 0,0.3211 0.12351,0.34796 2.64085,0.5746 1.7674,0.15908 3.99588,0.73689 5.46601,1.41711 1.08302,0.50113 1.08147,0.51862 -0.0422,0.4785 -1.07825,-0.0384 -1.761,0.0663 -1.97511,0.30327 -0.12234,0.1353 -0.12117,0.15641 0.0116,0.27783 0.0798,0.0723 0.67691,0.32058 1.32708,0.55184 3.13829,1.11623 4.58617,2.15972 5.72411,4.12534 1.02001,1.76188 1.86623,5.05716 1.86506,7.26271 -9.3e-4,1.95217 -0.56257,4.37218 -1.56779,6.75649 -0.31572,0.74888 -0.79209,1.63478 -0.87915,1.63497 -0.0231,5e-5 -0.0297,-0.38613 -0.0133,-0.85816 0.0447,-1.37484 -0.28361,-2.63839 -0.76755,-2.95507 -0.28666,-0.18759 -0.42522,0.0133 -0.68284,0.99296 -0.60166,2.2864 -1.56561,4.20207 -2.69434,5.35444 -0.67731,0.69151 -1.4299,1.14 -1.26853,0.75595 z m -56.22997,-3.14901 c -0.59888,-0.28482 -1.34657,-0.83736 -1.83991,-1.35968 -0.1526,-0.16157 -0.62085,-0.7251 -1.04047,-1.25224 -0.80087,-1.00608 -1.08248,-1.25953 -1.30465,-1.17416 -0.11203,0.043 -0.12551,0.12916 -0.0816,0.51987 0.029,0.25758 0.0761,0.7074 0.10504,0.99964 l 0.0524,0.53133 -0.187,-0.16339 c -0.52331,-0.45749 -1.6912,-2.66203 -2.16138,-4.07986 -0.48468,-1.46156 -0.64125,-2.60386 -0.58925,-4.29896 0.0497,-1.61808 0.22599,-2.55086 0.74957,-3.96522 1.00439,-2.71321 3.01168,-5.28305 5.39634,-6.90864 1.65187,-1.12607 3.05417,-1.64867 4.44025,-1.65483 0.70014,-0.003 0.84682,0.0248 1.51008,0.2866 1.55748,0.61483 3.47265,0.99511 6.12188,1.21563 l 1.22438,0.10212 -0.36731,0.16407 c -0.32434,0.14495 -0.62041,0.17125 -2.53039,0.22398 -2.21758,0.0611 -2.92062,0.13247 -4.01431,0.40687 -1.51895,0.38096 -3.22943,1.13759 -4.53808,2.00741 -0.84012,0.55838 -1.97317,1.65732 -2.46446,2.39026 -0.70063,1.04521 -1.30852,2.63447 -1.30852,3.4209 0,0.31227 0.0203,0.34905 0.19255,0.34905 0.10843,0 0.35465,-0.14279 0.5635,-0.32699 0.4551,-0.40115 0.56255,-0.41444 0.49523,-0.0614 -0.0691,0.36221 -0.67557,2.13708 -1.05451,3.08586 -0.28826,0.72175 -0.31049,0.83718 -0.3147,1.63491 -0.003,0.64493 0.0328,0.95483 0.14512,1.24658 0.19987,0.51873 0.37082,0.50941 0.66749,-0.0366 0.127,-0.23356 0.41954,-0.61981 0.65019,-0.85829 0.64256,-0.66438 0.78012,-0.60383 1.07103,0.47148 0.11469,0.42386 0.38851,1.15067 0.60857,1.61513 0.68564,1.44718 1.74522,2.31156 3.12875,2.55244 1.00789,0.17547 2.41201,-0.0757 3.70375,-0.66211 l 0.54612,-0.24799 -0.2428,0.25556 c -0.35982,0.37873 -1.15983,0.96373 -1.6707,1.22174 -0.98001,0.49489 -1.46328,0.593 -3.18303,0.64615 l -1.5908,0.0492 -0.11259,0.23569 c -0.14562,0.3047 -0.0278,0.74028 0.36189,1.33664 0.15376,0.23535 0.27948,0.46192 0.27948,0.50352 0,0.11585 -0.76393,-0.11169 -1.41689,-0.42237 z"
             id="path2996"
             inkscape:connector-curvature="0" /></g></g><path
         style="font-weight:bold;font-size:4.60806px;line-height:1;font-family:'SauceCodePro Nerd Font Mono';-inkscape-font-specification:'SauceCodePro Nerd Font Mono Bold';letter-spacing:0px;word-spacing:0px;fill:#a29692;fill-opacity:1;fill-rule:evenodd;stroke-width:0.133886"
         d="m 617.52769,352.61037 q -1.18236,-0.50034 -1.49257,-1.4282 -0.30031,-0.92369 0.23365,-2.1855 l 1.68597,-3.98415 1.46053,0.61807 -1.74904,4.13318 q -0.24386,0.57629 -0.15993,0.98671 0.0981,0.40465 0.55522,0.5981 0.46697,0.19754 0.81587,-0.018 0.36304,-0.22134 0.60691,-0.79751 l 1.74905,-4.13319 1.41084,0.59703 -1.68598,3.98414 q -0.53394,1.26182 -1.39612,1.69359 -0.85223,0.43599 -2.03456,-0.0645 z m 3.77438,1.38637 2.30857,-6.6445 2.23181,0.77541 q 0.69298,0.24078 1.19022,0.58486 0.50071,0.33386 0.69269,0.8003 0.20229,0.47 -0.0203,1.11202 -0.15246,0.43823 -0.57612,0.77063 -0.42031,0.32226 -1.06452,0.26967 l -0.0159,0.0409 q 0.66734,0.38033 0.89966,0.89506 0.23579,0.50454 0.006,1.16695 -0.23722,0.68278 -0.72225,0.99397 -0.48502,0.31117 -1.14026,0.32334 -0.64148,0.006 -1.36507,-0.24585 z m 2.87896,-3.45397 0.66242,0.23012 q 0.55031,0.19121 0.86926,0.0623 0.32247,-0.13931 0.45346,-0.51629 0.12728,-0.36686 -0.0743,-0.60826 -0.18803,-0.24801 -0.71787,-0.43215 l -0.6726,-0.23368 z m -0.9737,2.8025 0.80506,0.27972 q 1.20254,0.41782 1.51413,-0.47899 0.15245,-0.43824 -0.0759,-0.73451 -0.21815,-0.2928 -0.8397,-0.50877 l -0.80509,-0.27973 z m 4.22496,2.72744 0.3704,-1.28547 1.57577,0.45405 1.20675,-4.18819 -1.57574,-0.45402 0.3704,-1.28549 4.68577,1.35019 -0.3704,1.28546 -1.57575,-0.45403 -1.20678,4.18816 1.57576,0.45404 -0.3704,1.28547 z m 15.45327,3.92948 q -0.87866,-0.17283 -1.5195,-0.71628 -0.64085,-0.54367 -0.91044,-1.41021 -0.26747,-0.87715 -0.0407,-2.03105 0.22667,-1.15391 0.80817,-1.87528 0.58356,-0.73195 1.3866,-1.01401 0.81363,-0.27997 1.70287,-0.10538 0.69869,0.13728 1.1422,0.51024 0.44555,0.36238 0.70718,0.76563 l -1.04673,0.7949 q -0.17851,-0.26598 -0.41625,-0.45559 -0.23754,-0.18962 -0.65049,-0.27072 -0.67753,-0.13297 -1.24918,0.37036 -0.56106,0.50546 -0.76485,1.54291 -0.20796,1.05863 0.0886,1.73259 0.29639,0.67391 1.11154,0.83401 0.20115,0.0394 0.3915,0.0226 0.20094,-0.0159 0.32762,-0.10064 l 0.23288,-1.18566 -1.0057,-0.19754 0.24955,-1.27033 2.40306,0.47204 -0.62381,3.17585 q -0.41381,0.25955 -1.04597,0.39923 -0.62157,0.14157 -1.27791,0.0136 z m 3.45112,0.51694 1.10353,-6.94702 1.6089,0.25558 0.91135,3.68405 0.35294,1.6291 0.0426,0.006 q 0.0347,-0.5625 0.0562,-1.2473 0.023,-0.69545 0.12137,-1.31345 l 0.39096,-2.4613 1.50235,0.23864 -1.10352,6.94701 -1.6089,-0.25556 -0.90963,-3.69471 -0.35637,-1.60781 -0.0426,-0.006 q -0.038,0.58384 -0.0578,1.25799 -0.0204,0.67413 -0.1178,1.29213 l -0.39099,2.46129 z m 8.90775,1.43244 q -1.27403,-0.15834 -1.82595,-0.96615 -0.54121,-0.80651 -0.37227,-2.16621 l 0.53344,-4.29314 1.57382,0.19548 -0.55337,4.45378 q -0.0773,0.62096 0.11573,0.99283 0.20503,0.36249 0.69749,0.42368 0.5032,0.0625 0.77998,-0.24015 0.2888,-0.31199 0.36596,-0.93296 l 0.55339,-4.45377 1.52029,0.18892 -0.53345,4.29318 q -0.16899,1.35971 -0.88034,2.01055 -0.70074,0.65221 -1.97478,0.49391 z m 10.45133,0.9044 0.0797,-1.33544 1.63696,0.0978 0.2598,-4.35084 -1.63691,-0.0978 0.0797,-1.33538 4.86774,0.29066 -0.0797,1.33543 -1.63693,-0.0978 -0.25983,4.35081 1.63696,0.0978 -0.0797,1.33537 z m 6.46364,0.36095 0.1973,-7.03137 2.36175,0.0664 q 0.73334,0.0203 1.31114,0.19867 0.57812,0.1674 0.90184,0.55418 0.33449,0.3871 0.31541,1.06652 -0.0136,0.46373 -0.31688,0.9085 -0.30361,0.43399 -0.93364,0.57818 l -8.7e-4,0.0431 q 0.75095,0.16151 1.12769,0.58207 0.37701,0.40993 0.35736,1.1109 -0.0204,0.72255 -0.3889,1.16551 -0.3686,0.44294 -0.98966,0.65215 -0.60998,0.19867 -1.37566,0.17715 z m 1.70335,-4.16136 0.70098,0.0204 q 0.58235,0.0159 0.84753,-0.20297 0.26548,-0.2301 0.27668,-0.62901 0.0115,-0.38822 -0.25415,-0.55758 -0.25399,-0.17987 -0.81477,-0.19549 l -0.71176,-0.0204 z m -0.0834,2.96566 0.85196,0.0241 q 1.27256,0.0355 1.29919,-0.91332 0.0136,-0.4637 -0.29397,-0.67739 -0.29621,-0.21339 -0.95405,-0.23183 l -0.85196,-0.0241 z m 4.85144,1.35246 -0.005,-1.33777 1.63985,-0.006 -0.0182,-4.35853 -1.63986,0.006 -0.005,-1.33777 4.87638,-0.0204 0.005,1.33776 -1.63983,0.006 0.0182,4.35853 1.63984,-0.006 0.005,1.33777 z m 13.29778,-0.3509 -0.52007,-7.01486 1.58156,-0.11728 0.42116,5.68074 3.1201,-0.23132 0.099,1.3341 z m 6.09909,-0.48055 -0.15178,-1.32917 1.6293,-0.18599 -0.49414,-4.33043 -1.62927,0.18573 -0.15178,-1.32917 4.84498,-0.55281 0.15177,1.32916 -1.62928,0.18598 0.49411,4.33048 1.6293,-0.18598 0.15178,1.32916 z m 6.42882,-0.76463 -1.10886,-6.94616 2.33316,-0.37246 q 0.72444,-0.11575 1.32525,-0.0477 0.5991,0.0573 0.98889,0.37747 0.40044,0.31846 0.5076,0.98964 0.0731,0.45808 -0.14318,0.95147 -0.21792,0.48271 -0.81032,0.74117 l 0.006,0.0426 q 0.76784,0.0204 1.216,0.36306 0.44646,0.33298 0.557,1.02544 0.11396,0.71381 -0.16627,1.21738 -0.28015,0.5036 -0.85168,0.82424 -0.56259,0.30832 -1.319,0.42906 z m 0.90281,-4.40492 0.69248,-0.11049 q 0.57531,-0.0918 0.79528,-0.35638 0.21838,-0.27518 0.1554,-0.6694 -0.0612,-0.38351 -0.35307,-0.50079 -0.28288,-0.12957 -0.8369,-0.0412 l -0.70315,0.11217 z m 0.4677,2.92974 0.84163,-0.13432 q 1.25712,-0.20072 1.10748,-1.13819 -0.0731,-0.4581 -0.41442,-0.61123 -0.3306,-0.15494 -0.98047,-0.0513 l -0.84165,0.13432 z m 5.20736,0.37985 -1.46837,-6.87914 4.55797,-0.97292 0.27928,1.3083 -2.99646,0.63957 0.29502,1.38219 2.54277,-0.54275 0.27701,1.29776 -2.54276,0.54273 0.33782,1.58264 3.10194,-0.66211 0.27928,1.30831 z m 6.09121,-1.33805 -1.8966,-6.7736 2.39983,-0.67194 q 0.71683,-0.2007 1.36428,-0.1692 0.64453,0.0204 1.12575,0.37938 0.49161,0.35533 0.71851,1.16565 0.20931,0.74801 0.0136,1.32938 -0.19867,0.57097 -0.67195,0.96118 l 2.28639,2.28391 -1.71416,0.47998 -1.98223,-2.0778 -0.79995,0.22403 0.68358,2.44138 z m 0.50323,-4.08451 0.74801,-0.20953 q 1.23629,-0.34616 0.95411,-1.35389 -0.13953,-0.49868 -0.50656,-0.60879 -0.36693,-0.11012 -0.97988,0.0616 l -0.74801,0.20956 z m 7.29938,1.71688 -1.96293,-5.34743 -1.97492,0.72492 -0.46098,-1.25582 5.44873,-2.0001 0.461,1.25582 -1.97492,0.72497 1.96293,5.34743 z m 4.59837,-5.72427 0.13954,0.65249 1.32715,-0.65059 -0.43022,-0.51001 q -0.35863,-0.41294 -0.75066,-0.86956 -0.3968,-0.46629 -0.75029,-0.91783 l -0.0388,0.0204 q 0.13071,0.56073 0.26592,1.15526 0.13048,0.58486 0.23724,1.12126 z m -0.70945,4.31272 -1.12962,-7.28004 1.70496,-0.83576 5.06262,5.35208 -1.5112,0.74081 -1.11383,-1.31633 -1.90839,0.93547 0.34855,1.69149 z m 8.48146,-4.48606 q -0.58748,0.40232 -1.31236,0.58493 -0.71597,0.17647 -1.46816,0.0901 l 0.14089,-1.41716 q 0.51224,0.0415 1.01966,-0.0586 0.51639,-0.10539 0.93474,-0.39171 0.41836,-0.2865 0.51665,-0.56305 0.10717,-0.28262 -0.0451,-0.50515 -0.21338,-0.31153 -0.54514,-0.28046 -0.33181,0.0301 -0.86594,0.14838 l -0.96717,0.19165 q -0.40579,0.0949 -0.83083,0.0852 -0.43115,-0.0182 -0.82253,-0.2082 -0.38247,-0.19571 -0.66899,-0.61407 -0.32917,-0.48067 -0.33034,-1.0552 0.006,-0.58061 0.32988,-1.14125 0.32218,-0.56062 0.94525,-0.98733 0.52517,-0.35965 1.16666,-0.51127 0.64149,-0.15177 1.28917,-0.0459 l -0.10064,1.28502 q -0.45504,-0.0159 -0.83691,0.0764 -0.38799,0.0827 -0.81528,0.37526 -0.32932,0.22538 -0.44261,0.49926 -0.10448,0.26762 0.0725,0.52575 0.17669,0.25815 0.54136,0.21769 0.35847,-0.0494 0.88046,-0.18461 l 0.91047,-0.17873 q 0.72487,-0.18281 1.31028,-0.0335 0.59428,0.14227 1.01489,0.75642 0.32918,0.48066 0.34255,1.07299 0.0226,0.58624 -0.3144,1.18295 -0.3278,0.59059 -1.0488,1.08438 z"
         id="text2"
         aria-label="UBI GNU IBI LIBERTAS" /></g></g></svg>
